STARTFONT 2.1
FONT -Stefan Schmidt Art-Tiny5-Regular-R-Regular--9-9-75-75-c-80-iso10646-1
SIZE 9 75 75
FONTBOUNDINGBOX 16 16 -6 -4
STARTPROPERTIES 10
FAMILY_NAME "Tiny5"
WEIGHT_NAME "Regular"
FONT_VERSION "2.003"
COPYRIGHT "Copyright 2026 The Tiny5 Project Authors (https://github.com/Gissio/font_Tiny5)"
FOUNDRY "Stefan Schmidt Art"
FONT_ASCENT 7
FONT_DESCENT 2
POINT_SIZE 9
X_HEIGHT 4
CAP_HEIGHT 5
ENDPROPERTIES
CHARS 1654
STARTCHAR U+0000
ENCODING 0
SWIDTH 375 0
DWIDTH 6 0
BBX 5 5 0 0
BITMAP
F8
A8
D8
A8
F8
ENDCHAR
STARTCHAR U+0020
ENCODING 32
SWIDTH 125 0
DWIDTH 2 0
BBX 0 0 0 0
BITMAP
ENDCHAR
STARTCHAR U+0021
ENCODING 33
SWIDTH 125 0
DWIDTH 2 0
BBX 1 5 0 0
BITMAP
80
80
80
00
80
ENDCHAR
STARTCHAR U+0022
ENCODING 34
SWIDTH 250 0
DWIDTH 4 0
BBX 3 2 0 3
BITMAP
A0
A0
ENDCHAR
STARTCHAR U+0023
ENCODING 35
SWIDTH 375 0
DWIDTH 6 0
BBX 5 5 0 0
BITMAP
50
F8
50
F8
50
ENDCHAR
STARTCHAR U+0024
ENCODING 36
SWIDTH 250 0
DWIDTH 4 0
BBX 3 6 0 -1
BITMAP
40
60
C0
20
C0
40
ENDCHAR
STARTCHAR U+0025
ENCODING 37
SWIDTH 312 0
DWIDTH 5 0
BBX 4 4 0 0
BITMAP
90
20
40
90
ENDCHAR
STARTCHAR U+0026
ENCODING 38
SWIDTH 312 0
DWIDTH 5 0
BBX 4 5 0 0
BITMAP
40
A0
40
A0
50
ENDCHAR
STARTCHAR U+0027
ENCODING 39
SWIDTH 125 0
DWIDTH 2 0
BBX 1 2 0 3
BITMAP
80
80
ENDCHAR
STARTCHAR U+0028
ENCODING 40
SWIDTH 187 0
DWIDTH 3 0
BBX 2 5 0 0
BITMAP
40
80
80
80
40
ENDCHAR
STARTCHAR U+0029
ENCODING 41
SWIDTH 187 0
DWIDTH 3 0
BBX 2 5 0 0
BITMAP
80
40
40
40
80
ENDCHAR
STARTCHAR U+002A
ENCODING 42
SWIDTH 250 0
DWIDTH 4 0
BBX 3 4 0 1
BITMAP
40
E0
40
A0
ENDCHAR
STARTCHAR U+002B
ENCODING 43
SWIDTH 250 0
DWIDTH 4 0
BBX 3 3 0 1
BITMAP
40
E0
40
ENDCHAR
STARTCHAR U+002C
ENCODING 44
SWIDTH 125 0
DWIDTH 2 0
BBX 1 2 0 -1
BITMAP
80
80
ENDCHAR
STARTCHAR U+002D
ENCODING 45
SWIDTH 250 0
DWIDTH 4 0
BBX 3 1 0 2
BITMAP
E0
ENDCHAR
STARTCHAR U+002E
ENCODING 46
SWIDTH 125 0
DWIDTH 2 0
BBX 1 1 0 0
BITMAP
80
ENDCHAR
STARTCHAR U+002F
ENCODING 47
SWIDTH 187 0
DWIDTH 3 0
BBX 2 5 0 0
BITMAP
40
40
80
80
80
ENDCHAR
STARTCHAR U+0030
ENCODING 48
SWIDTH 250 0
DWIDTH 4 0
BBX 3 5 0 0
BITMAP
40
A0
A0
A0
40
ENDCHAR
STARTCHAR U+0031
ENCODING 49
SWIDTH 250 0
DWIDTH 4 0
BBX 2 5 0 0
BITMAP
40
C0
40
40
40
ENDCHAR
STARTCHAR U+0032
ENCODING 50
SWIDTH 250 0
DWIDTH 4 0
BBX 3 5 0 0
BITMAP
C0
20
40
80
E0
ENDCHAR
STARTCHAR U+0033
ENCODING 51
SWIDTH 250 0
DWIDTH 4 0
BBX 3 5 0 0
BITMAP
C0
20
40
20
C0
ENDCHAR
STARTCHAR U+0034
ENCODING 52
SWIDTH 250 0
DWIDTH 4 0
BBX 3 5 0 0
BITMAP
20
60
A0
E0
20
ENDCHAR
STARTCHAR U+0035
ENCODING 53
SWIDTH 250 0
DWIDTH 4 0
BBX 3 5 0 0
BITMAP
E0
80
C0
20
C0
ENDCHAR
STARTCHAR U+0036
ENCODING 54
SWIDTH 250 0
DWIDTH 4 0
BBX 3 5 0 0
BITMAP
60
80
C0
A0
40
ENDCHAR
STARTCHAR U+0037
ENCODING 55
SWIDTH 250 0
DWIDTH 4 0
BBX 3 5 0 0
BITMAP
E0
20
40
40
40
ENDCHAR
STARTCHAR U+0038
ENCODING 56
SWIDTH 250 0
DWIDTH 4 0
BBX 3 5 0 0
BITMAP
40
A0
40
A0
40
ENDCHAR
STARTCHAR U+0039
ENCODING 57
SWIDTH 250 0
DWIDTH 4 0
BBX 3 5 0 0
BITMAP
40
A0
60
20
C0
ENDCHAR
STARTCHAR U+003A
ENCODING 58
SWIDTH 125 0
DWIDTH 2 0
BBX 1 4 0 0
BITMAP
80
00
00
80
ENDCHAR
STARTCHAR U+003B
ENCODING 59
SWIDTH 125 0
DWIDTH 2 0
BBX 1 5 0 -1
BITMAP
80
00
00
80
80
ENDCHAR
STARTCHAR U+003C
ENCODING 60
SWIDTH 250 0
DWIDTH 4 0
BBX 3 5 0 0
BITMAP
20
40
80
40
20
ENDCHAR
STARTCHAR U+003D
ENCODING 61
SWIDTH 250 0
DWIDTH 4 0
BBX 3 3 0 1
BITMAP
E0
00
E0
ENDCHAR
STARTCHAR U+003E
ENCODING 62
SWIDTH 250 0
DWIDTH 4 0
BBX 3 5 0 0
BITMAP
80
40
20
40
80
ENDCHAR
STARTCHAR U+003F
ENCODING 63
SWIDTH 250 0
DWIDTH 4 0
BBX 3 5 0 0
BITMAP
C0
20
40
00
40
ENDCHAR
STARTCHAR U+0040
ENCODING 64
SWIDTH 312 0
DWIDTH 5 0
BBX 4 5 0 0
BITMAP
60
90
B0
80
60
ENDCHAR
STARTCHAR U+0041
ENCODING 65
SWIDTH 312 0
DWIDTH 5 0
BBX 4 5 0 0
BITMAP
60
90
F0
90
90
ENDCHAR
STARTCHAR U+0042
ENCODING 66
SWIDTH 312 0
DWIDTH 5 0
BBX 4 5 0 0
BITMAP
E0
90
E0
90
E0
ENDCHAR
STARTCHAR U+0043
ENCODING 67
SWIDTH 312 0
DWIDTH 5 0
BBX 4 5 0 0
BITMAP
60
90
80
90
60
ENDCHAR
STARTCHAR U+0044
ENCODING 68
SWIDTH 312 0
DWIDTH 5 0
BBX 4 5 0 0
BITMAP
E0
90
90
90
E0
ENDCHAR
STARTCHAR U+0045
ENCODING 69
SWIDTH 312 0
DWIDTH 5 0
BBX 4 5 0 0
BITMAP
F0
80
E0
80
F0
ENDCHAR
STARTCHAR U+0046
ENCODING 70
SWIDTH 312 0
DWIDTH 5 0
BBX 4 5 0 0
BITMAP
F0
80
E0
80
80
ENDCHAR
STARTCHAR U+0047
ENCODING 71
SWIDTH 312 0
DWIDTH 5 0
BBX 4 5 0 0
BITMAP
70
80
B0
90
70
ENDCHAR
STARTCHAR U+0048
ENCODING 72
SWIDTH 312 0
DWIDTH 5 0
BBX 4 5 0 0
BITMAP
90
90
F0
90
90
ENDCHAR
STARTCHAR U+0049
ENCODING 73
SWIDTH 125 0
DWIDTH 2 0
BBX 1 5 0 0
BITMAP
80
80
80
80
80
ENDCHAR
STARTCHAR U+004A
ENCODING 74
SWIDTH 250 0
DWIDTH 4 0
BBX 3 5 0 0
BITMAP
20
20
20
A0
40
ENDCHAR
STARTCHAR U+004B
ENCODING 75
SWIDTH 312 0
DWIDTH 5 0
BBX 4 5 0 0
BITMAP
90
A0
C0
A0
90
ENDCHAR
STARTCHAR U+004C
ENCODING 76
SWIDTH 312 0
DWIDTH 5 0
BBX 4 5 0 0
BITMAP
80
80
80
80
F0
ENDCHAR
STARTCHAR U+004D
ENCODING 77
SWIDTH 375 0
DWIDTH 6 0
BBX 5 5 0 0
BITMAP
88
D8
A8
88
88
ENDCHAR
STARTCHAR U+004E
ENCODING 78
SWIDTH 312 0
DWIDTH 5 0
BBX 4 5 0 0
BITMAP
90
D0
B0
90
90
ENDCHAR
STARTCHAR U+004F
ENCODING 79
SWIDTH 312 0
DWIDTH 5 0
BBX 4 5 0 0
BITMAP
60
90
90
90
60
ENDCHAR
STARTCHAR U+0050
ENCODING 80
SWIDTH 312 0
DWIDTH 5 0
BBX 4 5 0 0
BITMAP
E0
90
E0
80
80
ENDCHAR
STARTCHAR U+0051
ENCODING 81
SWIDTH 312 0
DWIDTH 5 0
BBX 4 6 0 -1
BITMAP
60
90
90
90
60
10
ENDCHAR
STARTCHAR U+0052
ENCODING 82
SWIDTH 312 0
DWIDTH 5 0
BBX 4 5 0 0
BITMAP
E0
90
E0
90
90
ENDCHAR
STARTCHAR U+0053
ENCODING 83
SWIDTH 312 0
DWIDTH 5 0
BBX 4 5 0 0
BITMAP
70
80
60
10
E0
ENDCHAR
STARTCHAR U+0054
ENCODING 84
SWIDTH 250 0
DWIDTH 4 0
BBX 3 5 0 0
BITMAP
E0
40
40
40
40
ENDCHAR
STARTCHAR U+0055
ENCODING 85
SWIDTH 312 0
DWIDTH 5 0
BBX 4 5 0 0
BITMAP
90
90
90
90
60
ENDCHAR
STARTCHAR U+0056
ENCODING 86
SWIDTH 375 0
DWIDTH 6 0
BBX 5 5 0 0
BITMAP
88
50
50
20
20
ENDCHAR
STARTCHAR U+0057
ENCODING 87
SWIDTH 375 0
DWIDTH 6 0
BBX 5 5 0 0
BITMAP
A8
A8
A8
50
50
ENDCHAR
STARTCHAR U+0058
ENCODING 88
SWIDTH 375 0
DWIDTH 6 0
BBX 5 5 0 0
BITMAP
88
50
20
50
88
ENDCHAR
STARTCHAR U+0059
ENCODING 89
SWIDTH 375 0
DWIDTH 6 0
BBX 5 5 0 0
BITMAP
88
50
20
20
20
ENDCHAR
STARTCHAR U+005A
ENCODING 90
SWIDTH 312 0
DWIDTH 5 0
BBX 4 5 0 0
BITMAP
F0
20
40
80
F0
ENDCHAR
STARTCHAR U+005B
ENCODING 91
SWIDTH 187 0
DWIDTH 3 0
BBX 2 5 0 0
BITMAP
C0
80
80
80
C0
ENDCHAR
STARTCHAR U+005C
ENCODING 92
SWIDTH 187 0
DWIDTH 3 0
BBX 2 5 0 0
BITMAP
80
80
40
40
40
ENDCHAR
STARTCHAR U+005D
ENCODING 93
SWIDTH 187 0
DWIDTH 3 0
BBX 2 5 0 0
BITMAP
C0
40
40
40
C0
ENDCHAR
STARTCHAR U+005E
ENCODING 94
SWIDTH 250 0
DWIDTH 4 0
BBX 3 2 0 3
BITMAP
40
A0
ENDCHAR
STARTCHAR U+005F
ENCODING 95
SWIDTH 250 0
DWIDTH 4 0
BBX 3 1 0 0
BITMAP
E0
ENDCHAR
STARTCHAR U+0060
ENCODING 96
SWIDTH 187 0
DWIDTH 3 0
BBX 2 2 0 4
BITMAP
80
40
ENDCHAR
STARTCHAR U+0061
ENCODING 97
SWIDTH 250 0
DWIDTH 4 0
BBX 3 4 0 0
BITMAP
60
A0
A0
60
ENDCHAR
STARTCHAR U+0062
ENCODING 98
SWIDTH 250 0
DWIDTH 4 0
BBX 3 5 0 0
BITMAP
80
C0
A0
A0
C0
ENDCHAR
STARTCHAR U+0063
ENCODING 99
SWIDTH 250 0
DWIDTH 4 0
BBX 3 4 0 0
BITMAP
60
80
80
60
ENDCHAR
STARTCHAR U+0064
ENCODING 100
SWIDTH 250 0
DWIDTH 4 0
BBX 3 5 0 0
BITMAP
20
60
A0
A0
60
ENDCHAR
STARTCHAR U+0065
ENCODING 101
SWIDTH 250 0
DWIDTH 4 0
BBX 3 4 0 0
BITMAP
40
E0
80
60
ENDCHAR
STARTCHAR U+0066
ENCODING 102
SWIDTH 187 0
DWIDTH 3 0
BBX 2 5 0 0
BITMAP
40
80
C0
80
80
ENDCHAR
STARTCHAR U+0067
ENCODING 103
SWIDTH 250 0
DWIDTH 4 0
BBX 3 5 0 -1
BITMAP
60
A0
A0
60
C0
ENDCHAR
STARTCHAR U+0068
ENCODING 104
SWIDTH 250 0
DWIDTH 4 0
BBX 3 5 0 0
BITMAP
80
C0
A0
A0
A0
ENDCHAR
STARTCHAR U+0069
ENCODING 105
SWIDTH 125 0
DWIDTH 2 0
BBX 1 6 0 0
BITMAP
80
00
80
80
80
80
ENDCHAR
STARTCHAR U+006A
ENCODING 106
SWIDTH 187 0
DWIDTH 3 0
BBX 2 7 0 -1
BITMAP
40
00
40
40
40
40
80
ENDCHAR
STARTCHAR U+006B
ENCODING 107
SWIDTH 250 0
DWIDTH 4 0
BBX 3 5 0 0
BITMAP
80
A0
C0
A0
A0
ENDCHAR
STARTCHAR U+006C
ENCODING 108
SWIDTH 125 0
DWIDTH 2 0
BBX 1 5 0 0
BITMAP
80
80
80
80
80
ENDCHAR
STARTCHAR U+006D
ENCODING 109
SWIDTH 375 0
DWIDTH 6 0
BBX 5 4 0 0
BITMAP
F0
A8
A8
A8
ENDCHAR
STARTCHAR U+006E
ENCODING 110
SWIDTH 250 0
DWIDTH 4 0
BBX 3 4 0 0
BITMAP
C0
A0
A0
A0
ENDCHAR
STARTCHAR U+006F
ENCODING 111
SWIDTH 250 0
DWIDTH 4 0
BBX 3 4 0 0
BITMAP
40
A0
A0
40
ENDCHAR
STARTCHAR U+0070
ENCODING 112
SWIDTH 250 0
DWIDTH 4 0
BBX 3 5 0 -1
BITMAP
C0
A0
A0
C0
80
ENDCHAR
STARTCHAR U+0071
ENCODING 113
SWIDTH 250 0
DWIDTH 4 0
BBX 3 5 0 -1
BITMAP
60
A0
A0
60
20
ENDCHAR
STARTCHAR U+0072
ENCODING 114
SWIDTH 187 0
DWIDTH 3 0
BBX 2 4 0 0
BITMAP
C0
80
80
80
ENDCHAR
STARTCHAR U+0073
ENCODING 115
SWIDTH 250 0
DWIDTH 4 0
BBX 3 4 0 0
BITMAP
60
C0
20
C0
ENDCHAR
STARTCHAR U+0074
ENCODING 116
SWIDTH 187 0
DWIDTH 3 0
BBX 2 5 0 0
BITMAP
80
C0
80
80
40
ENDCHAR
STARTCHAR U+0075
ENCODING 117
SWIDTH 250 0
DWIDTH 4 0
BBX 3 4 0 0
BITMAP
A0
A0
A0
60
ENDCHAR
STARTCHAR U+0076
ENCODING 118
SWIDTH 250 0
DWIDTH 4 0
BBX 3 4 0 0
BITMAP
A0
A0
40
40
ENDCHAR
STARTCHAR U+0077
ENCODING 119
SWIDTH 375 0
DWIDTH 6 0
BBX 5 4 0 0
BITMAP
A8
A8
50
50
ENDCHAR
STARTCHAR U+0078
ENCODING 120
SWIDTH 250 0
DWIDTH 4 0
BBX 3 4 0 0
BITMAP
A0
40
A0
A0
ENDCHAR
STARTCHAR U+0079
ENCODING 121
SWIDTH 250 0
DWIDTH 4 0
BBX 3 5 0 -1
BITMAP
A0
A0
A0
40
80
ENDCHAR
STARTCHAR U+007A
ENCODING 122
SWIDTH 250 0
DWIDTH 4 0
BBX 3 4 0 0
BITMAP
E0
40
80
E0
ENDCHAR
STARTCHAR U+007B
ENCODING 123
SWIDTH 250 0
DWIDTH 4 0
BBX 3 5 0 0
BITMAP
60
40
80
40
60
ENDCHAR
STARTCHAR U+007C
ENCODING 124
SWIDTH 125 0
DWIDTH 2 0
BBX 1 5 0 0
BITMAP
80
80
80
80
80
ENDCHAR
STARTCHAR U+007D
ENCODING 125
SWIDTH 250 0
DWIDTH 4 0
BBX 3 5 0 0
BITMAP
C0
40
20
40
C0
ENDCHAR
STARTCHAR U+007E
ENCODING 126
SWIDTH 312 0
DWIDTH 5 0
BBX 4 2 0 1
BITMAP
50
A0
ENDCHAR
STARTCHAR U+00A0
ENCODING 160
SWIDTH 125 0
DWIDTH 2 0
BBX 0 0 0 0
BITMAP
ENDCHAR
STARTCHAR U+00A1
ENCODING 161
SWIDTH 125 0
DWIDTH 2 0
BBX 1 5 0 -1
BITMAP
80
00
80
80
80
ENDCHAR
STARTCHAR U+00A2
ENCODING 162
SWIDTH 250 0
DWIDTH 4 0
BBX 3 5 0 0
BITMAP
40
60
80
60
40
ENDCHAR
STARTCHAR U+00A3
ENCODING 163
SWIDTH 312 0
DWIDTH 5 0
BBX 4 5 0 0
BITMAP
20
50
E0
40
F0
ENDCHAR
STARTCHAR U+00A4
ENCODING 164
SWIDTH 312 0
DWIDTH 5 0
BBX 4 4 0 0
BITMAP
90
60
60
90
ENDCHAR
STARTCHAR U+00A5
ENCODING 165
SWIDTH 375 0
DWIDTH 6 0
BBX 5 5 0 0
BITMAP
88
50
20
70
20
ENDCHAR
STARTCHAR U+00A6
ENCODING 166
SWIDTH 125 0
DWIDTH 2 0
BBX 1 5 0 0
BITMAP
80
80
00
80
80
ENDCHAR
STARTCHAR U+00A7
ENCODING 167
SWIDTH 250 0
DWIDTH 4 0
BBX 3 5 0 0
BITMAP
60
C0
A0
60
C0
ENDCHAR
STARTCHAR U+00A8
ENCODING 168
SWIDTH 250 0
DWIDTH 4 0
BBX 3 1 0 4
BITMAP
A0
ENDCHAR
STARTCHAR U+00A9
ENCODING 169
SWIDTH 500 0
DWIDTH 8 0
BBX 7 7 0 -1
BITMAP
38
44
92
A2
92
44
38
ENDCHAR
STARTCHAR U+00AA
ENCODING 170
SWIDTH 250 0
DWIDTH 4 0
BBX 3 3 0 2
BITMAP
60
A0
60
ENDCHAR
STARTCHAR U+00AB
ENCODING 171
SWIDTH 375 0
DWIDTH 6 0
BBX 5 3 0 1
BITMAP
48
90
48
ENDCHAR
STARTCHAR U+00AC
ENCODING 172
SWIDTH 250 0
DWIDTH 4 0
BBX 3 2 0 1
BITMAP
E0
20
ENDCHAR
STARTCHAR U+00AE
ENCODING 174
SWIDTH 500 0
DWIDTH 8 0
BBX 7 7 0 -1
BITMAP
38
44
B2
BA
AA
44
38
ENDCHAR
STARTCHAR U+00AF
ENCODING 175
SWIDTH 250 0
DWIDTH 4 0
BBX 3 1 0 4
BITMAP
E0
ENDCHAR
STARTCHAR U+00B0
ENCODING 176
SWIDTH 250 0
DWIDTH 4 0
BBX 3 3 0 2
BITMAP
40
A0
40
ENDCHAR
STARTCHAR U+00B1
ENCODING 177
SWIDTH 250 0
DWIDTH 4 0
BBX 3 5 0 0
BITMAP
40
E0
40
00
E0
ENDCHAR
STARTCHAR U+00B2
ENCODING 178
SWIDTH 250 0
DWIDTH 4 0
BBX 3 4 0 1
BITMAP
C0
20
40
E0
ENDCHAR
STARTCHAR U+00B3
ENCODING 179
SWIDTH 250 0
DWIDTH 4 0
BBX 3 4 0 1
BITMAP
E0
40
20
C0
ENDCHAR
STARTCHAR U+00B4
ENCODING 180
SWIDTH 187 0
DWIDTH 3 0
BBX 2 2 0 4
BITMAP
40
80
ENDCHAR
STARTCHAR U+00B5
ENCODING 181
SWIDTH 250 0
DWIDTH 4 0
BBX 3 5 0 -1
BITMAP
A0
A0
A0
E0
80
ENDCHAR
STARTCHAR U+00B6
ENCODING 182
SWIDTH 375 0
DWIDTH 6 0
BBX 5 5 0 0
BITMAP
78
E8
68
28
28
ENDCHAR
STARTCHAR U+00B7
ENCODING 183
SWIDTH 125 0
DWIDTH 2 0
BBX 1 1 0 2
BITMAP
80
ENDCHAR
STARTCHAR U+00B8
ENCODING 184
SWIDTH 187 0
DWIDTH 3 0
BBX 2 2 0 -2
BITMAP
40
80
ENDCHAR
STARTCHAR U+00B9
ENCODING 185
SWIDTH 187 0
DWIDTH 3 0
BBX 2 4 0 1
BITMAP
40
C0
40
40
ENDCHAR
STARTCHAR U+00BA
ENCODING 186
SWIDTH 250 0
DWIDTH 4 0
BBX 3 3 0 2
BITMAP
40
A0
40
ENDCHAR
STARTCHAR U+00BB
ENCODING 187
SWIDTH 375 0
DWIDTH 6 0
BBX 5 3 0 1
BITMAP
90
48
90
ENDCHAR
STARTCHAR U+00BC
ENCODING 188
SWIDTH 562 0
DWIDTH 9 0
BBX 8 5 0 0
BITMAP
48
C9
53
57
01
ENDCHAR
STARTCHAR U+00BD
ENCODING 189
SWIDTH 625 0
DWIDTH 10 0
BBX 9 5 0 0
BITMAP
4800
CB00
5080
5100
0380
ENDCHAR
STARTCHAR U+00BE
ENCODING 190
SWIDTH 625 0
DWIDTH 10 0
BBX 9 5 0 0
BITMAP
E400
4480
2980
CB80
0080
ENDCHAR
STARTCHAR U+00BF
ENCODING 191
SWIDTH 250 0
DWIDTH 4 0
BBX 3 5 0 -1
BITMAP
40
00
40
80
60
ENDCHAR
STARTCHAR U+00C0
ENCODING 192
SWIDTH 312 0
DWIDTH 5 0
BBX 4 8 0 0
BITMAP
40
20
00
60
90
F0
90
90
ENDCHAR
STARTCHAR U+00C1
ENCODING 193
SWIDTH 312 0
DWIDTH 5 0
BBX 4 8 0 0
BITMAP
20
40
00
60
90
F0
90
90
ENDCHAR
STARTCHAR U+00C2
ENCODING 194
SWIDTH 312 0
DWIDTH 5 0
BBX 4 8 0 0
BITMAP
20
50
00
60
90
F0
90
90
ENDCHAR
STARTCHAR U+00C3
ENCODING 195
SWIDTH 312 0
DWIDTH 5 0
BBX 4 8 0 0
BITMAP
50
A0
00
60
90
F0
90
90
ENDCHAR
STARTCHAR U+00C4
ENCODING 196
SWIDTH 312 0
DWIDTH 5 0
BBX 4 7 0 0
BITMAP
50
00
60
90
F0
90
90
ENDCHAR
STARTCHAR U+00C5
ENCODING 197
SWIDTH 312 0
DWIDTH 5 0
BBX 4 9 0 0
BITMAP
20
50
20
00
60
90
F0
90
90
ENDCHAR
STARTCHAR U+00C6
ENCODING 198
SWIDTH 375 0
DWIDTH 6 0
BBX 5 5 0 0
BITMAP
78
A0
F8
A0
B8
ENDCHAR
STARTCHAR U+00C7
ENCODING 199
SWIDTH 312 0
DWIDTH 5 0
BBX 4 7 0 -2
BITMAP
60
90
80
90
60
20
40
ENDCHAR
STARTCHAR U+00C8
ENCODING 200
SWIDTH 312 0
DWIDTH 5 0
BBX 4 8 0 0
BITMAP
40
20
00
F0
80
E0
80
F0
ENDCHAR
STARTCHAR U+00C9
ENCODING 201
SWIDTH 312 0
DWIDTH 5 0
BBX 4 8 0 0
BITMAP
20
40
00
F0
80
E0
80
F0
ENDCHAR
STARTCHAR U+00CA
ENCODING 202
SWIDTH 312 0
DWIDTH 5 0
BBX 4 8 0 0
BITMAP
20
50
00
F0
80
E0
80
F0
ENDCHAR
STARTCHAR U+00CB
ENCODING 203
SWIDTH 312 0
DWIDTH 5 0
BBX 4 7 0 0
BITMAP
50
00
F0
80
E0
80
F0
ENDCHAR
STARTCHAR U+00CC
ENCODING 204
SWIDTH 125 0
DWIDTH 2 0
BBX 2 8 -1 0
BITMAP
80
40
00
40
40
40
40
40
ENDCHAR
STARTCHAR U+00CD
ENCODING 205
SWIDTH 125 0
DWIDTH 2 0
BBX 2 8 0 0
BITMAP
40
80
00
80
80
80
80
80
ENDCHAR
STARTCHAR U+00CE
ENCODING 206
SWIDTH 125 0
DWIDTH 2 0
BBX 3 8 -1 0
BITMAP
40
A0
00
40
40
40
40
40
ENDCHAR
STARTCHAR U+00CF
ENCODING 207
SWIDTH 125 0
DWIDTH 2 0
BBX 3 7 -1 0
BITMAP
A0
00
40
40
40
40
40
ENDCHAR
STARTCHAR U+00D0
ENCODING 208
SWIDTH 312 0
DWIDTH 5 0
BBX 4 5 0 0
BITMAP
E0
90
D0
90
E0
ENDCHAR
STARTCHAR U+00D1
ENCODING 209
SWIDTH 312 0
DWIDTH 5 0
BBX 4 8 0 0
BITMAP
50
A0
00
90
D0
B0
90
90
ENDCHAR
STARTCHAR U+00D2
ENCODING 210
SWIDTH 312 0
DWIDTH 5 0
BBX 4 8 0 0
BITMAP
40
20
00
60
90
90
90
60
ENDCHAR
STARTCHAR U+00D3
ENCODING 211
SWIDTH 312 0
DWIDTH 5 0
BBX 4 8 0 0
BITMAP
20
40
00
60
90
90
90
60
ENDCHAR
STARTCHAR U+00D4
ENCODING 212
SWIDTH 312 0
DWIDTH 5 0
BBX 4 8 0 0
BITMAP
20
50
00
60
90
90
90
60
ENDCHAR
STARTCHAR U+00D5
ENCODING 213
SWIDTH 312 0
DWIDTH 5 0
BBX 4 8 0 0
BITMAP
50
A0
00
60
90
90
90
60
ENDCHAR
STARTCHAR U+00D6
ENCODING 214
SWIDTH 312 0
DWIDTH 5 0
BBX 4 7 0 0
BITMAP
50
00
60
90
90
90
60
ENDCHAR
STARTCHAR U+00D7
ENCODING 215
SWIDTH 250 0
DWIDTH 4 0
BBX 3 3 0 1
BITMAP
A0
40
A0
ENDCHAR
STARTCHAR U+00D8
ENCODING 216
SWIDTH 312 0
DWIDTH 5 0
BBX 4 5 0 0
BITMAP
60
B0
D0
90
60
ENDCHAR
STARTCHAR U+00D9
ENCODING 217
SWIDTH 312 0
DWIDTH 5 0
BBX 4 8 0 0
BITMAP
40
20
00
90
90
90
90
60
ENDCHAR
STARTCHAR U+00DA
ENCODING 218
SWIDTH 312 0
DWIDTH 5 0
BBX 4 8 0 0
BITMAP
20
40
00
90
90
90
90
60
ENDCHAR
STARTCHAR U+00DB
ENCODING 219
SWIDTH 312 0
DWIDTH 5 0
BBX 4 8 0 0
BITMAP
20
50
00
90
90
90
90
60
ENDCHAR
STARTCHAR U+00DC
ENCODING 220
SWIDTH 312 0
DWIDTH 5 0
BBX 4 7 0 0
BITMAP
50
00
90
90
90
90
60
ENDCHAR
STARTCHAR U+00DD
ENCODING 221
SWIDTH 375 0
DWIDTH 6 0
BBX 5 8 0 0
BITMAP
10
20
00
88
50
20
20
20
ENDCHAR
STARTCHAR U+00DE
ENCODING 222
SWIDTH 312 0
DWIDTH 5 0
BBX 4 5 0 0
BITMAP
80
E0
90
E0
80
ENDCHAR
STARTCHAR U+00DF
ENCODING 223
SWIDTH 250 0
DWIDTH 4 0
BBX 3 5 0 0
BITMAP
40
A0
C0
A0
C0
ENDCHAR
STARTCHAR U+00E0
ENCODING 224
SWIDTH 250 0
DWIDTH 4 0
BBX 3 7 0 0
BITMAP
80
40
00
60
A0
A0
60
ENDCHAR
STARTCHAR U+00E1
ENCODING 225
SWIDTH 250 0
DWIDTH 4 0
BBX 3 7 0 0
BITMAP
20
40
00
60
A0
A0
60
ENDCHAR
STARTCHAR U+00E2
ENCODING 226
SWIDTH 250 0
DWIDTH 4 0
BBX 3 7 0 0
BITMAP
40
A0
00
60
A0
A0
60
ENDCHAR
STARTCHAR U+00E3
ENCODING 227
SWIDTH 250 0
DWIDTH 4 0
BBX 4 7 0 0
BITMAP
50
A0
00
60
A0
A0
60
ENDCHAR
STARTCHAR U+00E4
ENCODING 228
SWIDTH 250 0
DWIDTH 4 0
BBX 3 6 0 0
BITMAP
A0
00
60
A0
A0
60
ENDCHAR
STARTCHAR U+00E5
ENCODING 229
SWIDTH 250 0
DWIDTH 4 0
BBX 3 8 0 0
BITMAP
40
A0
40
00
60
A0
A0
60
ENDCHAR
STARTCHAR U+00E6
ENCODING 230
SWIDTH 375 0
DWIDTH 6 0
BBX 5 4 0 0
BITMAP
70
B8
A0
78
ENDCHAR
STARTCHAR U+00E7
ENCODING 231
SWIDTH 250 0
DWIDTH 4 0
BBX 3 6 0 -2
BITMAP
60
80
80
60
40
80
ENDCHAR
STARTCHAR U+00E8
ENCODING 232
SWIDTH 250 0
DWIDTH 4 0
BBX 3 7 0 0
BITMAP
80
40
00
40
E0
80
60
ENDCHAR
STARTCHAR U+00E9
ENCODING 233
SWIDTH 250 0
DWIDTH 4 0
BBX 3 7 0 0
BITMAP
20
40
00
40
E0
80
60
ENDCHAR
STARTCHAR U+00EA
ENCODING 234
SWIDTH 250 0
DWIDTH 4 0
BBX 3 7 0 0
BITMAP
40
A0
00
40
E0
80
60
ENDCHAR
STARTCHAR U+00EB
ENCODING 235
SWIDTH 250 0
DWIDTH 4 0
BBX 3 6 0 0
BITMAP
A0
00
40
E0
80
60
ENDCHAR
STARTCHAR U+00EC
ENCODING 236
SWIDTH 125 0
DWIDTH 2 0
BBX 2 7 -1 0
BITMAP
80
40
00
40
40
40
40
ENDCHAR
STARTCHAR U+00ED
ENCODING 237
SWIDTH 125 0
DWIDTH 2 0
BBX 2 7 0 0
BITMAP
40
80
00
80
80
80
80
ENDCHAR
STARTCHAR U+00EE
ENCODING 238
SWIDTH 125 0
DWIDTH 2 0
BBX 3 7 -1 0
BITMAP
40
A0
00
40
40
40
40
ENDCHAR
STARTCHAR U+00EF
ENCODING 239
SWIDTH 125 0
DWIDTH 2 0
BBX 3 6 -1 0
BITMAP
A0
00
40
40
40
40
ENDCHAR
STARTCHAR U+00F0
ENCODING 240
SWIDTH 250 0
DWIDTH 4 0
BBX 3 5 0 0
BITMAP
40
20
60
A0
40
ENDCHAR
STARTCHAR U+00F1
ENCODING 241
SWIDTH 250 0
DWIDTH 4 0
BBX 4 7 0 0
BITMAP
50
A0
00
C0
A0
A0
A0
ENDCHAR
STARTCHAR U+00F2
ENCODING 242
SWIDTH 250 0
DWIDTH 4 0
BBX 3 7 0 0
BITMAP
80
40
00
40
A0
A0
40
ENDCHAR
STARTCHAR U+00F3
ENCODING 243
SWIDTH 250 0
DWIDTH 4 0
BBX 3 7 0 0
BITMAP
20
40
00
40
A0
A0
40
ENDCHAR
STARTCHAR U+00F4
ENCODING 244
SWIDTH 250 0
DWIDTH 4 0
BBX 3 7 0 0
BITMAP
40
A0
00
40
A0
A0
40
ENDCHAR
STARTCHAR U+00F5
ENCODING 245
SWIDTH 250 0
DWIDTH 4 0
BBX 4 7 0 0
BITMAP
50
A0
00
40
A0
A0
40
ENDCHAR
STARTCHAR U+00F6
ENCODING 246
SWIDTH 250 0
DWIDTH 4 0
BBX 3 6 0 0
BITMAP
A0
00
40
A0
A0
40
ENDCHAR
STARTCHAR U+00F7
ENCODING 247
SWIDTH 250 0
DWIDTH 4 0
BBX 3 5 0 0
BITMAP
40
00
E0
00
40
ENDCHAR
STARTCHAR U+00F8
ENCODING 248
SWIDTH 250 0
DWIDTH 4 0
BBX 3 4 0 0
BITMAP
40
E0
A0
40
ENDCHAR
STARTCHAR U+00F9
ENCODING 249
SWIDTH 250 0
DWIDTH 4 0
BBX 3 7 0 0
BITMAP
80
40
00
A0
A0
A0
60
ENDCHAR
STARTCHAR U+00FA
ENCODING 250
SWIDTH 250 0
DWIDTH 4 0
BBX 3 7 0 0
BITMAP
20
40
00
A0
A0
A0
60
ENDCHAR
STARTCHAR U+00FB
ENCODING 251
SWIDTH 250 0
DWIDTH 4 0
BBX 3 7 0 0
BITMAP
40
A0
00
A0
A0
A0
60
ENDCHAR
STARTCHAR U+00FC
ENCODING 252
SWIDTH 250 0
DWIDTH 4 0
BBX 3 6 0 0
BITMAP
A0
00
A0
A0
A0
60
ENDCHAR
STARTCHAR U+00FD
ENCODING 253
SWIDTH 250 0
DWIDTH 4 0
BBX 3 8 0 -1
BITMAP
20
40
00
A0
A0
A0
40
80
ENDCHAR
STARTCHAR U+00FE
ENCODING 254
SWIDTH 250 0
DWIDTH 4 0
BBX 3 6 0 -1
BITMAP
80
C0
A0
A0
C0
80
ENDCHAR
STARTCHAR U+00FF
ENCODING 255
SWIDTH 250 0
DWIDTH 4 0
BBX 3 7 0 -1
BITMAP
A0
00
A0
A0
A0
40
80
ENDCHAR
STARTCHAR U+0100
ENCODING 256
SWIDTH 312 0
DWIDTH 5 0
BBX 4 7 0 0
BITMAP
70
00
60
90
F0
90
90
ENDCHAR
STARTCHAR U+0101
ENCODING 257
SWIDTH 250 0
DWIDTH 4 0
BBX 3 6 0 0
BITMAP
E0
00
60
A0
A0
60
ENDCHAR
STARTCHAR U+0102
ENCODING 258
SWIDTH 312 0
DWIDTH 5 0
BBX 4 8 0 0
BITMAP
50
20
00
60
90
F0
90
90
ENDCHAR
STARTCHAR U+0103
ENCODING 259
SWIDTH 250 0
DWIDTH 4 0
BBX 3 7 0 0
BITMAP
A0
40
00
60
A0
A0
60
ENDCHAR
STARTCHAR U+0104
ENCODING 260
SWIDTH 312 0
DWIDTH 5 0
BBX 4 7 0 -2
BITMAP
60
90
F0
90
90
20
10
ENDCHAR
STARTCHAR U+0105
ENCODING 261
SWIDTH 250 0
DWIDTH 4 0
BBX 3 6 0 -2
BITMAP
60
A0
A0
60
40
20
ENDCHAR
STARTCHAR U+0106
ENCODING 262
SWIDTH 312 0
DWIDTH 5 0
BBX 4 8 0 0
BITMAP
20
40
00
60
90
80
90
60
ENDCHAR
STARTCHAR U+0107
ENCODING 263
SWIDTH 250 0
DWIDTH 4 0
BBX 3 7 0 0
BITMAP
20
40
00
60
80
80
60
ENDCHAR
STARTCHAR U+0108
ENCODING 264
SWIDTH 312 0
DWIDTH 5 0
BBX 4 8 0 0
BITMAP
20
50
00
60
90
80
90
60
ENDCHAR
STARTCHAR U+0109
ENCODING 265
SWIDTH 250 0
DWIDTH 4 0
BBX 3 7 0 0
BITMAP
40
A0
00
60
80
80
60
ENDCHAR
STARTCHAR U+010A
ENCODING 266
SWIDTH 312 0
DWIDTH 5 0
BBX 4 7 0 0
BITMAP
20
00
60
90
80
90
60
ENDCHAR
STARTCHAR U+010B
ENCODING 267
SWIDTH 250 0
DWIDTH 4 0
BBX 3 6 0 0
BITMAP
40
00
60
80
80
60
ENDCHAR
STARTCHAR U+010C
ENCODING 268
SWIDTH 312 0
DWIDTH 5 0
BBX 4 8 0 0
BITMAP
50
20
00
60
90
80
90
60
ENDCHAR
STARTCHAR U+010D
ENCODING 269
SWIDTH 250 0
DWIDTH 4 0
BBX 3 7 0 0
BITMAP
A0
40
00
60
80
80
60
ENDCHAR
STARTCHAR U+010E
ENCODING 270
SWIDTH 312 0
DWIDTH 5 0
BBX 4 8 0 0
BITMAP
A0
40
00
E0
90
90
90
E0
ENDCHAR
STARTCHAR U+010F
ENCODING 271
SWIDTH 375 0
DWIDTH 6 0
BBX 5 5 0 0
BITMAP
28
68
A0
A0
60
ENDCHAR
STARTCHAR U+0110
ENCODING 272
SWIDTH 312 0
DWIDTH 5 0
BBX 4 5 0 0
BITMAP
E0
90
D0
90
E0
ENDCHAR
STARTCHAR U+0111
ENCODING 273
SWIDTH 312 0
DWIDTH 5 0
BBX 4 5 0 0
BITMAP
20
70
A0
A0
60
ENDCHAR
STARTCHAR U+0112
ENCODING 274
SWIDTH 312 0
DWIDTH 5 0
BBX 4 7 0 0
BITMAP
70
00
F0
80
E0
80
F0
ENDCHAR
STARTCHAR U+0113
ENCODING 275
SWIDTH 250 0
DWIDTH 4 0
BBX 3 6 0 0
BITMAP
E0
00
40
E0
80
60
ENDCHAR
STARTCHAR U+0114
ENCODING 276
SWIDTH 312 0
DWIDTH 5 0
BBX 4 8 0 0
BITMAP
50
20
00
F0
80
E0
80
F0
ENDCHAR
STARTCHAR U+0115
ENCODING 277
SWIDTH 250 0
DWIDTH 4 0
BBX 3 7 0 0
BITMAP
A0
40
00
40
E0
80
60
ENDCHAR
STARTCHAR U+0116
ENCODING 278
SWIDTH 312 0
DWIDTH 5 0
BBX 4 7 0 0
BITMAP
20
00
F0
80
E0
80
F0
ENDCHAR
STARTCHAR U+0117
ENCODING 279
SWIDTH 250 0
DWIDTH 4 0
BBX 3 6 0 0
BITMAP
40
00
40
E0
80
60
ENDCHAR
STARTCHAR U+0118
ENCODING 280
SWIDTH 312 0
DWIDTH 5 0
BBX 4 7 0 -2
BITMAP
F0
80
E0
80
F0
20
10
ENDCHAR
STARTCHAR U+0119
ENCODING 281
SWIDTH 250 0
DWIDTH 4 0
BBX 3 6 0 -2
BITMAP
40
E0
80
60
40
20
ENDCHAR
STARTCHAR U+011A
ENCODING 282
SWIDTH 312 0
DWIDTH 5 0
BBX 4 8 0 0
BITMAP
50
20
00
F0
80
E0
80
F0
ENDCHAR
STARTCHAR U+011B
ENCODING 283
SWIDTH 250 0
DWIDTH 4 0
BBX 3 7 0 0
BITMAP
A0
40
00
40
E0
80
60
ENDCHAR
STARTCHAR U+011C
ENCODING 284
SWIDTH 312 0
DWIDTH 5 0
BBX 4 8 0 0
BITMAP
20
50
00
70
80
B0
90
70
ENDCHAR
STARTCHAR U+011D
ENCODING 285
SWIDTH 250 0
DWIDTH 4 0
BBX 3 8 0 -1
BITMAP
40
A0
00
60
A0
A0
60
C0
ENDCHAR
STARTCHAR U+011E
ENCODING 286
SWIDTH 312 0
DWIDTH 5 0
BBX 4 8 0 0
BITMAP
50
20
00
70
80
B0
90
70
ENDCHAR
STARTCHAR U+011F
ENCODING 287
SWIDTH 250 0
DWIDTH 4 0
BBX 3 8 0 -1
BITMAP
A0
40
00
60
A0
A0
60
C0
ENDCHAR
STARTCHAR U+0120
ENCODING 288
SWIDTH 312 0
DWIDTH 5 0
BBX 4 7 0 0
BITMAP
20
00
70
80
B0
90
70
ENDCHAR
STARTCHAR U+0121
ENCODING 289
SWIDTH 250 0
DWIDTH 4 0
BBX 3 7 0 -1
BITMAP
40
00
60
A0
A0
60
C0
ENDCHAR
STARTCHAR U+0122
ENCODING 290
SWIDTH 312 0
DWIDTH 5 0
BBX 4 8 0 -3
BITMAP
70
80
B0
90
70
00
20
20
ENDCHAR
STARTCHAR U+0123
ENCODING 291
SWIDTH 250 0
DWIDTH 4 0
BBX 3 8 0 -1
BITMAP
40
40
00
60
A0
A0
60
C0
ENDCHAR
STARTCHAR U+0124
ENCODING 292
SWIDTH 312 0
DWIDTH 5 0
BBX 4 8 0 0
BITMAP
20
50
00
90
90
F0
90
90
ENDCHAR
STARTCHAR U+0125
ENCODING 293
SWIDTH 250 0
DWIDTH 4 0
BBX 3 8 0 0
BITMAP
40
A0
00
80
C0
A0
A0
A0
ENDCHAR
STARTCHAR U+0126
ENCODING 294
SWIDTH 437 0
DWIDTH 7 0
BBX 6 5 0 0
BITMAP
48
CC
78
48
48
ENDCHAR
STARTCHAR U+0127
ENCODING 295
SWIDTH 312 0
DWIDTH 5 0
BBX 4 5 0 0
BITMAP
40
E0
50
50
50
ENDCHAR
STARTCHAR U+0128
ENCODING 296
SWIDTH 125 0
DWIDTH 2 0
BBX 4 8 -1 0
BITMAP
50
A0
00
40
40
40
40
40
ENDCHAR
STARTCHAR U+0129
ENCODING 297
SWIDTH 125 0
DWIDTH 2 0
BBX 4 7 -1 0
BITMAP
50
A0
00
40
40
40
40
ENDCHAR
STARTCHAR U+012A
ENCODING 298
SWIDTH 125 0
DWIDTH 2 0
BBX 3 7 -1 0
BITMAP
E0
00
40
40
40
40
40
ENDCHAR
STARTCHAR U+012B
ENCODING 299
SWIDTH 125 0
DWIDTH 2 0
BBX 3 6 -1 0
BITMAP
E0
00
40
40
40
40
ENDCHAR
STARTCHAR U+012C
ENCODING 300
SWIDTH 125 0
DWIDTH 2 0
BBX 3 8 -1 0
BITMAP
A0
40
00
40
40
40
40
40
ENDCHAR
STARTCHAR U+012D
ENCODING 301
SWIDTH 125 0
DWIDTH 2 0
BBX 3 7 -1 0
BITMAP
A0
40
00
40
40
40
40
ENDCHAR
STARTCHAR U+012E
ENCODING 302
SWIDTH 125 0
DWIDTH 2 0
BBX 2 7 -1 -2
BITMAP
40
40
40
40
40
80
40
ENDCHAR
STARTCHAR U+012F
ENCODING 303
SWIDTH 125 0
DWIDTH 2 0
BBX 2 8 -1 -2
BITMAP
40
00
40
40
40
40
80
40
ENDCHAR
STARTCHAR U+0130
ENCODING 304
SWIDTH 125 0
DWIDTH 2 0
BBX 1 7 0 0
BITMAP
80
00
80
80
80
80
80
ENDCHAR
STARTCHAR U+0131
ENCODING 305
SWIDTH 125 0
DWIDTH 2 0
BBX 1 4 0 0
BITMAP
80
80
80
80
ENDCHAR
STARTCHAR U+0132
ENCODING 306
SWIDTH 375 0
DWIDTH 6 0
BBX 5 5 0 0
BITMAP
88
88
88
A8
90
ENDCHAR
STARTCHAR U+0133
ENCODING 307
SWIDTH 312 0
DWIDTH 5 0
BBX 4 7 0 -1
BITMAP
90
00
90
90
90
90
20
ENDCHAR
STARTCHAR U+0134
ENCODING 308
SWIDTH 250 0
DWIDTH 4 0
BBX 4 8 0 0
BITMAP
20
50
00
20
20
20
A0
40
ENDCHAR
STARTCHAR U+0135
ENCODING 309
SWIDTH 187 0
DWIDTH 3 0
BBX 3 8 0 -1
BITMAP
40
A0
00
40
40
40
40
80
ENDCHAR
STARTCHAR U+0136
ENCODING 310
SWIDTH 312 0
DWIDTH 5 0
BBX 4 8 0 -3
BITMAP
90
A0
C0
A0
90
00
40
40
ENDCHAR
STARTCHAR U+0137
ENCODING 311
SWIDTH 250 0
DWIDTH 4 0
BBX 3 8 0 -3
BITMAP
80
A0
C0
A0
A0
00
40
40
ENDCHAR
STARTCHAR U+0138
ENCODING 312
SWIDTH 250 0
DWIDTH 4 0
BBX 3 4 0 0
BITMAP
A0
C0
A0
A0
ENDCHAR
STARTCHAR U+0139
ENCODING 313
SWIDTH 312 0
DWIDTH 5 0
BBX 4 8 0 0
BITMAP
40
80
00
80
80
80
80
F0
ENDCHAR
STARTCHAR U+013A
ENCODING 314
SWIDTH 125 0
DWIDTH 2 0
BBX 2 8 0 0
BITMAP
40
80
00
80
80
80
80
80
ENDCHAR
STARTCHAR U+013B
ENCODING 315
SWIDTH 312 0
DWIDTH 5 0
BBX 4 8 0 -3
BITMAP
80
80
80
80
F0
00
40
40
ENDCHAR
STARTCHAR U+013C
ENCODING 316
SWIDTH 125 0
DWIDTH 2 0
BBX 1 8 0 -3
BITMAP
80
80
80
80
80
00
80
80
ENDCHAR
STARTCHAR U+013D
ENCODING 317
SWIDTH 312 0
DWIDTH 5 0
BBX 4 5 0 0
BITMAP
90
90
80
80
F0
ENDCHAR
STARTCHAR U+013E
ENCODING 318
SWIDTH 250 0
DWIDTH 4 0
BBX 3 5 0 0
BITMAP
A0
A0
80
80
80
ENDCHAR
STARTCHAR U+013F
ENCODING 319
SWIDTH 312 0
DWIDTH 5 0
BBX 4 5 0 0
BITMAP
80
80
90
80
F0
ENDCHAR
STARTCHAR U+0140
ENCODING 320
SWIDTH 250 0
DWIDTH 4 0
BBX 3 5 0 0
BITMAP
80
80
A0
80
80
ENDCHAR
STARTCHAR U+0141
ENCODING 321
SWIDTH 375 0
DWIDTH 6 0
BBX 5 5 0 0
BITMAP
40
60
C0
40
78
ENDCHAR
STARTCHAR U+0142
ENCODING 322
SWIDTH 250 0
DWIDTH 4 0
BBX 3 5 0 0
BITMAP
40
60
C0
40
40
ENDCHAR
STARTCHAR U+0143
ENCODING 323
SWIDTH 312 0
DWIDTH 5 0
BBX 4 8 0 0
BITMAP
20
40
00
90
D0
B0
90
90
ENDCHAR
STARTCHAR U+0144
ENCODING 324
SWIDTH 250 0
DWIDTH 4 0
BBX 3 7 0 0
BITMAP
20
40
00
C0
A0
A0
A0
ENDCHAR
STARTCHAR U+0145
ENCODING 325
SWIDTH 312 0
DWIDTH 5 0
BBX 4 8 0 -3
BITMAP
90
D0
B0
90
90
00
20
20
ENDCHAR
STARTCHAR U+0146
ENCODING 326
SWIDTH 250 0
DWIDTH 4 0
BBX 3 7 0 -3
BITMAP
C0
A0
A0
A0
00
40
40
ENDCHAR
STARTCHAR U+0147
ENCODING 327
SWIDTH 312 0
DWIDTH 5 0
BBX 4 8 0 0
BITMAP
50
20
00
90
D0
B0
90
90
ENDCHAR
STARTCHAR U+0148
ENCODING 328
SWIDTH 250 0
DWIDTH 4 0
BBX 3 7 0 0
BITMAP
A0
40
00
C0
A0
A0
A0
ENDCHAR
STARTCHAR U+0149
ENCODING 329
SWIDTH 375 0
DWIDTH 6 0
BBX 5 5 0 0
BITMAP
80
B0
28
28
28
ENDCHAR
STARTCHAR U+014A
ENCODING 330
SWIDTH 312 0
DWIDTH 5 0
BBX 4 7 0 -2
BITMAP
90
D0
B0
90
90
10
20
ENDCHAR
STARTCHAR U+014B
ENCODING 331
SWIDTH 250 0
DWIDTH 4 0
BBX 3 6 0 -2
BITMAP
C0
A0
A0
A0
20
40
ENDCHAR
STARTCHAR U+014C
ENCODING 332
SWIDTH 312 0
DWIDTH 5 0
BBX 4 7 0 0
BITMAP
70
00
60
90
90
90
60
ENDCHAR
STARTCHAR U+014D
ENCODING 333
SWIDTH 250 0
DWIDTH 4 0
BBX 3 6 0 0
BITMAP
E0
00
40
A0
A0
40
ENDCHAR
STARTCHAR U+014E
ENCODING 334
SWIDTH 312 0
DWIDTH 5 0
BBX 4 8 0 0
BITMAP
50
20
00
60
90
90
90
60
ENDCHAR
STARTCHAR U+014F
ENCODING 335
SWIDTH 250 0
DWIDTH 4 0
BBX 3 7 0 0
BITMAP
A0
40
00
40
A0
A0
40
ENDCHAR
STARTCHAR U+0150
ENCODING 336
SWIDTH 312 0
DWIDTH 5 0
BBX 4 8 0 0
BITMAP
50
A0
00
60
90
90
90
60
ENDCHAR
STARTCHAR U+0151
ENCODING 337
SWIDTH 250 0
DWIDTH 4 0
BBX 4 7 0 0
BITMAP
50
A0
00
40
A0
A0
40
ENDCHAR
STARTCHAR U+0152
ENCODING 338
SWIDTH 375 0
DWIDTH 6 0
BBX 5 5 0 0
BITMAP
78
A0
B8
A0
78
ENDCHAR
STARTCHAR U+0153
ENCODING 339
SWIDTH 375 0
DWIDTH 6 0
BBX 5 4 0 0
BITMAP
50
B8
A0
58
ENDCHAR
STARTCHAR U+0154
ENCODING 340
SWIDTH 312 0
DWIDTH 5 0
BBX 4 8 0 0
BITMAP
20
40
00
E0
90
E0
90
90
ENDCHAR
STARTCHAR U+0155
ENCODING 341
SWIDTH 187 0
DWIDTH 3 0
BBX 2 7 0 0
BITMAP
40
80
00
C0
80
80
80
ENDCHAR
STARTCHAR U+0156
ENCODING 342
SWIDTH 312 0
DWIDTH 5 0
BBX 4 8 0 -3
BITMAP
E0
90
E0
90
90
00
40
40
ENDCHAR
STARTCHAR U+0157
ENCODING 343
SWIDTH 187 0
DWIDTH 3 0
BBX 2 7 0 -3
BITMAP
C0
80
80
80
00
80
80
ENDCHAR
STARTCHAR U+0158
ENCODING 344
SWIDTH 312 0
DWIDTH 5 0
BBX 4 8 0 0
BITMAP
A0
40
00
E0
90
E0
90
90
ENDCHAR
STARTCHAR U+0159
ENCODING 345
SWIDTH 187 0
DWIDTH 3 0
BBX 3 7 -1 0
BITMAP
A0
40
00
60
40
40
40
ENDCHAR
STARTCHAR U+015A
ENCODING 346
SWIDTH 312 0
DWIDTH 5 0
BBX 4 8 0 0
BITMAP
20
40
00
70
80
60
10
E0
ENDCHAR
STARTCHAR U+015B
ENCODING 347
SWIDTH 250 0
DWIDTH 4 0
BBX 3 7 0 0
BITMAP
20
40
00
60
C0
20
C0
ENDCHAR
STARTCHAR U+015C
ENCODING 348
SWIDTH 312 0
DWIDTH 5 0
BBX 4 8 0 0
BITMAP
20
50
00
70
80
60
10
E0
ENDCHAR
STARTCHAR U+015D
ENCODING 349
SWIDTH 250 0
DWIDTH 4 0
BBX 3 7 0 0
BITMAP
40
A0
00
60
C0
20
C0
ENDCHAR
STARTCHAR U+015E
ENCODING 350
SWIDTH 312 0
DWIDTH 5 0
BBX 4 7 0 -2
BITMAP
70
80
60
10
E0
20
40
ENDCHAR
STARTCHAR U+015F
ENCODING 351
SWIDTH 250 0
DWIDTH 4 0
BBX 3 6 0 -2
BITMAP
60
C0
20
C0
40
80
ENDCHAR
STARTCHAR U+0160
ENCODING 352
SWIDTH 312 0
DWIDTH 5 0
BBX 4 8 0 0
BITMAP
50
20
00
70
80
60
10
E0
ENDCHAR
STARTCHAR U+0161
ENCODING 353
SWIDTH 250 0
DWIDTH 4 0
BBX 3 7 0 0
BITMAP
A0
40
00
60
C0
20
C0
ENDCHAR
STARTCHAR U+0162
ENCODING 354
SWIDTH 250 0
DWIDTH 4 0
BBX 3 7 0 -2
BITMAP
E0
40
40
40
40
20
40
ENDCHAR
STARTCHAR U+0163
ENCODING 355
SWIDTH 187 0
DWIDTH 3 0
BBX 2 7 0 -2
BITMAP
80
C0
80
80
40
40
80
ENDCHAR
STARTCHAR U+0164
ENCODING 356
SWIDTH 250 0
DWIDTH 4 0
BBX 3 8 0 0
BITMAP
A0
40
00
E0
40
40
40
40
ENDCHAR
STARTCHAR U+0165
ENCODING 357
SWIDTH 312 0
DWIDTH 5 0
BBX 4 5 0 0
BITMAP
90
D0
80
80
40
ENDCHAR
STARTCHAR U+0166
ENCODING 358
SWIDTH 250 0
DWIDTH 4 0
BBX 3 5 0 0
BITMAP
E0
40
E0
40
40
ENDCHAR
STARTCHAR U+0167
ENCODING 359
SWIDTH 187 0
DWIDTH 3 0
BBX 2 5 0 0
BITMAP
80
C0
C0
80
40
ENDCHAR
STARTCHAR U+0168
ENCODING 360
SWIDTH 312 0
DWIDTH 5 0
BBX 4 8 0 0
BITMAP
50
A0
00
90
90
90
90
60
ENDCHAR
STARTCHAR U+0169
ENCODING 361
SWIDTH 250 0
DWIDTH 4 0
BBX 4 7 0 0
BITMAP
50
A0
00
A0
A0
A0
60
ENDCHAR
STARTCHAR U+016A
ENCODING 362
SWIDTH 312 0
DWIDTH 5 0
BBX 4 7 0 0
BITMAP
70
00
90
90
90
90
60
ENDCHAR
STARTCHAR U+016B
ENCODING 363
SWIDTH 250 0
DWIDTH 4 0
BBX 3 6 0 0
BITMAP
E0
00
A0
A0
A0
60
ENDCHAR
STARTCHAR U+016C
ENCODING 364
SWIDTH 312 0
DWIDTH 5 0
BBX 4 8 0 0
BITMAP
50
20
00
90
90
90
90
60
ENDCHAR
STARTCHAR U+016D
ENCODING 365
SWIDTH 250 0
DWIDTH 4 0
BBX 3 7 0 0
BITMAP
A0
40
00
A0
A0
A0
60
ENDCHAR
STARTCHAR U+016E
ENCODING 366
SWIDTH 312 0
DWIDTH 5 0
BBX 4 9 0 0
BITMAP
20
50
20
00
90
90
90
90
60
ENDCHAR
STARTCHAR U+016F
ENCODING 367
SWIDTH 250 0
DWIDTH 4 0
BBX 3 8 0 0
BITMAP
40
A0
40
00
A0
A0
A0
60
ENDCHAR
STARTCHAR U+0170
ENCODING 368
SWIDTH 312 0
DWIDTH 5 0
BBX 4 8 0 0
BITMAP
50
A0
00
90
90
90
90
60
ENDCHAR
STARTCHAR U+0171
ENCODING 369
SWIDTH 250 0
DWIDTH 4 0
BBX 4 7 0 0
BITMAP
50
A0
00
A0
A0
A0
60
ENDCHAR
STARTCHAR U+0172
ENCODING 370
SWIDTH 312 0
DWIDTH 5 0
BBX 4 7 0 -2
BITMAP
90
90
90
90
60
20
10
ENDCHAR
STARTCHAR U+0173
ENCODING 371
SWIDTH 250 0
DWIDTH 4 0
BBX 3 6 0 -2
BITMAP
A0
A0
A0
60
40
20
ENDCHAR
STARTCHAR U+0174
ENCODING 372
SWIDTH 375 0
DWIDTH 6 0
BBX 5 8 0 0
BITMAP
20
50
00
A8
A8
A8
50
50
ENDCHAR
STARTCHAR U+0175
ENCODING 373
SWIDTH 375 0
DWIDTH 6 0
BBX 5 7 0 0
BITMAP
20
50
00
A8
A8
50
50
ENDCHAR
STARTCHAR U+0176
ENCODING 374
SWIDTH 375 0
DWIDTH 6 0
BBX 5 8 0 0
BITMAP
20
50
00
88
50
20
20
20
ENDCHAR
STARTCHAR U+0177
ENCODING 375
SWIDTH 250 0
DWIDTH 4 0
BBX 3 8 0 -1
BITMAP
40
A0
00
A0
A0
A0
40
80
ENDCHAR
STARTCHAR U+0178
ENCODING 376
SWIDTH 375 0
DWIDTH 6 0
BBX 5 7 0 0
BITMAP
50
00
88
50
20
20
20
ENDCHAR
STARTCHAR U+0179
ENCODING 377
SWIDTH 312 0
DWIDTH 5 0
BBX 4 8 0 0
BITMAP
20
40
00
F0
20
40
80
F0
ENDCHAR
STARTCHAR U+017A
ENCODING 378
SWIDTH 250 0
DWIDTH 4 0
BBX 3 7 0 0
BITMAP
20
40
00
E0
40
80
E0
ENDCHAR
STARTCHAR U+017B
ENCODING 379
SWIDTH 312 0
DWIDTH 5 0
BBX 4 7 0 0
BITMAP
20
00
F0
20
40
80
F0
ENDCHAR
STARTCHAR U+017C
ENCODING 380
SWIDTH 250 0
DWIDTH 4 0
BBX 3 6 0 0
BITMAP
40
00
E0
40
80
E0
ENDCHAR
STARTCHAR U+017D
ENCODING 381
SWIDTH 312 0
DWIDTH 5 0
BBX 4 8 0 0
BITMAP
50
20
00
F0
20
40
80
F0
ENDCHAR
STARTCHAR U+017E
ENCODING 382
SWIDTH 250 0
DWIDTH 4 0
BBX 3 7 0 0
BITMAP
A0
40
00
E0
40
80
E0
ENDCHAR
STARTCHAR U+017F
ENCODING 383
SWIDTH 187 0
DWIDTH 3 0
BBX 2 5 0 0
BITMAP
40
80
80
80
80
ENDCHAR
STARTCHAR U+0180
ENCODING 384
SWIDTH 312 0
DWIDTH 5 0
BBX 4 5 0 0
BITMAP
40
E0
50
50
60
ENDCHAR
STARTCHAR U+0181
ENCODING 385
SWIDTH 437 0
DWIDTH 7 0
BBX 6 5 0 0
BITMAP
78
A4
38
24
38
ENDCHAR
STARTCHAR U+0182
ENCODING 386
SWIDTH 312 0
DWIDTH 5 0
BBX 4 5 0 0
BITMAP
F0
80
E0
90
E0
ENDCHAR
STARTCHAR U+0183
ENCODING 387
SWIDTH 250 0
DWIDTH 4 0
BBX 3 5 0 0
BITMAP
E0
80
C0
A0
C0
ENDCHAR
STARTCHAR U+0186
ENCODING 390
SWIDTH 312 0
DWIDTH 5 0
BBX 4 5 0 0
BITMAP
60
90
10
90
60
ENDCHAR
STARTCHAR U+0187
ENCODING 391
SWIDTH 312 0
DWIDTH 5 0
BBX 4 6 0 0
BITMAP
10
70
90
80
90
60
ENDCHAR
STARTCHAR U+0188
ENCODING 392
SWIDTH 250 0
DWIDTH 4 0
BBX 3 5 0 0
BITMAP
20
60
80
80
60
ENDCHAR
STARTCHAR U+0189
ENCODING 393
SWIDTH 312 0
DWIDTH 5 0
BBX 4 5 0 0
BITMAP
E0
90
D0
90
E0
ENDCHAR
STARTCHAR U+018A
ENCODING 394
SWIDTH 437 0
DWIDTH 7 0
BBX 6 5 0 0
BITMAP
78
A4
24
24
38
ENDCHAR
STARTCHAR U+018E
ENCODING 398
SWIDTH 312 0
DWIDTH 5 0
BBX 4 5 0 0
BITMAP
F0
10
70
10
F0
ENDCHAR
STARTCHAR U+018F
ENCODING 399
SWIDTH 312 0
DWIDTH 5 0
BBX 4 5 0 0
BITMAP
E0
10
F0
90
60
ENDCHAR
STARTCHAR U+0190
ENCODING 400
SWIDTH 312 0
DWIDTH 5 0
BBX 4 5 0 0
BITMAP
70
80
60
80
70
ENDCHAR
STARTCHAR U+0191
ENCODING 401
SWIDTH 312 0
DWIDTH 5 0
BBX 5 7 -1 -2
BITMAP
78
40
70
40
40
40
80
ENDCHAR
STARTCHAR U+0192
ENCODING 402
SWIDTH 187 0
DWIDTH 3 0
BBX 3 7 -1 -2
BITMAP
20
40
60
40
40
40
80
ENDCHAR
STARTCHAR U+0193
ENCODING 403
SWIDTH 312 0
DWIDTH 5 0
BBX 4 6 0 0
BITMAP
10
70
80
B0
90
70
ENDCHAR
STARTCHAR U+0194
ENCODING 404
SWIDTH 250 0
DWIDTH 4 0
BBX 3 6 0 -1
BITMAP
A0
A0
40
40
A0
40
ENDCHAR
STARTCHAR U+0196
ENCODING 406
SWIDTH 187 0
DWIDTH 3 0
BBX 2 5 0 0
BITMAP
80
80
80
80
40
ENDCHAR
STARTCHAR U+0197
ENCODING 407
SWIDTH 250 0
DWIDTH 4 0
BBX 3 5 0 0
BITMAP
40
40
E0
40
40
ENDCHAR
STARTCHAR U+0198
ENCODING 408
SWIDTH 375 0
DWIDTH 6 0
BBX 5 5 0 0
BITMAP
98
A0
C0
A0
90
ENDCHAR
STARTCHAR U+0199
ENCODING 409
SWIDTH 250 0
DWIDTH 4 0
BBX 3 6 0 0
BITMAP
40
80
A0
C0
A0
A0
ENDCHAR
STARTCHAR U+019A
ENCODING 410
SWIDTH 250 0
DWIDTH 4 0
BBX 3 5 0 0
BITMAP
40
40
E0
40
40
ENDCHAR
STARTCHAR U+019B
ENCODING 411
SWIDTH 250 0
DWIDTH 4 0
BBX 3 5 0 0
BITMAP
80
60
40
A0
A0
ENDCHAR
STARTCHAR U+019C
ENCODING 412
SWIDTH 375 0
DWIDTH 6 0
BBX 5 5 0 0
BITMAP
A8
A8
A8
A8
78
ENDCHAR
STARTCHAR U+019D
ENCODING 413
SWIDTH 312 0
DWIDTH 5 0
BBX 5 7 -1 -2
BITMAP
48
68
58
48
48
40
80
ENDCHAR
STARTCHAR U+019E
ENCODING 414
SWIDTH 250 0
DWIDTH 4 0
BBX 3 5 0 -1
BITMAP
C0
A0
A0
A0
20
ENDCHAR
STARTCHAR U+019F
ENCODING 415
SWIDTH 312 0
DWIDTH 5 0
BBX 4 5 0 0
BITMAP
60
90
F0
90
60
ENDCHAR
STARTCHAR U+01A0
ENCODING 416
SWIDTH 312 0
DWIDTH 5 0
BBX 4 6 0 0
BITMAP
10
60
90
90
90
60
ENDCHAR
STARTCHAR U+01A1
ENCODING 417
SWIDTH 250 0
DWIDTH 4 0
BBX 3 5 0 0
BITMAP
20
40
A0
A0
40
ENDCHAR
STARTCHAR U+01A4
ENCODING 420
SWIDTH 437 0
DWIDTH 7 0
BBX 6 5 0 0
BITMAP
78
A4
38
20
20
ENDCHAR
STARTCHAR U+01A5
ENCODING 421
SWIDTH 250 0
DWIDTH 4 0
BBX 3 7 0 -1
BITMAP
40
80
C0
A0
A0
C0
80
ENDCHAR
STARTCHAR U+01A6
ENCODING 422
SWIDTH 312 0
DWIDTH 5 0
BBX 4 6 0 -1
BITMAP
80
E0
90
E0
A0
10
ENDCHAR
STARTCHAR U+01A9
ENCODING 425
SWIDTH 312 0
DWIDTH 5 0
BBX 4 5 0 0
BITMAP
F0
40
20
40
F0
ENDCHAR
STARTCHAR U+01AC
ENCODING 428
SWIDTH 312 0
DWIDTH 5 0
BBX 4 5 0 0
BITMAP
70
A0
20
20
20
ENDCHAR
STARTCHAR U+01AD
ENCODING 429
SWIDTH 187 0
DWIDTH 3 0
BBX 2 6 0 0
BITMAP
40
80
C0
80
80
40
ENDCHAR
STARTCHAR U+01AE
ENCODING 430
SWIDTH 250 0
DWIDTH 4 0
BBX 3 7 0 -2
BITMAP
E0
40
40
40
40
40
20
ENDCHAR
STARTCHAR U+01AF
ENCODING 431
SWIDTH 312 0
DWIDTH 5 0
BBX 5 6 0 0
BITMAP
08
90
90
90
90
60
ENDCHAR
STARTCHAR U+01B0
ENCODING 432
SWIDTH 250 0
DWIDTH 4 0
BBX 4 5 0 0
BITMAP
10
A0
A0
A0
60
ENDCHAR
STARTCHAR U+01B1
ENCODING 433
SWIDTH 375 0
DWIDTH 6 0
BBX 5 5 0 0
BITMAP
D8
50
88
88
70
ENDCHAR
STARTCHAR U+01B2
ENCODING 434
SWIDTH 312 0
DWIDTH 5 0
BBX 4 5 0 0
BITMAP
A0
90
90
90
60
ENDCHAR
STARTCHAR U+01B3
ENCODING 435
SWIDTH 437 0
DWIDTH 7 0
BBX 6 5 0 0
BITMAP
8C
50
20
20
20
ENDCHAR
STARTCHAR U+01B4
ENCODING 436
SWIDTH 312 0
DWIDTH 5 0
BBX 4 5 0 -1
BITMAP
B0
A0
A0
40
80
ENDCHAR
STARTCHAR U+01B5
ENCODING 437
SWIDTH 437 0
DWIDTH 7 0
BBX 6 5 0 0
BITMAP
78
08
94
20
78
ENDCHAR
STARTCHAR U+01B6
ENCODING 438
SWIDTH 375 0
DWIDTH 6 0
BBX 5 4 0 0
BITMAP
70
A8
40
70
ENDCHAR
STARTCHAR U+01B7
ENCODING 439
SWIDTH 312 0
DWIDTH 5 0
BBX 4 5 0 0
BITMAP
F0
20
60
10
E0
ENDCHAR
STARTCHAR U+01B8
ENCODING 440
SWIDTH 312 0
DWIDTH 5 0
BBX 4 5 0 0
BITMAP
F0
40
60
80
70
ENDCHAR
STARTCHAR U+01B9
ENCODING 441
SWIDTH 250 0
DWIDTH 4 0
BBX 3 5 0 -1
BITMAP
E0
80
40
80
60
ENDCHAR
STARTCHAR U+01C0
ENCODING 448
SWIDTH 125 0
DWIDTH 2 0
BBX 1 5 0 0
BITMAP
80
80
80
80
80
ENDCHAR
STARTCHAR U+01C1
ENCODING 449
SWIDTH 250 0
DWIDTH 4 0
BBX 3 5 0 0
BITMAP
A0
A0
A0
A0
A0
ENDCHAR
STARTCHAR U+01C2
ENCODING 450
SWIDTH 250 0
DWIDTH 4 0
BBX 3 5 0 0
BITMAP
40
E0
40
E0
40
ENDCHAR
STARTCHAR U+01C3
ENCODING 451
SWIDTH 125 0
DWIDTH 2 0
BBX 1 5 0 0
BITMAP
80
80
80
00
80
ENDCHAR
STARTCHAR U+01C4
ENCODING 452
SWIDTH 625 0
DWIDTH 10 0
BBX 9 8 0 0
BITMAP
0280
0100
0000
E780
9100
9200
9400
E780
ENDCHAR
STARTCHAR U+01C5
ENCODING 453
SWIDTH 562 0
DWIDTH 9 0
BBX 8 7 0 0
BITMAP
05
02
E0
97
92
94
E7
ENDCHAR
STARTCHAR U+01C6
ENCODING 454
SWIDTH 500 0
DWIDTH 8 0
BBX 7 7 0 0
BITMAP
0A
04
20
6E
A4
A8
6E
ENDCHAR
STARTCHAR U+01C7
ENCODING 455
SWIDTH 562 0
DWIDTH 9 0
BBX 8 5 0 0
BITMAP
81
81
81
85
F2
ENDCHAR
STARTCHAR U+01C8
ENCODING 456
SWIDTH 500 0
DWIDTH 8 0
BBX 7 7 0 -1
BITMAP
02
80
82
82
82
F2
04
ENDCHAR
STARTCHAR U+01C9
ENCODING 457
SWIDTH 312 0
DWIDTH 5 0
BBX 4 7 0 -1
BITMAP
10
80
90
90
90
90
20
ENDCHAR
STARTCHAR U+01CA
ENCODING 458
SWIDTH 562 0
DWIDTH 9 0
BBX 8 5 0 0
BITMAP
91
D1
B1
95
92
ENDCHAR
STARTCHAR U+01CB
ENCODING 459
SWIDTH 500 0
DWIDTH 8 0
BBX 7 7 0 -1
BITMAP
02
90
D2
B2
92
92
04
ENDCHAR
STARTCHAR U+01CC
ENCODING 460
SWIDTH 437 0
DWIDTH 7 0
BBX 6 7 0 -1
BITMAP
04
00
C4
A4
A4
A4
08
ENDCHAR
STARTCHAR U+01CD
ENCODING 461
SWIDTH 312 0
DWIDTH 5 0
BBX 4 8 0 0
BITMAP
50
20
00
60
90
F0
90
90
ENDCHAR
STARTCHAR U+01CE
ENCODING 462
SWIDTH 250 0
DWIDTH 4 0
BBX 3 7 0 0
BITMAP
A0
40
00
60
A0
A0
60
ENDCHAR
STARTCHAR U+01CF
ENCODING 463
SWIDTH 125 0
DWIDTH 2 0
BBX 3 8 -1 0
BITMAP
A0
40
00
40
40
40
40
40
ENDCHAR
STARTCHAR U+01D0
ENCODING 464
SWIDTH 125 0
DWIDTH 2 0
BBX 3 7 -1 0
BITMAP
A0
40
00
40
40
40
40
ENDCHAR
STARTCHAR U+01D1
ENCODING 465
SWIDTH 312 0
DWIDTH 5 0
BBX 4 8 0 0
BITMAP
50
20
00
60
90
90
90
60
ENDCHAR
STARTCHAR U+01D2
ENCODING 466
SWIDTH 250 0
DWIDTH 4 0
BBX 3 7 0 0
BITMAP
A0
40
00
40
A0
A0
40
ENDCHAR
STARTCHAR U+01D3
ENCODING 467
SWIDTH 312 0
DWIDTH 5 0
BBX 4 8 0 0
BITMAP
50
20
00
90
90
90
90
60
ENDCHAR
STARTCHAR U+01D4
ENCODING 468
SWIDTH 250 0
DWIDTH 4 0
BBX 3 7 0 0
BITMAP
A0
40
00
A0
A0
A0
60
ENDCHAR
STARTCHAR U+01D5
ENCODING 469
SWIDTH 312 0
DWIDTH 5 0
BBX 4 9 0 0
BITMAP
70
00
50
00
90
90
90
90
60
ENDCHAR
STARTCHAR U+01D6
ENCODING 470
SWIDTH 250 0
DWIDTH 4 0
BBX 3 8 0 0
BITMAP
E0
00
A0
00
A0
A0
A0
60
ENDCHAR
STARTCHAR U+01D7
ENCODING 471
SWIDTH 312 0
DWIDTH 5 0
BBX 4 10 0 0
BITMAP
20
40
00
50
00
90
90
90
90
60
ENDCHAR
STARTCHAR U+01D8
ENCODING 472
SWIDTH 250 0
DWIDTH 4 0
BBX 3 9 0 0
BITMAP
20
40
00
A0
00
A0
A0
A0
60
ENDCHAR
STARTCHAR U+01D9
ENCODING 473
SWIDTH 312 0
DWIDTH 5 0
BBX 4 10 0 0
BITMAP
50
20
00
50
00
90
90
90
90
60
ENDCHAR
STARTCHAR U+01DA
ENCODING 474
SWIDTH 250 0
DWIDTH 4 0
BBX 3 9 0 0
BITMAP
A0
40
00
A0
00
A0
A0
A0
60
ENDCHAR
STARTCHAR U+01DB
ENCODING 475
SWIDTH 312 0
DWIDTH 5 0
BBX 4 10 0 0
BITMAP
40
20
00
50
00
90
90
90
90
60
ENDCHAR
STARTCHAR U+01DC
ENCODING 476
SWIDTH 250 0
DWIDTH 4 0
BBX 3 9 0 0
BITMAP
80
40
00
A0
00
A0
A0
A0
60
ENDCHAR
STARTCHAR U+01DD
ENCODING 477
SWIDTH 250 0
DWIDTH 4 0
BBX 3 4 0 0
BITMAP
C0
20
E0
40
ENDCHAR
STARTCHAR U+01DE
ENCODING 478
SWIDTH 312 0
DWIDTH 5 0
BBX 4 9 0 0
BITMAP
70
00
50
00
60
90
F0
90
90
ENDCHAR
STARTCHAR U+01DF
ENCODING 479
SWIDTH 250 0
DWIDTH 4 0
BBX 3 8 0 0
BITMAP
E0
00
A0
00
60
A0
A0
60
ENDCHAR
STARTCHAR U+01E0
ENCODING 480
SWIDTH 312 0
DWIDTH 5 0
BBX 4 9 0 0
BITMAP
70
00
20
00
60
90
F0
90
90
ENDCHAR
STARTCHAR U+01E1
ENCODING 481
SWIDTH 250 0
DWIDTH 4 0
BBX 3 8 0 0
BITMAP
E0
00
40
00
60
A0
A0
60
ENDCHAR
STARTCHAR U+01E2
ENCODING 482
SWIDTH 375 0
DWIDTH 6 0
BBX 5 7 0 0
BITMAP
70
00
78
A0
F8
A0
B8
ENDCHAR
STARTCHAR U+01E3
ENCODING 483
SWIDTH 375 0
DWIDTH 6 0
BBX 5 6 0 0
BITMAP
70
00
70
B8
A0
78
ENDCHAR
STARTCHAR U+01E4
ENCODING 484
SWIDTH 375 0
DWIDTH 6 0
BBX 5 5 0 0
BITMAP
70
80
B0
98
70
ENDCHAR
STARTCHAR U+01E5
ENCODING 485
SWIDTH 312 0
DWIDTH 5 0
BBX 4 5 0 -1
BITMAP
60
A0
A0
70
C0
ENDCHAR
STARTCHAR U+01E6
ENCODING 486
SWIDTH 312 0
DWIDTH 5 0
BBX 4 8 0 0
BITMAP
50
20
00
70
80
B0
90
70
ENDCHAR
STARTCHAR U+01E7
ENCODING 487
SWIDTH 250 0
DWIDTH 4 0
BBX 3 8 0 -1
BITMAP
A0
40
00
60
A0
A0
60
C0
ENDCHAR
STARTCHAR U+01E8
ENCODING 488
SWIDTH 312 0
DWIDTH 5 0
BBX 4 8 0 0
BITMAP
A0
40
00
90
A0
C0
A0
90
ENDCHAR
STARTCHAR U+01E9
ENCODING 489
SWIDTH 250 0
DWIDTH 4 0
BBX 3 8 0 0
BITMAP
A0
40
00
80
A0
C0
A0
A0
ENDCHAR
STARTCHAR U+01EA
ENCODING 490
SWIDTH 312 0
DWIDTH 5 0
BBX 4 7 0 -2
BITMAP
60
90
90
90
60
40
20
ENDCHAR
STARTCHAR U+01EB
ENCODING 491
SWIDTH 250 0
DWIDTH 4 0
BBX 3 6 0 -2
BITMAP
40
A0
A0
40
40
20
ENDCHAR
STARTCHAR U+01EC
ENCODING 492
SWIDTH 312 0
DWIDTH 5 0
BBX 4 9 0 -2
BITMAP
70
00
60
90
90
90
60
40
20
ENDCHAR
STARTCHAR U+01ED
ENCODING 493
SWIDTH 250 0
DWIDTH 4 0
BBX 3 8 0 -2
BITMAP
E0
00
40
A0
A0
40
40
20
ENDCHAR
STARTCHAR U+01EE
ENCODING 494
SWIDTH 312 0
DWIDTH 5 0
BBX 4 8 0 0
BITMAP
50
20
00
F0
20
60
10
E0
ENDCHAR
STARTCHAR U+01EF
ENCODING 495
SWIDTH 250 0
DWIDTH 4 0
BBX 3 8 0 -1
BITMAP
A0
40
00
E0
20
40
20
C0
ENDCHAR
STARTCHAR U+01F0
ENCODING 496
SWIDTH 187 0
DWIDTH 3 0
BBX 3 8 0 -1
BITMAP
A0
40
00
40
40
40
40
80
ENDCHAR
STARTCHAR U+01F1
ENCODING 497
SWIDTH 625 0
DWIDTH 10 0
BBX 9 5 0 0
BITMAP
E780
9100
9200
9400
E780
ENDCHAR
STARTCHAR U+01F2
ENCODING 498
SWIDTH 562 0
DWIDTH 9 0
BBX 8 5 0 0
BITMAP
E0
97
92
94
E7
ENDCHAR
STARTCHAR U+01F3
ENCODING 499
SWIDTH 500 0
DWIDTH 8 0
BBX 7 5 0 0
BITMAP
20
6E
A4
A8
6E
ENDCHAR
STARTCHAR U+01F4
ENCODING 500
SWIDTH 312 0
DWIDTH 5 0
BBX 4 8 0 0
BITMAP
10
20
00
70
80
B0
90
70
ENDCHAR
STARTCHAR U+01F5
ENCODING 501
SWIDTH 250 0
DWIDTH 4 0
BBX 3 8 0 -1
BITMAP
20
40
00
60
A0
A0
60
C0
ENDCHAR
STARTCHAR U+01F8
ENCODING 504
SWIDTH 312 0
DWIDTH 5 0
BBX 4 8 0 0
BITMAP
40
20
00
90
D0
B0
90
90
ENDCHAR
STARTCHAR U+01F9
ENCODING 505
SWIDTH 250 0
DWIDTH 4 0
BBX 3 7 0 0
BITMAP
80
40
00
C0
A0
A0
A0
ENDCHAR
STARTCHAR U+01FA
ENCODING 506
SWIDTH 312 0
DWIDTH 5 0
BBX 4 12 0 0
BITMAP
20
40
00
20
50
20
00
60
90
F0
90
90
ENDCHAR
STARTCHAR U+01FB
ENCODING 507
SWIDTH 250 0
DWIDTH 4 0
BBX 3 11 0 0
BITMAP
20
40
00
40
A0
40
00
60
A0
A0
60
ENDCHAR
STARTCHAR U+01FC
ENCODING 508
SWIDTH 375 0
DWIDTH 6 0
BBX 5 8 0 0
BITMAP
10
20
00
78
A0
F8
A0
B8
ENDCHAR
STARTCHAR U+01FD
ENCODING 509
SWIDTH 375 0
DWIDTH 6 0
BBX 5 7 0 0
BITMAP
10
20
00
70
B8
A0
78
ENDCHAR
STARTCHAR U+01FE
ENCODING 510
SWIDTH 312 0
DWIDTH 5 0
BBX 4 8 0 0
BITMAP
20
40
00
60
B0
D0
90
60
ENDCHAR
STARTCHAR U+01FF
ENCODING 511
SWIDTH 250 0
DWIDTH 4 0
BBX 3 7 0 0
BITMAP
20
40
00
40
E0
A0
40
ENDCHAR
STARTCHAR U+0200
ENCODING 512
SWIDTH 312 0
DWIDTH 5 0
BBX 4 8 0 0
BITMAP
A0
50
00
60
90
F0
90
90
ENDCHAR
STARTCHAR U+0201
ENCODING 513
SWIDTH 250 0
DWIDTH 4 0
BBX 4 7 -1 0
BITMAP
A0
50
00
30
50
50
30
ENDCHAR
STARTCHAR U+0202
ENCODING 514
SWIDTH 312 0
DWIDTH 5 0
BBX 4 8 0 0
BITMAP
20
50
00
60
90
F0
90
90
ENDCHAR
STARTCHAR U+0203
ENCODING 515
SWIDTH 250 0
DWIDTH 4 0
BBX 3 7 0 0
BITMAP
40
A0
00
60
A0
A0
60
ENDCHAR
STARTCHAR U+0204
ENCODING 516
SWIDTH 312 0
DWIDTH 5 0
BBX 4 8 0 0
BITMAP
A0
50
00
F0
80
E0
80
F0
ENDCHAR
STARTCHAR U+0205
ENCODING 517
SWIDTH 250 0
DWIDTH 4 0
BBX 4 7 -1 0
BITMAP
A0
50
00
20
70
40
30
ENDCHAR
STARTCHAR U+0206
ENCODING 518
SWIDTH 312 0
DWIDTH 5 0
BBX 4 8 0 0
BITMAP
40
A0
00
F0
80
E0
80
F0
ENDCHAR
STARTCHAR U+0207
ENCODING 519
SWIDTH 250 0
DWIDTH 4 0
BBX 3 7 0 0
BITMAP
40
A0
00
40
E0
80
60
ENDCHAR
STARTCHAR U+0208
ENCODING 520
SWIDTH 125 0
DWIDTH 2 0
BBX 4 8 -2 0
BITMAP
A0
50
00
20
20
20
20
20
ENDCHAR
STARTCHAR U+0209
ENCODING 521
SWIDTH 125 0
DWIDTH 2 0
BBX 4 7 -2 0
BITMAP
A0
50
00
20
20
20
20
ENDCHAR
STARTCHAR U+020A
ENCODING 522
SWIDTH 125 0
DWIDTH 2 0
BBX 3 8 -1 0
BITMAP
40
A0
00
40
40
40
40
40
ENDCHAR
STARTCHAR U+020B
ENCODING 523
SWIDTH 125 0
DWIDTH 2 0
BBX 3 7 -1 0
BITMAP
40
A0
00
40
40
40
40
ENDCHAR
STARTCHAR U+020C
ENCODING 524
SWIDTH 312 0
DWIDTH 5 0
BBX 4 8 0 0
BITMAP
A0
50
00
60
90
90
90
60
ENDCHAR
STARTCHAR U+020D
ENCODING 525
SWIDTH 250 0
DWIDTH 4 0
BBX 4 7 -1 0
BITMAP
A0
50
00
20
50
50
20
ENDCHAR
STARTCHAR U+020E
ENCODING 526
SWIDTH 312 0
DWIDTH 5 0
BBX 4 8 0 0
BITMAP
20
50
00
60
90
90
90
60
ENDCHAR
STARTCHAR U+020F
ENCODING 527
SWIDTH 250 0
DWIDTH 4 0
BBX 3 7 0 0
BITMAP
40
A0
00
40
A0
A0
40
ENDCHAR
STARTCHAR U+0210
ENCODING 528
SWIDTH 312 0
DWIDTH 5 0
BBX 4 8 0 0
BITMAP
A0
50
00
E0
90
E0
90
90
ENDCHAR
STARTCHAR U+0211
ENCODING 529
SWIDTH 187 0
DWIDTH 3 0
BBX 4 7 -1 0
BITMAP
A0
50
00
60
40
40
40
ENDCHAR
STARTCHAR U+0212
ENCODING 530
SWIDTH 312 0
DWIDTH 5 0
BBX 4 8 0 0
BITMAP
40
A0
00
E0
90
E0
90
90
ENDCHAR
STARTCHAR U+0213
ENCODING 531
SWIDTH 187 0
DWIDTH 3 0
BBX 3 7 -1 0
BITMAP
40
A0
00
60
40
40
40
ENDCHAR
STARTCHAR U+0214
ENCODING 532
SWIDTH 312 0
DWIDTH 5 0
BBX 4 8 0 0
BITMAP
A0
50
00
90
90
90
90
60
ENDCHAR
STARTCHAR U+0215
ENCODING 533
SWIDTH 250 0
DWIDTH 4 0
BBX 4 7 -1 0
BITMAP
A0
50
00
50
50
50
30
ENDCHAR
STARTCHAR U+0216
ENCODING 534
SWIDTH 312 0
DWIDTH 5 0
BBX 4 8 0 0
BITMAP
20
50
00
90
90
90
90
60
ENDCHAR
STARTCHAR U+0217
ENCODING 535
SWIDTH 250 0
DWIDTH 4 0
BBX 3 7 0 0
BITMAP
40
A0
00
A0
A0
A0
60
ENDCHAR
STARTCHAR U+0218
ENCODING 536
SWIDTH 312 0
DWIDTH 5 0
BBX 4 8 0 -3
BITMAP
70
80
60
10
E0
00
20
20
ENDCHAR
STARTCHAR U+0219
ENCODING 537
SWIDTH 250 0
DWIDTH 4 0
BBX 3 7 0 -3
BITMAP
60
C0
20
C0
00
40
40
ENDCHAR
STARTCHAR U+021A
ENCODING 538
SWIDTH 250 0
DWIDTH 4 0
BBX 3 8 0 -3
BITMAP
E0
40
40
40
40
00
40
40
ENDCHAR
STARTCHAR U+021B
ENCODING 539
SWIDTH 187 0
DWIDTH 3 0
BBX 2 8 0 -3
BITMAP
80
C0
80
80
40
00
80
80
ENDCHAR
STARTCHAR U+021E
ENCODING 542
SWIDTH 312 0
DWIDTH 5 0
BBX 4 8 0 0
BITMAP
50
20
00
90
90
F0
90
90
ENDCHAR
STARTCHAR U+021F
ENCODING 543
SWIDTH 250 0
DWIDTH 4 0
BBX 3 8 0 0
BITMAP
A0
40
00
80
C0
A0
A0
A0
ENDCHAR
STARTCHAR U+0220
ENCODING 544
SWIDTH 312 0
DWIDTH 5 0
BBX 4 6 0 -1
BITMAP
E0
90
90
90
90
10
ENDCHAR
STARTCHAR U+0222
ENCODING 546
SWIDTH 312 0
DWIDTH 5 0
BBX 4 5 0 0
BITMAP
90
90
60
90
60
ENDCHAR
STARTCHAR U+0223
ENCODING 547
SWIDTH 250 0
DWIDTH 4 0
BBX 3 5 0 0
BITMAP
A0
A0
40
A0
40
ENDCHAR
STARTCHAR U+0226
ENCODING 550
SWIDTH 312 0
DWIDTH 5 0
BBX 4 7 0 0
BITMAP
20
00
60
90
F0
90
90
ENDCHAR
STARTCHAR U+0227
ENCODING 551
SWIDTH 250 0
DWIDTH 4 0
BBX 3 6 0 0
BITMAP
40
00
60
A0
A0
60
ENDCHAR
STARTCHAR U+0228
ENCODING 552
SWIDTH 312 0
DWIDTH 5 0
BBX 4 7 0 -2
BITMAP
F0
80
E0
80
F0
20
40
ENDCHAR
STARTCHAR U+0229
ENCODING 553
SWIDTH 250 0
DWIDTH 4 0
BBX 3 6 0 -2
BITMAP
40
E0
80
60
40
80
ENDCHAR
STARTCHAR U+022A
ENCODING 554
SWIDTH 312 0
DWIDTH 5 0
BBX 4 9 0 0
BITMAP
70
00
50
00
60
90
90
90
60
ENDCHAR
STARTCHAR U+022B
ENCODING 555
SWIDTH 250 0
DWIDTH 4 0
BBX 3 8 0 0
BITMAP
E0
00
A0
00
40
A0
A0
40
ENDCHAR
STARTCHAR U+022C
ENCODING 556
SWIDTH 312 0
DWIDTH 5 0
BBX 4 10 0 0
BITMAP
70
00
50
A0
00
60
90
90
90
60
ENDCHAR
STARTCHAR U+022D
ENCODING 557
SWIDTH 250 0
DWIDTH 4 0
BBX 4 9 0 0
BITMAP
E0
00
50
A0
00
40
A0
A0
40
ENDCHAR
STARTCHAR U+022E
ENCODING 558
SWIDTH 312 0
DWIDTH 5 0
BBX 4 7 0 0
BITMAP
20
00
60
90
90
90
60
ENDCHAR
STARTCHAR U+022F
ENCODING 559
SWIDTH 250 0
DWIDTH 4 0
BBX 3 6 0 0
BITMAP
40
00
40
A0
A0
40
ENDCHAR
STARTCHAR U+0230
ENCODING 560
SWIDTH 312 0
DWIDTH 5 0
BBX 4 9 0 0
BITMAP
70
00
20
00
60
90
90
90
60
ENDCHAR
STARTCHAR U+0231
ENCODING 561
SWIDTH 250 0
DWIDTH 4 0
BBX 3 8 0 0
BITMAP
E0
00
40
00
40
A0
A0
40
ENDCHAR
STARTCHAR U+0232
ENCODING 562
SWIDTH 375 0
DWIDTH 6 0
BBX 5 7 0 0
BITMAP
70
00
88
50
20
20
20
ENDCHAR
STARTCHAR U+0233
ENCODING 563
SWIDTH 250 0
DWIDTH 4 0
BBX 3 7 0 -1
BITMAP
E0
00
A0
A0
A0
40
80
ENDCHAR
STARTCHAR U+0237
ENCODING 567
SWIDTH 187 0
DWIDTH 3 0
BBX 2 5 0 -1
BITMAP
40
40
40
40
80
ENDCHAR
STARTCHAR U+023A
ENCODING 570
SWIDTH 312 0
DWIDTH 5 0
BBX 5 7 -1 -1
BITMAP
08
30
48
78
48
48
80
ENDCHAR
STARTCHAR U+023B
ENCODING 571
SWIDTH 312 0
DWIDTH 5 0
BBX 4 7 0 -1
BITMAP
10
60
90
80
90
60
80
ENDCHAR
STARTCHAR U+023C
ENCODING 572
SWIDTH 250 0
DWIDTH 4 0
BBX 3 6 0 -1
BITMAP
20
60
80
80
60
80
ENDCHAR
STARTCHAR U+023D
ENCODING 573
SWIDTH 375 0
DWIDTH 6 0
BBX 5 5 0 0
BITMAP
40
40
E0
40
78
ENDCHAR
STARTCHAR U+023E
ENCODING 574
SWIDTH 250 0
DWIDTH 4 0
BBX 3 7 0 -1
BITMAP
20
E0
40
40
40
40
80
ENDCHAR
STARTCHAR U+0241
ENCODING 577
SWIDTH 250 0
DWIDTH 4 0
BBX 3 5 0 0
BITMAP
C0
20
20
40
40
ENDCHAR
STARTCHAR U+0242
ENCODING 578
SWIDTH 250 0
DWIDTH 4 0
BBX 3 4 0 0
BITMAP
C0
20
40
40
ENDCHAR
STARTCHAR U+0243
ENCODING 579
SWIDTH 375 0
DWIDTH 6 0
BBX 5 5 0 0
BITMAP
70
48
70
C8
70
ENDCHAR
STARTCHAR U+0244
ENCODING 580
SWIDTH 437 0
DWIDTH 7 0
BBX 6 5 0 0
BITMAP
48
48
CC
48
30
ENDCHAR
STARTCHAR U+0245
ENCODING 581
SWIDTH 375 0
DWIDTH 6 0
BBX 5 5 0 0
BITMAP
20
20
50
50
88
ENDCHAR
STARTCHAR U+0246
ENCODING 582
SWIDTH 312 0
DWIDTH 5 0
BBX 4 7 0 -1
BITMAP
10
F0
80
E0
80
F0
80
ENDCHAR
STARTCHAR U+0247
ENCODING 583
SWIDTH 250 0
DWIDTH 4 0
BBX 3 6 0 -1
BITMAP
20
40
E0
80
60
80
ENDCHAR
STARTCHAR U+0248
ENCODING 584
SWIDTH 312 0
DWIDTH 5 0
BBX 4 5 0 0
BITMAP
20
70
20
A0
40
ENDCHAR
STARTCHAR U+0249
ENCODING 585
SWIDTH 250 0
DWIDTH 4 0
BBX 3 7 0 -1
BITMAP
40
00
40
E0
40
40
80
ENDCHAR
STARTCHAR U+024A
ENCODING 586
SWIDTH 312 0
DWIDTH 5 0
BBX 5 7 0 -2
BITMAP
70
90
90
90
70
10
08
ENDCHAR
STARTCHAR U+024B
ENCODING 587
SWIDTH 250 0
DWIDTH 4 0
BBX 4 6 0 -2
BITMAP
60
A0
A0
60
20
10
ENDCHAR
STARTCHAR U+024C
ENCODING 588
SWIDTH 375 0
DWIDTH 6 0
BBX 5 5 0 0
BITMAP
70
48
F0
48
48
ENDCHAR
STARTCHAR U+024D
ENCODING 589
SWIDTH 250 0
DWIDTH 4 0
BBX 3 4 0 0
BITMAP
60
40
E0
40
ENDCHAR
STARTCHAR U+024E
ENCODING 590
SWIDTH 375 0
DWIDTH 6 0
BBX 5 5 0 0
BITMAP
88
50
F8
20
20
ENDCHAR
STARTCHAR U+024F
ENCODING 591
SWIDTH 375 0
DWIDTH 6 0
BBX 5 5 0 -1
BITMAP
50
D8
50
20
40
ENDCHAR
STARTCHAR U+0250
ENCODING 592
SWIDTH 250 0
DWIDTH 4 0
BBX 3 4 0 0
BITMAP
C0
A0
A0
C0
ENDCHAR
STARTCHAR U+0251
ENCODING 593
SWIDTH 250 0
DWIDTH 4 0
BBX 3 4 0 0
BITMAP
60
A0
A0
60
ENDCHAR
STARTCHAR U+0253
ENCODING 595
SWIDTH 250 0
DWIDTH 4 0
BBX 3 6 0 0
BITMAP
40
80
C0
A0
A0
C0
ENDCHAR
STARTCHAR U+0254
ENCODING 596
SWIDTH 250 0
DWIDTH 4 0
BBX 3 4 0 0
BITMAP
C0
20
20
C0
ENDCHAR
STARTCHAR U+0256
ENCODING 598
SWIDTH 250 0
DWIDTH 4 0
BBX 4 7 0 -2
BITMAP
20
60
A0
A0
60
20
10
ENDCHAR
STARTCHAR U+0257
ENCODING 599
SWIDTH 250 0
DWIDTH 4 0
BBX 4 6 0 0
BITMAP
10
20
60
A0
A0
60
ENDCHAR
STARTCHAR U+0259
ENCODING 601
SWIDTH 250 0
DWIDTH 4 0
BBX 3 4 0 0
BITMAP
C0
20
E0
40
ENDCHAR
STARTCHAR U+025B
ENCODING 603
SWIDTH 250 0
DWIDTH 4 0
BBX 3 4 0 0
BITMAP
E0
40
80
60
ENDCHAR
STARTCHAR U+0260
ENCODING 608
SWIDTH 250 0
DWIDTH 4 0
BBX 4 7 0 -1
BITMAP
10
20
60
A0
A0
60
C0
ENDCHAR
STARTCHAR U+0263
ENCODING 611
SWIDTH 250 0
DWIDTH 4 0
BBX 3 5 0 -1
BITMAP
A0
A0
40
A0
40
ENDCHAR
STARTCHAR U+0264
ENCODING 612
SWIDTH 250 0
DWIDTH 4 0
BBX 3 4 0 0
BITMAP
A0
40
A0
40
ENDCHAR
STARTCHAR U+0265
ENCODING 613
SWIDTH 250 0
DWIDTH 4 0
BBX 3 5 0 -1
BITMAP
A0
A0
A0
60
20
ENDCHAR
STARTCHAR U+0266
ENCODING 614
SWIDTH 250 0
DWIDTH 4 0
BBX 3 6 0 0
BITMAP
40
80
C0
A0
A0
A0
ENDCHAR
STARTCHAR U+0268
ENCODING 616
SWIDTH 250 0
DWIDTH 4 0
BBX 3 6 0 0
BITMAP
40
00
40
E0
40
40
ENDCHAR
STARTCHAR U+0269
ENCODING 617
SWIDTH 187 0
DWIDTH 3 0
BBX 2 4 0 0
BITMAP
80
80
80
40
ENDCHAR
STARTCHAR U+026A
ENCODING 618
SWIDTH 125 0
DWIDTH 2 0
BBX 1 4 0 0
BITMAP
80
80
80
80
ENDCHAR
STARTCHAR U+026B
ENCODING 619
SWIDTH 250 0
DWIDTH 4 0
BBX 3 5 0 0
BITMAP
40
40
E0
40
40
ENDCHAR
STARTCHAR U+026C
ENCODING 620
SWIDTH 250 0
DWIDTH 4 0
BBX 3 5 0 0
BITMAP
40
C0
E0
40
40
ENDCHAR
STARTCHAR U+026F
ENCODING 623
SWIDTH 375 0
DWIDTH 6 0
BBX 5 4 0 0
BITMAP
A8
A8
A8
78
ENDCHAR
STARTCHAR U+0272
ENCODING 626
SWIDTH 250 0
DWIDTH 4 0
BBX 4 6 -1 -2
BITMAP
60
50
50
50
40
80
ENDCHAR
STARTCHAR U+0275
ENCODING 629
SWIDTH 250 0
DWIDTH 4 0
BBX 3 4 0 0
BITMAP
40
E0
A0
40
ENDCHAR
STARTCHAR U+027D
ENCODING 637
SWIDTH 187 0
DWIDTH 3 0
BBX 2 6 0 -2
BITMAP
C0
80
80
80
80
40
ENDCHAR
STARTCHAR U+027E
ENCODING 638
SWIDTH 187 0
DWIDTH 3 0
BBX 2 4 0 0
BITMAP
40
80
80
80
ENDCHAR
STARTCHAR U+0280
ENCODING 640
SWIDTH 250 0
DWIDTH 4 0
BBX 3 4 0 0
BITMAP
C0
A0
C0
A0
ENDCHAR
STARTCHAR U+0283
ENCODING 643
SWIDTH 250 0
DWIDTH 4 0
BBX 3 7 0 -2
BITMAP
20
40
40
40
40
40
80
ENDCHAR
STARTCHAR U+0288
ENCODING 648
SWIDTH 187 0
DWIDTH 3 0
BBX 2 7 0 -2
BITMAP
80
C0
80
80
80
80
40
ENDCHAR
STARTCHAR U+0289
ENCODING 649
SWIDTH 375 0
DWIDTH 6 0
BBX 5 4 0 0
BITMAP
50
D8
50
30
ENDCHAR
STARTCHAR U+028A
ENCODING 650
SWIDTH 250 0
DWIDTH 4 0
BBX 3 4 0 0
BITMAP
A0
A0
A0
40
ENDCHAR
STARTCHAR U+028B
ENCODING 651
SWIDTH 312 0
DWIDTH 5 0
BBX 4 4 0 0
BITMAP
A0
90
90
60
ENDCHAR
STARTCHAR U+028C
ENCODING 652
SWIDTH 250 0
DWIDTH 4 0
BBX 3 4 0 0
BITMAP
40
40
A0
A0
ENDCHAR
STARTCHAR U+0292
ENCODING 658
SWIDTH 250 0
DWIDTH 4 0
BBX 3 5 0 -1
BITMAP
E0
20
40
20
C0
ENDCHAR
STARTCHAR U+0294
ENCODING 660
SWIDTH 250 0
DWIDTH 4 0
BBX 3 5 0 0
BITMAP
C0
20
20
40
40
ENDCHAR
STARTCHAR U+0295
ENCODING 661
SWIDTH 250 0
DWIDTH 4 0
BBX 3 5 0 0
BITMAP
60
80
80
40
40
ENDCHAR
STARTCHAR U+0298
ENCODING 664
SWIDTH 312 0
DWIDTH 5 0
BBX 4 5 0 0
BITMAP
60
90
B0
90
60
ENDCHAR
STARTCHAR U+029D
ENCODING 669
SWIDTH 250 0
DWIDTH 4 0
BBX 3 8 0 -2
BITMAP
20
00
20
20
20
60
A0
40
ENDCHAR
STARTCHAR U+02B0
ENCODING 688
SWIDTH 250 0
DWIDTH 4 0
BBX 3 4 0 1
BITMAP
80
C0
A0
A0
ENDCHAR
STARTCHAR U+02B7
ENCODING 695
SWIDTH 375 0
DWIDTH 6 0
BBX 5 3 0 1
BITMAP
A8
A8
50
ENDCHAR
STARTCHAR U+02B8
ENCODING 696
SWIDTH 250 0
DWIDTH 4 0
BBX 3 3 0 1
BITMAP
A0
40
80
ENDCHAR
STARTCHAR U+02B9
ENCODING 697
SWIDTH 125 0
DWIDTH 2 0
BBX 1 2 0 3
BITMAP
80
80
ENDCHAR
STARTCHAR U+02BB
ENCODING 699
SWIDTH 125 0
DWIDTH 2 0
BBX 1 2 0 3
BITMAP
80
80
ENDCHAR
STARTCHAR U+02BC
ENCODING 700
SWIDTH 125 0
DWIDTH 2 0
BBX 1 2 0 3
BITMAP
80
80
ENDCHAR
STARTCHAR U+02BE
ENCODING 702
SWIDTH 187 0
DWIDTH 3 0
BBX 2 3 0 2
BITMAP
80
40
80
ENDCHAR
STARTCHAR U+02BF
ENCODING 703
SWIDTH 187 0
DWIDTH 3 0
BBX 2 3 0 2
BITMAP
40
80
40
ENDCHAR
STARTCHAR U+02C0
ENCODING 704
SWIDTH 250 0
DWIDTH 4 0
BBX 3 4 0 1
BITMAP
C0
20
40
40
ENDCHAR
STARTCHAR U+02C1
ENCODING 705
SWIDTH 250 0
DWIDTH 4 0
BBX 3 4 0 1
BITMAP
60
80
40
40
ENDCHAR
STARTCHAR U+02C6
ENCODING 710
SWIDTH 250 0
DWIDTH 4 0
BBX 3 2 0 3
BITMAP
40
A0
ENDCHAR
STARTCHAR U+02C7
ENCODING 711
SWIDTH 250 0
DWIDTH 4 0
BBX 3 2 0 3
BITMAP
A0
40
ENDCHAR
STARTCHAR U+02C8
ENCODING 712
SWIDTH 125 0
DWIDTH 2 0
BBX 1 2 0 3
BITMAP
80
80
ENDCHAR
STARTCHAR U+02C9
ENCODING 713
SWIDTH 250 0
DWIDTH 4 0
BBX 3 1 0 4
BITMAP
E0
ENDCHAR
STARTCHAR U+02CA
ENCODING 714
SWIDTH 187 0
DWIDTH 3 0
BBX 2 2 0 3
BITMAP
40
80
ENDCHAR
STARTCHAR U+02CB
ENCODING 715
SWIDTH 187 0
DWIDTH 3 0
BBX 2 2 0 3
BITMAP
80
40
ENDCHAR
STARTCHAR U+02D7
ENCODING 727
SWIDTH 250 0
DWIDTH 4 0
BBX 3 1 0 2
BITMAP
E0
ENDCHAR
STARTCHAR U+02D8
ENCODING 728
SWIDTH 250 0
DWIDTH 4 0
BBX 3 2 0 3
BITMAP
A0
40
ENDCHAR
STARTCHAR U+02D9
ENCODING 729
SWIDTH 125 0
DWIDTH 2 0
BBX 1 1 0 4
BITMAP
80
ENDCHAR
STARTCHAR U+02DA
ENCODING 730
SWIDTH 250 0
DWIDTH 4 0
BBX 3 3 0 2
BITMAP
40
A0
40
ENDCHAR
STARTCHAR U+02DB
ENCODING 731
SWIDTH 187 0
DWIDTH 3 0
BBX 2 2 0 -2
BITMAP
80
40
ENDCHAR
STARTCHAR U+02DC
ENCODING 732
SWIDTH 312 0
DWIDTH 5 0
BBX 4 2 0 3
BITMAP
50
A0
ENDCHAR
STARTCHAR U+02DD
ENCODING 733
SWIDTH 312 0
DWIDTH 5 0
BBX 4 2 0 3
BITMAP
50
A0
ENDCHAR
STARTCHAR U+02E4
ENCODING 740
SWIDTH 250 0
DWIDTH 4 0
BBX 3 3 0 1
BITMAP
60
80
40
ENDCHAR
STARTCHAR U+02ED
ENCODING 749
SWIDTH 250 0
DWIDTH 4 0
BBX 3 3 0 4
BITMAP
E0
00
E0
ENDCHAR
STARTCHAR U+02EE
ENCODING 750
SWIDTH 250 0
DWIDTH 4 0
BBX 3 2 0 3
BITMAP
A0
A0
ENDCHAR
STARTCHAR U+02F5
ENCODING 757
SWIDTH 312 0
DWIDTH 5 0
BBX 4 2 0 1
BITMAP
A0
50
ENDCHAR
STARTCHAR U+0300
ENCODING 768
SWIDTH 0 0
DWIDTH 0 0
BBX 2 2 -3 5
BITMAP
80
40
ENDCHAR
STARTCHAR U+0301
ENCODING 769
SWIDTH 0 0
DWIDTH 0 0
BBX 2 2 -3 5
BITMAP
40
80
ENDCHAR
STARTCHAR U+0302
ENCODING 770
SWIDTH 0 0
DWIDTH 0 0
BBX 3 2 -4 5
BITMAP
40
A0
ENDCHAR
STARTCHAR U+0303
ENCODING 771
SWIDTH 0 0
DWIDTH 0 0
BBX 4 2 -5 5
BITMAP
50
A0
ENDCHAR
STARTCHAR U+0304
ENCODING 772
SWIDTH 0 0
DWIDTH 0 0
BBX 3 1 -4 5
BITMAP
E0
ENDCHAR
STARTCHAR U+0306
ENCODING 774
SWIDTH 0 0
DWIDTH 0 0
BBX 3 2 -4 5
BITMAP
A0
40
ENDCHAR
STARTCHAR U+0307
ENCODING 775
SWIDTH 0 0
DWIDTH 0 0
BBX 1 1 -2 5
BITMAP
80
ENDCHAR
STARTCHAR U+0308
ENCODING 776
SWIDTH 0 0
DWIDTH 0 0
BBX 3 1 -4 5
BITMAP
A0
ENDCHAR
STARTCHAR U+0309
ENCODING 777
SWIDTH 0 0
DWIDTH 0 0
BBX 2 2 -3 5
BITMAP
C0
40
ENDCHAR
STARTCHAR U+030A
ENCODING 778
SWIDTH 0 0
DWIDTH 0 0
BBX 3 3 -4 5
BITMAP
40
A0
40
ENDCHAR
STARTCHAR U+030B
ENCODING 779
SWIDTH 0 0
DWIDTH 0 0
BBX 4 2 -5 5
BITMAP
50
A0
ENDCHAR
STARTCHAR U+030C
ENCODING 780
SWIDTH 0 0
DWIDTH 0 0
BBX 3 2 -4 5
BITMAP
A0
40
ENDCHAR
STARTCHAR U+030D
ENCODING 781
SWIDTH 0 0
DWIDTH 0 0
BBX 1 2 -2 5
BITMAP
80
80
ENDCHAR
STARTCHAR U+030F
ENCODING 783
SWIDTH 0 0
DWIDTH 0 0
BBX 4 2 -5 5
BITMAP
A0
50
ENDCHAR
STARTCHAR U+0311
ENCODING 785
SWIDTH 0 0
DWIDTH 0 0
BBX 3 2 -4 5
BITMAP
40
A0
ENDCHAR
STARTCHAR U+0313
ENCODING 787
SWIDTH 0 0
DWIDTH 0 0
BBX 1 2 -2 5
BITMAP
80
80
ENDCHAR
STARTCHAR U+0314
ENCODING 788
SWIDTH 0 0
DWIDTH 0 0
BBX 1 2 -2 5
BITMAP
80
80
ENDCHAR
STARTCHAR U+0315
ENCODING 789
SWIDTH 0 0
DWIDTH 0 0
BBX 1 2 -2 5
BITMAP
80
80
ENDCHAR
STARTCHAR U+031B
ENCODING 795
SWIDTH 0 0
DWIDTH 0 0
BBX 1 1 -1 5
BITMAP
80
ENDCHAR
STARTCHAR U+0320
ENCODING 800
SWIDTH 0 0
DWIDTH 0 0
BBX 3 1 -4 -2
BITMAP
E0
ENDCHAR
STARTCHAR U+0323
ENCODING 803
SWIDTH 0 0
DWIDTH 0 0
BBX 1 1 -2 -2
BITMAP
80
ENDCHAR
STARTCHAR U+0324
ENCODING 804
SWIDTH 0 0
DWIDTH 0 0
BBX 3 1 -4 -2
BITMAP
A0
ENDCHAR
STARTCHAR U+0325
ENCODING 805
SWIDTH 0 0
DWIDTH 0 0
BBX 3 3 -4 -4
BITMAP
40
A0
40
ENDCHAR
STARTCHAR U+0326
ENCODING 806
SWIDTH 0 0
DWIDTH 0 0
BBX 1 2 -2 -3
BITMAP
80
80
ENDCHAR
STARTCHAR U+0327
ENCODING 807
SWIDTH 0 0
DWIDTH 0 0
BBX 2 2 -3 -2
BITMAP
40
80
ENDCHAR
STARTCHAR U+0328
ENCODING 808
SWIDTH 0 0
DWIDTH 0 0
BBX 2 2 -3 -2
BITMAP
80
40
ENDCHAR
STARTCHAR U+0329
ENCODING 809
SWIDTH 0 0
DWIDTH 0 0
BBX 1 2 -2 -3
BITMAP
80
80
ENDCHAR
STARTCHAR U+032D
ENCODING 813
SWIDTH 0 0
DWIDTH 0 0
BBX 3 2 -4 -3
BITMAP
40
A0
ENDCHAR
STARTCHAR U+032E
ENCODING 814
SWIDTH 0 0
DWIDTH 0 0
BBX 3 2 -4 -3
BITMAP
A0
40
ENDCHAR
STARTCHAR U+032F
ENCODING 815
SWIDTH 0 0
DWIDTH 0 0
BBX 3 2 -4 -3
BITMAP
40
A0
ENDCHAR
STARTCHAR U+0330
ENCODING 816
SWIDTH 0 0
DWIDTH 0 0
BBX 4 2 -6 -3
BITMAP
50
A0
ENDCHAR
STARTCHAR U+0331
ENCODING 817
SWIDTH 0 0
DWIDTH 0 0
BBX 3 1 -5 -2
BITMAP
E0
ENDCHAR
STARTCHAR U+0332
ENCODING 818
SWIDTH 0 0
DWIDTH 0 0
BBX 5 1 -6 -2
BITMAP
F8
ENDCHAR
STARTCHAR U+0337
ENCODING 823
SWIDTH 0 0
DWIDTH 0 0
BBX 2 2 -1 1
BITMAP
40
80
ENDCHAR
STARTCHAR U+0338
ENCODING 824
SWIDTH 0 0
DWIDTH 0 0
BBX 2 5 -1 0
BITMAP
40
40
80
80
80
ENDCHAR
STARTCHAR U+0342
ENCODING 834
SWIDTH 0 0
DWIDTH 0 0
BBX 4 2 -5 5
BITMAP
50
A0
ENDCHAR
STARTCHAR U+0343
ENCODING 835
SWIDTH 0 0
DWIDTH 0 0
BBX 1 2 -2 5
BITMAP
80
80
ENDCHAR
STARTCHAR U+0344
ENCODING 836
SWIDTH 0 0
DWIDTH 0 0
BBX 3 4 -4 5
BITMAP
20
40
00
A0
ENDCHAR
STARTCHAR U+0345
ENCODING 837
SWIDTH 0 0
DWIDTH 0 0
BBX 1 2 -2 -3
BITMAP
80
80
ENDCHAR
STARTCHAR U+0359
ENCODING 857
SWIDTH 0 0
DWIDTH 0 0
BBX 2 2 -3 -3
BITMAP
C0
C0
ENDCHAR
STARTCHAR U+035C
ENCODING 860
SWIDTH 0 0
DWIDTH 0 0
BBX 5 2 -3 -3
BITMAP
88
70
ENDCHAR
STARTCHAR U+035F
ENCODING 863
SWIDTH 0 0
DWIDTH 0 0
BBX 5 1 -3 -2
BITMAP
F8
ENDCHAR
STARTCHAR U+0361
ENCODING 865
SWIDTH 0 0
DWIDTH 0 0
BBX 5 2 -3 5
BITMAP
70
88
ENDCHAR
STARTCHAR U+0374
ENCODING 884
SWIDTH 125 0
DWIDTH 2 0
BBX 1 2 0 3
BITMAP
80
80
ENDCHAR
STARTCHAR U+0375
ENCODING 885
SWIDTH 125 0
DWIDTH 2 0
BBX 1 2 0 -2
BITMAP
80
80
ENDCHAR
STARTCHAR U+037A
ENCODING 890
SWIDTH 125 0
DWIDTH 2 0
BBX 1 2 0 -3
BITMAP
80
80
ENDCHAR
STARTCHAR U+037E
ENCODING 894
SWIDTH 125 0
DWIDTH 2 0
BBX 1 5 0 -1
BITMAP
80
00
00
80
80
ENDCHAR
STARTCHAR U+037F
ENCODING 895
SWIDTH 250 0
DWIDTH 4 0
BBX 3 5 0 0
BITMAP
20
20
20
A0
40
ENDCHAR
STARTCHAR U+0384
ENCODING 900
SWIDTH 187 0
DWIDTH 3 0
BBX 2 2 0 5
BITMAP
40
80
ENDCHAR
STARTCHAR U+0385
ENCODING 901
SWIDTH 250 0
DWIDTH 4 0
BBX 3 4 0 5
BITMAP
20
40
00
A0
ENDCHAR
STARTCHAR U+0386
ENCODING 902
SWIDTH 437 0
DWIDTH 7 0
BBX 6 5 0 0
BITMAP
58
A4
3C
24
24
ENDCHAR
STARTCHAR U+0387
ENCODING 903
SWIDTH 125 0
DWIDTH 2 0
BBX 1 1 0 2
BITMAP
80
ENDCHAR
STARTCHAR U+0388
ENCODING 904
SWIDTH 500 0
DWIDTH 8 0
BBX 7 5 0 0
BITMAP
5E
90
1C
10
1E
ENDCHAR
STARTCHAR U+0389
ENCODING 905
SWIDTH 500 0
DWIDTH 8 0
BBX 7 5 0 0
BITMAP
52
92
1E
12
12
ENDCHAR
STARTCHAR U+038A
ENCODING 906
SWIDTH 312 0
DWIDTH 5 0
BBX 4 5 0 0
BITMAP
50
90
10
10
10
ENDCHAR
STARTCHAR U+038C
ENCODING 908
SWIDTH 437 0
DWIDTH 7 0
BBX 6 5 0 0
BITMAP
58
A4
24
24
18
ENDCHAR
STARTCHAR U+038E
ENCODING 910
SWIDTH 562 0
DWIDTH 9 0
BBX 8 5 0 0
BITMAP
51
8A
04
04
04
ENDCHAR
STARTCHAR U+038F
ENCODING 911
SWIDTH 500 0
DWIDTH 8 0
BBX 7 5 0 0
BITMAP
5C
A2
22
14
36
ENDCHAR
STARTCHAR U+0390
ENCODING 912
SWIDTH 187 0
DWIDTH 3 0
BBX 3 9 -1 0
BITMAP
20
40
00
A0
00
40
40
40
20
ENDCHAR
STARTCHAR U+0391
ENCODING 913
SWIDTH 312 0
DWIDTH 5 0
BBX 4 5 0 0
BITMAP
60
90
F0
90
90
ENDCHAR
STARTCHAR U+0392
ENCODING 914
SWIDTH 312 0
DWIDTH 5 0
BBX 4 5 0 0
BITMAP
E0
90
E0
90
E0
ENDCHAR
STARTCHAR U+0393
ENCODING 915
SWIDTH 312 0
DWIDTH 5 0
BBX 4 5 0 0
BITMAP
F0
80
80
80
80
ENDCHAR
STARTCHAR U+0394
ENCODING 916
SWIDTH 375 0
DWIDTH 6 0
BBX 5 5 0 0
BITMAP
20
20
50
50
F8
ENDCHAR
STARTCHAR U+0395
ENCODING 917
SWIDTH 312 0
DWIDTH 5 0
BBX 4 5 0 0
BITMAP
F0
80
E0
80
F0
ENDCHAR
STARTCHAR U+0396
ENCODING 918
SWIDTH 312 0
DWIDTH 5 0
BBX 4 5 0 0
BITMAP
F0
20
40
80
F0
ENDCHAR
STARTCHAR U+0397
ENCODING 919
SWIDTH 312 0
DWIDTH 5 0
BBX 4 5 0 0
BITMAP
90
90
F0
90
90
ENDCHAR
STARTCHAR U+0398
ENCODING 920
SWIDTH 312 0
DWIDTH 5 0
BBX 4 5 0 0
BITMAP
60
90
F0
90
60
ENDCHAR
STARTCHAR U+0399
ENCODING 921
SWIDTH 125 0
DWIDTH 2 0
BBX 1 5 0 0
BITMAP
80
80
80
80
80
ENDCHAR
STARTCHAR U+039A
ENCODING 922
SWIDTH 312 0
DWIDTH 5 0
BBX 4 5 0 0
BITMAP
90
A0
C0
A0
90
ENDCHAR
STARTCHAR U+039B
ENCODING 923
SWIDTH 375 0
DWIDTH 6 0
BBX 5 5 0 0
BITMAP
20
20
50
50
88
ENDCHAR
STARTCHAR U+039C
ENCODING 924
SWIDTH 375 0
DWIDTH 6 0
BBX 5 5 0 0
BITMAP
88
D8
A8
88
88
ENDCHAR
STARTCHAR U+039D
ENCODING 925
SWIDTH 312 0
DWIDTH 5 0
BBX 4 5 0 0
BITMAP
90
D0
B0
90
90
ENDCHAR
STARTCHAR U+039E
ENCODING 926
SWIDTH 312 0
DWIDTH 5 0
BBX 4 5 0 0
BITMAP
F0
00
60
00
F0
ENDCHAR
STARTCHAR U+039F
ENCODING 927
SWIDTH 312 0
DWIDTH 5 0
BBX 4 5 0 0
BITMAP
60
90
90
90
60
ENDCHAR
STARTCHAR U+03A0
ENCODING 928
SWIDTH 312 0
DWIDTH 5 0
BBX 4 5 0 0
BITMAP
F0
90
90
90
90
ENDCHAR
STARTCHAR U+03A1
ENCODING 929
SWIDTH 312 0
DWIDTH 5 0
BBX 4 5 0 0
BITMAP
E0
90
E0
80
80
ENDCHAR
STARTCHAR U+03A3
ENCODING 931
SWIDTH 312 0
DWIDTH 5 0
BBX 4 5 0 0
BITMAP
F0
40
20
40
F0
ENDCHAR
STARTCHAR U+03A4
ENCODING 932
SWIDTH 250 0
DWIDTH 4 0
BBX 3 5 0 0
BITMAP
E0
40
40
40
40
ENDCHAR
STARTCHAR U+03A5
ENCODING 933
SWIDTH 375 0
DWIDTH 6 0
BBX 5 5 0 0
BITMAP
88
50
20
20
20
ENDCHAR
STARTCHAR U+03A6
ENCODING 934
SWIDTH 375 0
DWIDTH 6 0
BBX 5 5 0 0
BITMAP
70
A8
A8
A8
70
ENDCHAR
STARTCHAR U+03A7
ENCODING 935
SWIDTH 375 0
DWIDTH 6 0
BBX 5 5 0 0
BITMAP
88
50
20
50
88
ENDCHAR
STARTCHAR U+03A8
ENCODING 936
SWIDTH 375 0
DWIDTH 6 0
BBX 5 5 0 0
BITMAP
A8
A8
70
20
20
ENDCHAR
STARTCHAR U+03A9
ENCODING 937
SWIDTH 375 0
DWIDTH 6 0
BBX 5 5 0 0
BITMAP
70
88
88
50
D8
ENDCHAR
STARTCHAR U+03AA
ENCODING 938
SWIDTH 125 0
DWIDTH 2 0
BBX 3 7 -1 0
BITMAP
A0
00
40
40
40
40
40
ENDCHAR
STARTCHAR U+03AB
ENCODING 939
SWIDTH 375 0
DWIDTH 6 0
BBX 5 7 0 0
BITMAP
50
00
88
50
20
20
20
ENDCHAR
STARTCHAR U+03AC
ENCODING 940
SWIDTH 250 0
DWIDTH 4 0
BBX 3 7 0 0
BITMAP
20
40
00
60
A0
A0
60
ENDCHAR
STARTCHAR U+03AD
ENCODING 941
SWIDTH 250 0
DWIDTH 4 0
BBX 3 7 0 0
BITMAP
20
40
00
E0
40
80
60
ENDCHAR
STARTCHAR U+03AE
ENCODING 942
SWIDTH 250 0
DWIDTH 4 0
BBX 3 8 0 -1
BITMAP
20
40
00
C0
A0
A0
A0
20
ENDCHAR
STARTCHAR U+03AF
ENCODING 943
SWIDTH 187 0
DWIDTH 3 0
BBX 2 7 0 0
BITMAP
40
80
00
80
80
80
40
ENDCHAR
STARTCHAR U+03B0
ENCODING 944
SWIDTH 250 0
DWIDTH 4 0
BBX 3 9 0 0
BITMAP
20
40
00
A0
00
A0
A0
A0
40
ENDCHAR
STARTCHAR U+03B1
ENCODING 945
SWIDTH 250 0
DWIDTH 4 0
BBX 3 4 0 0
BITMAP
60
A0
A0
60
ENDCHAR
STARTCHAR U+03B2
ENCODING 946
SWIDTH 250 0
DWIDTH 4 0
BBX 3 6 0 -1
BITMAP
40
A0
C0
A0
C0
80
ENDCHAR
STARTCHAR U+03B3
ENCODING 947
SWIDTH 250 0
DWIDTH 4 0
BBX 3 5 0 -1
BITMAP
A0
A0
40
40
40
ENDCHAR
STARTCHAR U+03B4
ENCODING 948
SWIDTH 250 0
DWIDTH 4 0
BBX 3 5 0 0
BITMAP
60
40
A0
A0
40
ENDCHAR
STARTCHAR U+03B5
ENCODING 949
SWIDTH 250 0
DWIDTH 4 0
BBX 3 4 0 0
BITMAP
E0
40
80
60
ENDCHAR
STARTCHAR U+03B6
ENCODING 950
SWIDTH 250 0
DWIDTH 4 0
BBX 3 6 0 -1
BITMAP
E0
40
80
80
60
20
ENDCHAR
STARTCHAR U+03B7
ENCODING 951
SWIDTH 250 0
DWIDTH 4 0
BBX 3 5 0 -1
BITMAP
C0
A0
A0
A0
20
ENDCHAR
STARTCHAR U+03B8
ENCODING 952
SWIDTH 250 0
DWIDTH 4 0
BBX 3 5 0 0
BITMAP
40
A0
E0
A0
40
ENDCHAR
STARTCHAR U+03B9
ENCODING 953
SWIDTH 187 0
DWIDTH 3 0
BBX 2 4 0 0
BITMAP
80
80
80
40
ENDCHAR
STARTCHAR U+03BA
ENCODING 954
SWIDTH 250 0
DWIDTH 4 0
BBX 3 4 0 0
BITMAP
A0
C0
A0
A0
ENDCHAR
STARTCHAR U+03BB
ENCODING 955
SWIDTH 250 0
DWIDTH 4 0
BBX 3 5 0 0
BITMAP
80
40
40
A0
A0
ENDCHAR
STARTCHAR U+03BC
ENCODING 956
SWIDTH 250 0
DWIDTH 4 0
BBX 3 5 0 -1
BITMAP
A0
A0
A0
E0
80
ENDCHAR
STARTCHAR U+03BD
ENCODING 957
SWIDTH 250 0
DWIDTH 4 0
BBX 3 4 0 0
BITMAP
A0
A0
40
40
ENDCHAR
STARTCHAR U+03BE
ENCODING 958
SWIDTH 250 0
DWIDTH 4 0
BBX 3 6 0 -1
BITMAP
E0
80
60
80
60
20
ENDCHAR
STARTCHAR U+03BF
ENCODING 959
SWIDTH 250 0
DWIDTH 4 0
BBX 3 4 0 0
BITMAP
40
A0
A0
40
ENDCHAR
STARTCHAR U+03C0
ENCODING 960
SWIDTH 250 0
DWIDTH 4 0
BBX 3 4 0 0
BITMAP
E0
A0
A0
A0
ENDCHAR
STARTCHAR U+03C1
ENCODING 961
SWIDTH 250 0
DWIDTH 4 0
BBX 3 5 0 -1
BITMAP
40
A0
A0
C0
80
ENDCHAR
STARTCHAR U+03C2
ENCODING 962
SWIDTH 250 0
DWIDTH 4 0
BBX 3 5 0 -1
BITMAP
60
80
80
60
20
ENDCHAR
STARTCHAR U+03C3
ENCODING 963
SWIDTH 312 0
DWIDTH 5 0
BBX 4 4 0 0
BITMAP
70
A0
A0
40
ENDCHAR
STARTCHAR U+03C4
ENCODING 964
SWIDTH 250 0
DWIDTH 4 0
BBX 3 4 0 0
BITMAP
E0
40
40
20
ENDCHAR
STARTCHAR U+03C5
ENCODING 965
SWIDTH 250 0
DWIDTH 4 0
BBX 3 4 0 0
BITMAP
A0
A0
A0
40
ENDCHAR
STARTCHAR U+03C6
ENCODING 966
SWIDTH 375 0
DWIDTH 6 0
BBX 5 6 0 -1
BITMAP
20
70
A8
A8
70
20
ENDCHAR
STARTCHAR U+03C7
ENCODING 967
SWIDTH 250 0
DWIDTH 4 0
BBX 3 5 0 -1
BITMAP
A0
A0
40
A0
A0
ENDCHAR
STARTCHAR U+03C8
ENCODING 968
SWIDTH 375 0
DWIDTH 6 0
BBX 5 6 0 -1
BITMAP
20
A8
A8
70
20
20
ENDCHAR
STARTCHAR U+03C9
ENCODING 969
SWIDTH 375 0
DWIDTH 6 0
BBX 5 4 0 0
BITMAP
88
A8
A8
50
ENDCHAR
STARTCHAR U+03CA
ENCODING 970
SWIDTH 187 0
DWIDTH 3 0
BBX 3 6 -1 0
BITMAP
A0
00
40
40
40
20
ENDCHAR
STARTCHAR U+03CB
ENCODING 971
SWIDTH 250 0
DWIDTH 4 0
BBX 3 6 0 0
BITMAP
A0
00
A0
A0
A0
40
ENDCHAR
STARTCHAR U+03CC
ENCODING 972
SWIDTH 250 0
DWIDTH 4 0
BBX 3 7 0 0
BITMAP
20
40
00
40
A0
A0
40
ENDCHAR
STARTCHAR U+03CD
ENCODING 973
SWIDTH 250 0
DWIDTH 4 0
BBX 3 7 0 0
BITMAP
20
40
00
A0
A0
A0
40
ENDCHAR
STARTCHAR U+03CE
ENCODING 974
SWIDTH 375 0
DWIDTH 6 0
BBX 5 7 0 0
BITMAP
10
20
00
88
A8
A8
50
ENDCHAR
STARTCHAR U+03CF
ENCODING 975
SWIDTH 312 0
DWIDTH 5 0
BBX 4 7 0 -2
BITMAP
90
A0
C0
A0
90
10
E0
ENDCHAR
STARTCHAR U+03D7
ENCODING 983
SWIDTH 312 0
DWIDTH 5 0
BBX 3 6 0 -2
BITMAP
A0
C0
A0
A0
20
C0
ENDCHAR
STARTCHAR U+03DA
ENCODING 986
SWIDTH 312 0
DWIDTH 5 0
BBX 4 6 0 -1
BITMAP
70
80
80
80
70
10
ENDCHAR
STARTCHAR U+03DB
ENCODING 987
SWIDTH 250 0
DWIDTH 4 0
BBX 3 5 0 -1
BITMAP
60
80
80
60
20
ENDCHAR
STARTCHAR U+03DC
ENCODING 988
SWIDTH 312 0
DWIDTH 5 0
BBX 4 5 0 0
BITMAP
F0
80
E0
A0
80
ENDCHAR
STARTCHAR U+03DD
ENCODING 989
SWIDTH 250 0
DWIDTH 4 0
BBX 3 5 0 -1
BITMAP
E0
80
E0
A0
80
ENDCHAR
STARTCHAR U+03DE
ENCODING 990
SWIDTH 312 0
DWIDTH 5 0
BBX 4 5 0 0
BITMAP
80
80
F0
10
10
ENDCHAR
STARTCHAR U+03DF
ENCODING 991
SWIDTH 250 0
DWIDTH 4 0
BBX 3 5 0 -1
BITMAP
80
80
E0
20
20
ENDCHAR
STARTCHAR U+03E0
ENCODING 992
SWIDTH 312 0
DWIDTH 5 0
BBX 4 5 0 0
BITMAP
C0
20
70
50
10
ENDCHAR
STARTCHAR U+03E1
ENCODING 993
SWIDTH 312 0
DWIDTH 5 0
BBX 4 6 0 -1
BITMAP
C0
20
70
50
10
10
ENDCHAR
STARTCHAR U+03F3
ENCODING 1011
SWIDTH 187 0
DWIDTH 3 0
BBX 2 7 0 -1
BITMAP
40
00
40
40
40
40
80
ENDCHAR
STARTCHAR U+0400
ENCODING 1024
SWIDTH 312 0
DWIDTH 5 0
BBX 4 8 0 0
BITMAP
40
20
00
F0
80
E0
80
F0
ENDCHAR
STARTCHAR U+0401
ENCODING 1025
SWIDTH 312 0
DWIDTH 5 0
BBX 4 7 0 0
BITMAP
50
00
F0
80
E0
80
F0
ENDCHAR
STARTCHAR U+0402
ENCODING 1026
SWIDTH 375 0
DWIDTH 6 0
BBX 5 5 0 0
BITMAP
E0
40
70
48
50
ENDCHAR
STARTCHAR U+0403
ENCODING 1027
SWIDTH 312 0
DWIDTH 5 0
BBX 4 8 0 0
BITMAP
20
40
00
F0
80
80
80
80
ENDCHAR
STARTCHAR U+0404
ENCODING 1028
SWIDTH 312 0
DWIDTH 5 0
BBX 4 5 0 0
BITMAP
70
80
E0
80
70
ENDCHAR
STARTCHAR U+0405
ENCODING 1029
SWIDTH 312 0
DWIDTH 5 0
BBX 4 5 0 0
BITMAP
70
80
60
10
E0
ENDCHAR
STARTCHAR U+0406
ENCODING 1030
SWIDTH 125 0
DWIDTH 2 0
BBX 1 5 0 0
BITMAP
80
80
80
80
80
ENDCHAR
STARTCHAR U+0407
ENCODING 1031
SWIDTH 125 0
DWIDTH 2 0
BBX 3 7 -1 0
BITMAP
A0
00
40
40
40
40
40
ENDCHAR
STARTCHAR U+0408
ENCODING 1032
SWIDTH 250 0
DWIDTH 4 0
BBX 3 5 0 0
BITMAP
20
20
20
A0
40
ENDCHAR
STARTCHAR U+0409
ENCODING 1033
SWIDTH 500 0
DWIDTH 8 0
BBX 7 5 0 0
BITMAP
70
50
5C
52
9C
ENDCHAR
STARTCHAR U+040A
ENCODING 1034
SWIDTH 500 0
DWIDTH 8 0
BBX 7 5 0 0
BITMAP
90
90
FC
92
9C
ENDCHAR
STARTCHAR U+040B
ENCODING 1035
SWIDTH 312 0
DWIDTH 5 0
BBX 4 5 0 0
BITMAP
E0
40
60
50
50
ENDCHAR
STARTCHAR U+040C
ENCODING 1036
SWIDTH 312 0
DWIDTH 5 0
BBX 4 8 0 0
BITMAP
20
40
00
90
A0
C0
A0
90
ENDCHAR
STARTCHAR U+040D
ENCODING 1037
SWIDTH 312 0
DWIDTH 5 0
BBX 4 8 0 0
BITMAP
40
20
00
90
B0
D0
90
90
ENDCHAR
STARTCHAR U+040E
ENCODING 1038
SWIDTH 312 0
DWIDTH 5 0
BBX 4 8 0 0
BITMAP
50
20
00
90
90
60
20
C0
ENDCHAR
STARTCHAR U+040F
ENCODING 1039
SWIDTH 312 0
DWIDTH 5 0
BBX 4 6 0 -1
BITMAP
90
90
90
90
F0
20
ENDCHAR
STARTCHAR U+0410
ENCODING 1040
SWIDTH 312 0
DWIDTH 5 0
BBX 4 5 0 0
BITMAP
60
90
F0
90
90
ENDCHAR
STARTCHAR U+0411
ENCODING 1041
SWIDTH 312 0
DWIDTH 5 0
BBX 4 5 0 0
BITMAP
F0
80
E0
90
E0
ENDCHAR
STARTCHAR U+0412
ENCODING 1042
SWIDTH 312 0
DWIDTH 5 0
BBX 4 5 0 0
BITMAP
E0
90
E0
90
E0
ENDCHAR
STARTCHAR U+0413
ENCODING 1043
SWIDTH 312 0
DWIDTH 5 0
BBX 4 5 0 0
BITMAP
F0
80
80
80
80
ENDCHAR
STARTCHAR U+0414
ENCODING 1044
SWIDTH 312 0
DWIDTH 5 0
BBX 4 6 0 -1
BITMAP
70
50
50
50
F0
90
ENDCHAR
STARTCHAR U+0415
ENCODING 1045
SWIDTH 312 0
DWIDTH 5 0
BBX 4 5 0 0
BITMAP
F0
80
E0
80
F0
ENDCHAR
STARTCHAR U+0416
ENCODING 1046
SWIDTH 500 0
DWIDTH 8 0
BBX 7 5 0 0
BITMAP
92
54
38
54
92
ENDCHAR
STARTCHAR U+0417
ENCODING 1047
SWIDTH 312 0
DWIDTH 5 0
BBX 4 5 0 0
BITMAP
E0
10
60
10
E0
ENDCHAR
STARTCHAR U+0418
ENCODING 1048
SWIDTH 312 0
DWIDTH 5 0
BBX 4 5 0 0
BITMAP
90
B0
D0
90
90
ENDCHAR
STARTCHAR U+0419
ENCODING 1049
SWIDTH 312 0
DWIDTH 5 0
BBX 4 8 0 0
BITMAP
50
20
00
90
B0
D0
90
90
ENDCHAR
STARTCHAR U+041A
ENCODING 1050
SWIDTH 312 0
DWIDTH 5 0
BBX 4 5 0 0
BITMAP
90
A0
C0
A0
90
ENDCHAR
STARTCHAR U+041B
ENCODING 1051
SWIDTH 312 0
DWIDTH 5 0
BBX 4 5 0 0
BITMAP
70
50
50
50
90
ENDCHAR
STARTCHAR U+041C
ENCODING 1052
SWIDTH 375 0
DWIDTH 6 0
BBX 5 5 0 0
BITMAP
88
D8
A8
88
88
ENDCHAR
STARTCHAR U+041D
ENCODING 1053
SWIDTH 312 0
DWIDTH 5 0
BBX 4 5 0 0
BITMAP
90
90
F0
90
90
ENDCHAR
STARTCHAR U+041E
ENCODING 1054
SWIDTH 312 0
DWIDTH 5 0
BBX 4 5 0 0
BITMAP
60
90
90
90
60
ENDCHAR
STARTCHAR U+041F
ENCODING 1055
SWIDTH 312 0
DWIDTH 5 0
BBX 4 5 0 0
BITMAP
F0
90
90
90
90
ENDCHAR
STARTCHAR U+0420
ENCODING 1056
SWIDTH 312 0
DWIDTH 5 0
BBX 4 5 0 0
BITMAP
E0
90
E0
80
80
ENDCHAR
STARTCHAR U+0421
ENCODING 1057
SWIDTH 312 0
DWIDTH 5 0
BBX 4 5 0 0
BITMAP
60
90
80
90
60
ENDCHAR
STARTCHAR U+0422
ENCODING 1058
SWIDTH 250 0
DWIDTH 4 0
BBX 3 5 0 0
BITMAP
E0
40
40
40
40
ENDCHAR
STARTCHAR U+0423
ENCODING 1059
SWIDTH 312 0
DWIDTH 5 0
BBX 4 5 0 0
BITMAP
90
90
60
20
C0
ENDCHAR
STARTCHAR U+0424
ENCODING 1060
SWIDTH 375 0
DWIDTH 6 0
BBX 5 5 0 0
BITMAP
70
A8
A8
A8
70
ENDCHAR
STARTCHAR U+0425
ENCODING 1061
SWIDTH 375 0
DWIDTH 6 0
BBX 5 5 0 0
BITMAP
88
50
20
50
88
ENDCHAR
STARTCHAR U+0426
ENCODING 1062
SWIDTH 312 0
DWIDTH 5 0
BBX 4 6 0 -1
BITMAP
90
90
90
90
F0
10
ENDCHAR
STARTCHAR U+0427
ENCODING 1063
SWIDTH 312 0
DWIDTH 5 0
BBX 4 5 0 0
BITMAP
90
90
70
10
10
ENDCHAR
STARTCHAR U+0428
ENCODING 1064
SWIDTH 375 0
DWIDTH 6 0
BBX 5 5 0 0
BITMAP
A8
A8
A8
A8
F8
ENDCHAR
STARTCHAR U+0429
ENCODING 1065
SWIDTH 375 0
DWIDTH 6 0
BBX 5 6 0 -1
BITMAP
A8
A8
A8
A8
F8
08
ENDCHAR
STARTCHAR U+042A
ENCODING 1066
SWIDTH 375 0
DWIDTH 6 0
BBX 5 5 0 0
BITMAP
C0
40
70
48
70
ENDCHAR
STARTCHAR U+042B
ENCODING 1067
SWIDTH 375 0
DWIDTH 6 0
BBX 5 5 0 0
BITMAP
88
88
E8
98
E8
ENDCHAR
STARTCHAR U+042C
ENCODING 1068
SWIDTH 312 0
DWIDTH 5 0
BBX 4 5 0 0
BITMAP
80
80
E0
90
E0
ENDCHAR
STARTCHAR U+042D
ENCODING 1069
SWIDTH 312 0
DWIDTH 5 0
BBX 4 5 0 0
BITMAP
E0
10
70
10
E0
ENDCHAR
STARTCHAR U+042E
ENCODING 1070
SWIDTH 437 0
DWIDTH 7 0
BBX 6 5 0 0
BITMAP
98
A4
E4
A4
98
ENDCHAR
STARTCHAR U+042F
ENCODING 1071
SWIDTH 312 0
DWIDTH 5 0
BBX 4 5 0 0
BITMAP
70
90
70
90
90
ENDCHAR
STARTCHAR U+0430
ENCODING 1072
SWIDTH 250 0
DWIDTH 4 0
BBX 3 4 0 0
BITMAP
60
A0
A0
60
ENDCHAR
STARTCHAR U+0431
ENCODING 1073
SWIDTH 250 0
DWIDTH 4 0
BBX 3 5 0 0
BITMAP
60
C0
A0
A0
40
ENDCHAR
STARTCHAR U+0432
ENCODING 1074
SWIDTH 250 0
DWIDTH 4 0
BBX 3 4 0 0
BITMAP
C0
E0
A0
C0
ENDCHAR
STARTCHAR U+0433
ENCODING 1075
SWIDTH 187 0
DWIDTH 3 0
BBX 2 4 0 0
BITMAP
C0
80
80
80
ENDCHAR
STARTCHAR U+0434
ENCODING 1076
SWIDTH 312 0
DWIDTH 5 0
BBX 4 5 0 -1
BITMAP
70
50
50
F0
90
ENDCHAR
STARTCHAR U+0435
ENCODING 1077
SWIDTH 250 0
DWIDTH 4 0
BBX 3 4 0 0
BITMAP
40
E0
80
60
ENDCHAR
STARTCHAR U+0436
ENCODING 1078
SWIDTH 375 0
DWIDTH 6 0
BBX 5 4 0 0
BITMAP
A8
70
A8
A8
ENDCHAR
STARTCHAR U+0437
ENCODING 1079
SWIDTH 250 0
DWIDTH 4 0
BBX 3 4 0 0
BITMAP
E0
40
20
C0
ENDCHAR
STARTCHAR U+0438
ENCODING 1080
SWIDTH 312 0
DWIDTH 5 0
BBX 4 4 0 0
BITMAP
90
B0
D0
90
ENDCHAR
STARTCHAR U+0439
ENCODING 1081
SWIDTH 312 0
DWIDTH 5 0
BBX 4 7 0 0
BITMAP
50
20
00
90
B0
D0
90
ENDCHAR
STARTCHAR U+043A
ENCODING 1082
SWIDTH 250 0
DWIDTH 4 0
BBX 3 4 0 0
BITMAP
A0
C0
A0
A0
ENDCHAR
STARTCHAR U+043B
ENCODING 1083
SWIDTH 312 0
DWIDTH 5 0
BBX 4 4 0 0
BITMAP
70
50
50
90
ENDCHAR
STARTCHAR U+043C
ENCODING 1084
SWIDTH 375 0
DWIDTH 6 0
BBX 5 4 0 0
BITMAP
88
D8
A8
88
ENDCHAR
STARTCHAR U+043D
ENCODING 1085
SWIDTH 312 0
DWIDTH 5 0
BBX 4 4 0 0
BITMAP
90
F0
90
90
ENDCHAR
STARTCHAR U+043E
ENCODING 1086
SWIDTH 250 0
DWIDTH 4 0
BBX 3 4 0 0
BITMAP
40
A0
A0
40
ENDCHAR
STARTCHAR U+043F
ENCODING 1087
SWIDTH 250 0
DWIDTH 4 0
BBX 3 4 0 0
BITMAP
E0
A0
A0
A0
ENDCHAR
STARTCHAR U+0440
ENCODING 1088
SWIDTH 250 0
DWIDTH 4 0
BBX 3 5 0 -1
BITMAP
C0
A0
A0
C0
80
ENDCHAR
STARTCHAR U+0441
ENCODING 1089
SWIDTH 250 0
DWIDTH 4 0
BBX 3 4 0 0
BITMAP
60
80
80
60
ENDCHAR
STARTCHAR U+0442
ENCODING 1090
SWIDTH 250 0
DWIDTH 4 0
BBX 3 4 0 0
BITMAP
E0
40
40
40
ENDCHAR
STARTCHAR U+0443
ENCODING 1091
SWIDTH 250 0
DWIDTH 4 0
BBX 3 5 0 -1
BITMAP
A0
A0
A0
40
80
ENDCHAR
STARTCHAR U+0444
ENCODING 1092
SWIDTH 375 0
DWIDTH 6 0
BBX 5 6 0 -1
BITMAP
20
70
A8
A8
70
20
ENDCHAR
STARTCHAR U+0445
ENCODING 1093
SWIDTH 250 0
DWIDTH 4 0
BBX 3 4 0 0
BITMAP
A0
40
A0
A0
ENDCHAR
STARTCHAR U+0446
ENCODING 1094
SWIDTH 250 0
DWIDTH 4 0
BBX 3 5 0 -1
BITMAP
A0
A0
A0
E0
20
ENDCHAR
STARTCHAR U+0447
ENCODING 1095
SWIDTH 250 0
DWIDTH 4 0
BBX 3 4 0 0
BITMAP
A0
A0
60
20
ENDCHAR
STARTCHAR U+0448
ENCODING 1096
SWIDTH 375 0
DWIDTH 6 0
BBX 5 4 0 0
BITMAP
A8
A8
A8
F8
ENDCHAR
STARTCHAR U+0449
ENCODING 1097
SWIDTH 375 0
DWIDTH 6 0
BBX 5 5 0 -1
BITMAP
A8
A8
A8
F8
08
ENDCHAR
STARTCHAR U+044A
ENCODING 1098
SWIDTH 312 0
DWIDTH 5 0
BBX 4 4 0 0
BITMAP
C0
60
50
60
ENDCHAR
STARTCHAR U+044B
ENCODING 1099
SWIDTH 312 0
DWIDTH 5 0
BBX 4 4 0 0
BITMAP
90
D0
B0
D0
ENDCHAR
STARTCHAR U+044C
ENCODING 1100
SWIDTH 250 0
DWIDTH 4 0
BBX 3 4 0 0
BITMAP
80
C0
A0
C0
ENDCHAR
STARTCHAR U+044D
ENCODING 1101
SWIDTH 250 0
DWIDTH 4 0
BBX 3 4 0 0
BITMAP
C0
60
20
C0
ENDCHAR
STARTCHAR U+044E
ENCODING 1102
SWIDTH 375 0
DWIDTH 6 0
BBX 5 4 0 0
BITMAP
90
E8
A8
90
ENDCHAR
STARTCHAR U+044F
ENCODING 1103
SWIDTH 250 0
DWIDTH 4 0
BBX 3 4 0 0
BITMAP
60
A0
60
A0
ENDCHAR
STARTCHAR U+0450
ENCODING 1104
SWIDTH 250 0
DWIDTH 4 0
BBX 3 7 0 0
BITMAP
80
40
00
40
E0
80
60
ENDCHAR
STARTCHAR U+0451
ENCODING 1105
SWIDTH 250 0
DWIDTH 4 0
BBX 3 6 0 0
BITMAP
A0
00
40
E0
80
60
ENDCHAR
STARTCHAR U+0452
ENCODING 1106
SWIDTH 312 0
DWIDTH 5 0
BBX 4 7 0 -2
BITMAP
40
E0
50
50
50
10
20
ENDCHAR
STARTCHAR U+0453
ENCODING 1107
SWIDTH 187 0
DWIDTH 3 0
BBX 2 7 0 0
BITMAP
40
80
00
C0
80
80
80
ENDCHAR
STARTCHAR U+0454
ENCODING 1108
SWIDTH 250 0
DWIDTH 4 0
BBX 3 4 0 0
BITMAP
60
C0
80
60
ENDCHAR
STARTCHAR U+0455
ENCODING 1109
SWIDTH 250 0
DWIDTH 4 0
BBX 3 4 0 0
BITMAP
60
C0
20
C0
ENDCHAR
STARTCHAR U+0456
ENCODING 1110
SWIDTH 125 0
DWIDTH 2 0
BBX 1 6 0 0
BITMAP
80
00
80
80
80
80
ENDCHAR
STARTCHAR U+0457
ENCODING 1111
SWIDTH 125 0
DWIDTH 2 0
BBX 3 6 -1 0
BITMAP
A0
00
40
40
40
40
ENDCHAR
STARTCHAR U+0458
ENCODING 1112
SWIDTH 187 0
DWIDTH 3 0
BBX 2 7 0 -1
BITMAP
40
00
40
40
40
40
80
ENDCHAR
STARTCHAR U+0459
ENCODING 1113
SWIDTH 437 0
DWIDTH 7 0
BBX 6 4 0 0
BITMAP
70
58
54
98
ENDCHAR
STARTCHAR U+045A
ENCODING 1114
SWIDTH 437 0
DWIDTH 7 0
BBX 6 4 0 0
BITMAP
90
F8
94
98
ENDCHAR
STARTCHAR U+045B
ENCODING 1115
SWIDTH 312 0
DWIDTH 5 0
BBX 4 5 0 0
BITMAP
40
E0
50
50
50
ENDCHAR
STARTCHAR U+045C
ENCODING 1116
SWIDTH 250 0
DWIDTH 4 0
BBX 3 7 0 0
BITMAP
20
40
00
A0
C0
A0
A0
ENDCHAR
STARTCHAR U+045D
ENCODING 1117
SWIDTH 312 0
DWIDTH 5 0
BBX 4 7 0 0
BITMAP
40
20
00
90
B0
D0
90
ENDCHAR
STARTCHAR U+045E
ENCODING 1118
SWIDTH 250 0
DWIDTH 4 0
BBX 3 8 0 -1
BITMAP
A0
40
00
A0
A0
A0
40
80
ENDCHAR
STARTCHAR U+045F
ENCODING 1119
SWIDTH 250 0
DWIDTH 4 0
BBX 3 5 0 -1
BITMAP
A0
A0
A0
E0
40
ENDCHAR
STARTCHAR U+0462
ENCODING 1122
SWIDTH 375 0
DWIDTH 6 0
BBX 5 5 0 0
BITMAP
40
C0
70
48
70
ENDCHAR
STARTCHAR U+0463
ENCODING 1123
SWIDTH 312 0
DWIDTH 5 0
BBX 4 4 0 0
BITMAP
40
E0
50
60
ENDCHAR
STARTCHAR U+046A
ENCODING 1130
SWIDTH 375 0
DWIDTH 6 0
BBX 5 5 0 0
BITMAP
F8
50
70
A8
A8
ENDCHAR
STARTCHAR U+046B
ENCODING 1131
SWIDTH 375 0
DWIDTH 6 0
BBX 5 4 0 0
BITMAP
F8
50
70
A8
ENDCHAR
STARTCHAR U+0472
ENCODING 1138
SWIDTH 312 0
DWIDTH 5 0
BBX 4 5 0 0
BITMAP
60
90
F0
90
60
ENDCHAR
STARTCHAR U+0473
ENCODING 1139
SWIDTH 250 0
DWIDTH 4 0
BBX 3 4 0 0
BITMAP
40
E0
A0
40
ENDCHAR
STARTCHAR U+0474
ENCODING 1140
SWIDTH 437 0
DWIDTH 7 0
BBX 6 5 0 0
BITMAP
8C
50
50
20
20
ENDCHAR
STARTCHAR U+0475
ENCODING 1141
SWIDTH 312 0
DWIDTH 5 0
BBX 4 4 0 0
BITMAP
B0
A0
40
40
ENDCHAR
STARTCHAR U+048A
ENCODING 1162
SWIDTH 312 0
DWIDTH 5 0
BBX 4 9 0 -1
BITMAP
50
20
00
90
B0
D0
90
90
10
ENDCHAR
STARTCHAR U+048B
ENCODING 1163
SWIDTH 312 0
DWIDTH 5 0
BBX 4 8 0 -1
BITMAP
50
20
00
90
B0
D0
90
10
ENDCHAR
STARTCHAR U+048C
ENCODING 1164
SWIDTH 312 0
DWIDTH 5 0
BBX 4 5 0 0
BITMAP
C0
80
E0
90
E0
ENDCHAR
STARTCHAR U+048D
ENCODING 1165
SWIDTH 250 0
DWIDTH 4 0
BBX 3 5 0 0
BITMAP
C0
80
C0
A0
C0
ENDCHAR
STARTCHAR U+048E
ENCODING 1166
SWIDTH 312 0
DWIDTH 5 0
BBX 4 5 0 0
BITMAP
E0
90
E0
90
80
ENDCHAR
STARTCHAR U+048F
ENCODING 1167
SWIDTH 250 0
DWIDTH 4 0
BBX 3 5 0 -1
BITMAP
C0
A0
A0
C0
A0
ENDCHAR
STARTCHAR U+0490
ENCODING 1168
SWIDTH 312 0
DWIDTH 5 0
BBX 4 6 0 0
BITMAP
10
F0
80
80
80
80
ENDCHAR
STARTCHAR U+0491
ENCODING 1169
SWIDTH 187 0
DWIDTH 3 0
BBX 2 5 0 0
BITMAP
40
C0
80
80
80
ENDCHAR
STARTCHAR U+0492
ENCODING 1170
SWIDTH 312 0
DWIDTH 5 0
BBX 4 5 0 0
BITMAP
F0
80
E0
80
80
ENDCHAR
STARTCHAR U+0493
ENCODING 1171
SWIDTH 187 0
DWIDTH 3 0
BBX 2 4 0 0
BITMAP
C0
80
C0
80
ENDCHAR
STARTCHAR U+0494
ENCODING 1172
SWIDTH 312 0
DWIDTH 5 0
BBX 4 7 0 -2
BITMAP
F0
80
E0
90
90
10
60
ENDCHAR
STARTCHAR U+0495
ENCODING 1173
SWIDTH 250 0
DWIDTH 4 0
BBX 3 6 0 -2
BITMAP
E0
80
C0
A0
20
C0
ENDCHAR
STARTCHAR U+0496
ENCODING 1174
SWIDTH 500 0
DWIDTH 8 0
BBX 7 6 0 -1
BITMAP
92
54
38
54
92
02
ENDCHAR
STARTCHAR U+0497
ENCODING 1175
SWIDTH 375 0
DWIDTH 6 0
BBX 5 5 0 -1
BITMAP
A8
70
A8
A8
08
ENDCHAR
STARTCHAR U+0498
ENCODING 1176
SWIDTH 312 0
DWIDTH 5 0
BBX 4 7 0 -2
BITMAP
E0
10
60
10
E0
20
40
ENDCHAR
STARTCHAR U+0499
ENCODING 1177
SWIDTH 250 0
DWIDTH 4 0
BBX 3 6 0 -2
BITMAP
E0
40
20
C0
40
80
ENDCHAR
STARTCHAR U+049A
ENCODING 1178
SWIDTH 312 0
DWIDTH 5 0
BBX 4 6 0 -1
BITMAP
90
A0
C0
A0
90
10
ENDCHAR
STARTCHAR U+049B
ENCODING 1179
SWIDTH 250 0
DWIDTH 4 0
BBX 3 5 0 -1
BITMAP
A0
C0
A0
A0
20
ENDCHAR
STARTCHAR U+049C
ENCODING 1180
SWIDTH 312 0
DWIDTH 5 0
BBX 4 5 0 0
BITMAP
90
A0
C0
E0
90
ENDCHAR
STARTCHAR U+049D
ENCODING 1181
SWIDTH 250 0
DWIDTH 4 0
BBX 3 4 0 0
BITMAP
A0
C0
E0
A0
ENDCHAR
STARTCHAR U+049E
ENCODING 1182
SWIDTH 375 0
DWIDTH 6 0
BBX 5 5 0 0
BITMAP
48
D0
60
50
48
ENDCHAR
STARTCHAR U+049F
ENCODING 1183
SWIDTH 312 0
DWIDTH 5 0
BBX 4 5 0 0
BITMAP
40
D0
60
50
50
ENDCHAR
STARTCHAR U+04A0
ENCODING 1184
SWIDTH 375 0
DWIDTH 6 0
BBX 5 5 0 0
BITMAP
C8
50
60
50
48
ENDCHAR
STARTCHAR U+04A1
ENCODING 1185
SWIDTH 312 0
DWIDTH 5 0
BBX 4 4 0 0
BITMAP
D0
60
50
50
ENDCHAR
STARTCHAR U+04A2
ENCODING 1186
SWIDTH 312 0
DWIDTH 5 0
BBX 4 6 0 -1
BITMAP
90
90
F0
90
90
10
ENDCHAR
STARTCHAR U+04A3
ENCODING 1187
SWIDTH 312 0
DWIDTH 5 0
BBX 4 5 0 -1
BITMAP
90
F0
90
90
10
ENDCHAR
STARTCHAR U+04A4
ENCODING 1188
SWIDTH 375 0
DWIDTH 6 0
BBX 5 5 0 0
BITMAP
98
90
F0
90
90
ENDCHAR
STARTCHAR U+04A5
ENCODING 1189
SWIDTH 375 0
DWIDTH 6 0
BBX 5 4 0 0
BITMAP
98
F0
90
90
ENDCHAR
STARTCHAR U+04A6
ENCODING 1190
SWIDTH 500 0
DWIDTH 8 0
BBX 7 7 0 -2
BITMAP
F0
90
9C
92
92
02
0C
ENDCHAR
STARTCHAR U+04A7
ENCODING 1191
SWIDTH 375 0
DWIDTH 6 0
BBX 5 6 0 -2
BITMAP
E0
A0
B0
A8
08
30
ENDCHAR
STARTCHAR U+04A8
ENCODING 1192
SWIDTH 437 0
DWIDTH 7 0
BBX 6 5 0 0
BITMAP
40
90
A8
98
74
ENDCHAR
STARTCHAR U+04A9
ENCODING 1193
SWIDTH 437 0
DWIDTH 7 0
BBX 6 4 0 0
BITMAP
40
90
A8
7C
ENDCHAR
STARTCHAR U+04AA
ENCODING 1194
SWIDTH 312 0
DWIDTH 5 0
BBX 4 7 0 -2
BITMAP
60
90
80
90
60
20
40
ENDCHAR
STARTCHAR U+04AB
ENCODING 1195
SWIDTH 250 0
DWIDTH 4 0
BBX 3 6 0 -2
BITMAP
60
80
80
60
40
80
ENDCHAR
STARTCHAR U+04AC
ENCODING 1196
SWIDTH 250 0
DWIDTH 4 0
BBX 3 6 0 -1
BITMAP
E0
40
40
40
40
40
ENDCHAR
STARTCHAR U+04AD
ENCODING 1197
SWIDTH 250 0
DWIDTH 4 0
BBX 3 5 0 -1
BITMAP
E0
40
40
40
40
ENDCHAR
STARTCHAR U+04AE
ENCODING 1198
SWIDTH 375 0
DWIDTH 6 0
BBX 5 5 0 0
BITMAP
88
50
20
20
20
ENDCHAR
STARTCHAR U+04AF
ENCODING 1199
SWIDTH 250 0
DWIDTH 4 0
BBX 3 5 0 -1
BITMAP
A0
A0
40
40
40
ENDCHAR
STARTCHAR U+04B0
ENCODING 1200
SWIDTH 375 0
DWIDTH 6 0
BBX 5 5 0 0
BITMAP
88
50
F8
20
20
ENDCHAR
STARTCHAR U+04B1
ENCODING 1201
SWIDTH 250 0
DWIDTH 4 0
BBX 3 5 0 -1
BITMAP
A0
A0
40
E0
40
ENDCHAR
STARTCHAR U+04B2
ENCODING 1202
SWIDTH 375 0
DWIDTH 6 0
BBX 5 6 0 -1
BITMAP
88
50
20
50
88
08
ENDCHAR
STARTCHAR U+04B3
ENCODING 1203
SWIDTH 250 0
DWIDTH 4 0
BBX 3 5 0 -1
BITMAP
A0
40
A0
A0
20
ENDCHAR
STARTCHAR U+04B4
ENCODING 1204
SWIDTH 375 0
DWIDTH 6 0
BBX 5 6 0 -1
BITMAP
C8
48
48
48
78
08
ENDCHAR
STARTCHAR U+04B5
ENCODING 1205
SWIDTH 312 0
DWIDTH 5 0
BBX 4 5 0 -1
BITMAP
D0
50
50
70
10
ENDCHAR
STARTCHAR U+04B6
ENCODING 1206
SWIDTH 312 0
DWIDTH 5 0
BBX 4 6 0 -1
BITMAP
90
90
70
10
10
10
ENDCHAR
STARTCHAR U+04B7
ENCODING 1207
SWIDTH 250 0
DWIDTH 4 0
BBX 3 5 0 -1
BITMAP
A0
A0
60
20
20
ENDCHAR
STARTCHAR U+04B8
ENCODING 1208
SWIDTH 312 0
DWIDTH 5 0
BBX 4 5 0 0
BITMAP
90
90
70
50
10
ENDCHAR
STARTCHAR U+04B9
ENCODING 1209
SWIDTH 250 0
DWIDTH 4 0
BBX 3 4 0 0
BITMAP
A0
A0
60
A0
ENDCHAR
STARTCHAR U+04BA
ENCODING 1210
SWIDTH 312 0
DWIDTH 5 0
BBX 4 5 0 0
BITMAP
80
80
E0
90
90
ENDCHAR
STARTCHAR U+04BB
ENCODING 1211
SWIDTH 250 0
DWIDTH 4 0
BBX 3 4 0 0
BITMAP
80
C0
A0
A0
ENDCHAR
STARTCHAR U+04BC
ENCODING 1212
SWIDTH 375 0
DWIDTH 6 0
BBX 5 5 0 0
BITMAP
30
C8
78
40
38
ENDCHAR
STARTCHAR U+04BD
ENCODING 1213
SWIDTH 312 0
DWIDTH 5 0
BBX 4 4 0 0
BITMAP
A0
70
40
30
ENDCHAR
STARTCHAR U+04BE
ENCODING 1214
SWIDTH 375 0
DWIDTH 6 0
BBX 5 6 0 -1
BITMAP
30
C8
78
40
38
10
ENDCHAR
STARTCHAR U+04BF
ENCODING 1215
SWIDTH 312 0
DWIDTH 5 0
BBX 4 5 0 -1
BITMAP
A0
70
40
30
20
ENDCHAR
STARTCHAR U+04C0
ENCODING 1216
SWIDTH 125 0
DWIDTH 2 0
BBX 1 5 0 0
BITMAP
80
80
80
80
80
ENDCHAR
STARTCHAR U+04C1
ENCODING 1217
SWIDTH 500 0
DWIDTH 8 0
BBX 7 8 0 0
BITMAP
28
10
00
92
54
38
54
92
ENDCHAR
STARTCHAR U+04C2
ENCODING 1218
SWIDTH 375 0
DWIDTH 6 0
BBX 5 7 0 0
BITMAP
50
20
00
A8
70
A8
A8
ENDCHAR
STARTCHAR U+04C3
ENCODING 1219
SWIDTH 312 0
DWIDTH 5 0
BBX 4 7 0 -2
BITMAP
90
A0
E0
90
90
10
60
ENDCHAR
STARTCHAR U+04C4
ENCODING 1220
SWIDTH 250 0
DWIDTH 4 0
BBX 3 6 0 -2
BITMAP
A0
C0
A0
A0
20
C0
ENDCHAR
STARTCHAR U+04C5
ENCODING 1221
SWIDTH 312 0
DWIDTH 5 0
BBX 4 6 0 -1
BITMAP
70
50
50
50
90
10
ENDCHAR
STARTCHAR U+04C6
ENCODING 1222
SWIDTH 312 0
DWIDTH 5 0
BBX 4 5 0 -1
BITMAP
70
50
50
90
10
ENDCHAR
STARTCHAR U+04C7
ENCODING 1223
SWIDTH 312 0
DWIDTH 5 0
BBX 4 7 0 -2
BITMAP
90
90
F0
90
90
10
60
ENDCHAR
STARTCHAR U+04C8
ENCODING 1224
SWIDTH 312 0
DWIDTH 5 0
BBX 4 6 0 -2
BITMAP
90
F0
90
90
10
60
ENDCHAR
STARTCHAR U+04C9
ENCODING 1225
SWIDTH 312 0
DWIDTH 5 0
BBX 4 6 0 -1
BITMAP
90
90
F0
90
90
10
ENDCHAR
STARTCHAR U+04CA
ENCODING 1226
SWIDTH 312 0
DWIDTH 5 0
BBX 4 5 0 -1
BITMAP
90
F0
90
90
10
ENDCHAR
STARTCHAR U+04CB
ENCODING 1227
SWIDTH 312 0
DWIDTH 5 0
BBX 4 6 0 -1
BITMAP
90
90
70
10
10
20
ENDCHAR
STARTCHAR U+04CC
ENCODING 1228
SWIDTH 250 0
DWIDTH 4 0
BBX 3 5 0 -1
BITMAP
A0
A0
60
20
40
ENDCHAR
STARTCHAR U+04CD
ENCODING 1229
SWIDTH 375 0
DWIDTH 6 0
BBX 5 6 0 -1
BITMAP
88
D8
A8
88
88
08
ENDCHAR
STARTCHAR U+04CE
ENCODING 1230
SWIDTH 375 0
DWIDTH 6 0
BBX 5 5 0 -1
BITMAP
88
D8
A8
88
08
ENDCHAR
STARTCHAR U+04CF
ENCODING 1231
SWIDTH 125 0
DWIDTH 2 0
BBX 1 5 0 0
BITMAP
80
80
80
80
80
ENDCHAR
STARTCHAR U+04D0
ENCODING 1232
SWIDTH 312 0
DWIDTH 5 0
BBX 4 8 0 0
BITMAP
50
20
00
60
90
F0
90
90
ENDCHAR
STARTCHAR U+04D1
ENCODING 1233
SWIDTH 250 0
DWIDTH 4 0
BBX 3 7 0 0
BITMAP
A0
40
00
60
A0
A0
60
ENDCHAR
STARTCHAR U+04D2
ENCODING 1234
SWIDTH 312 0
DWIDTH 5 0
BBX 4 7 0 0
BITMAP
50
00
60
90
F0
90
90
ENDCHAR
STARTCHAR U+04D3
ENCODING 1235
SWIDTH 250 0
DWIDTH 4 0
BBX 3 6 0 0
BITMAP
A0
00
60
A0
A0
60
ENDCHAR
STARTCHAR U+04D4
ENCODING 1236
SWIDTH 375 0
DWIDTH 6 0
BBX 5 5 0 0
BITMAP
78
A0
F8
A0
B8
ENDCHAR
STARTCHAR U+04D5
ENCODING 1237
SWIDTH 375 0
DWIDTH 6 0
BBX 5 4 0 0
BITMAP
70
B8
A0
78
ENDCHAR
STARTCHAR U+04D6
ENCODING 1238
SWIDTH 312 0
DWIDTH 5 0
BBX 4 8 0 0
BITMAP
50
20
00
F0
80
E0
80
F0
ENDCHAR
STARTCHAR U+04D7
ENCODING 1239
SWIDTH 250 0
DWIDTH 4 0
BBX 3 7 0 0
BITMAP
A0
40
00
40
E0
80
60
ENDCHAR
STARTCHAR U+04D8
ENCODING 1240
SWIDTH 312 0
DWIDTH 5 0
BBX 4 5 0 0
BITMAP
E0
10
F0
90
60
ENDCHAR
STARTCHAR U+04D9
ENCODING 1241
SWIDTH 250 0
DWIDTH 4 0
BBX 3 4 0 0
BITMAP
C0
20
E0
40
ENDCHAR
STARTCHAR U+04DA
ENCODING 1242
SWIDTH 312 0
DWIDTH 5 0
BBX 4 7 0 0
BITMAP
A0
00
E0
10
F0
90
60
ENDCHAR
STARTCHAR U+04DB
ENCODING 1243
SWIDTH 250 0
DWIDTH 4 0
BBX 3 6 0 0
BITMAP
A0
00
C0
20
E0
40
ENDCHAR
STARTCHAR U+04DC
ENCODING 1244
SWIDTH 500 0
DWIDTH 8 0
BBX 7 7 0 0
BITMAP
28
00
92
54
38
54
92
ENDCHAR
STARTCHAR U+04DD
ENCODING 1245
SWIDTH 375 0
DWIDTH 6 0
BBX 5 6 0 0
BITMAP
50
00
A8
70
A8
A8
ENDCHAR
STARTCHAR U+04DE
ENCODING 1246
SWIDTH 312 0
DWIDTH 5 0
BBX 4 7 0 0
BITMAP
A0
00
E0
10
60
10
E0
ENDCHAR
STARTCHAR U+04DF
ENCODING 1247
SWIDTH 250 0
DWIDTH 4 0
BBX 3 6 0 0
BITMAP
A0
00
E0
40
20
C0
ENDCHAR
STARTCHAR U+04E0
ENCODING 1248
SWIDTH 312 0
DWIDTH 5 0
BBX 4 5 0 0
BITMAP
F0
20
60
10
E0
ENDCHAR
STARTCHAR U+04E1
ENCODING 1249
SWIDTH 250 0
DWIDTH 4 0
BBX 3 5 0 -1
BITMAP
E0
20
40
20
C0
ENDCHAR
STARTCHAR U+04E2
ENCODING 1250
SWIDTH 312 0
DWIDTH 5 0
BBX 4 7 0 0
BITMAP
70
00
90
B0
D0
90
90
ENDCHAR
STARTCHAR U+04E3
ENCODING 1251
SWIDTH 312 0
DWIDTH 5 0
BBX 4 6 0 0
BITMAP
70
00
90
B0
D0
90
ENDCHAR
STARTCHAR U+04E4
ENCODING 1252
SWIDTH 312 0
DWIDTH 5 0
BBX 4 7 0 0
BITMAP
50
00
90
B0
D0
90
90
ENDCHAR
STARTCHAR U+04E5
ENCODING 1253
SWIDTH 312 0
DWIDTH 5 0
BBX 4 6 0 0
BITMAP
50
00
90
B0
D0
90
ENDCHAR
STARTCHAR U+04E6
ENCODING 1254
SWIDTH 312 0
DWIDTH 5 0
BBX 4 7 0 0
BITMAP
50
00
60
90
90
90
60
ENDCHAR
STARTCHAR U+04E7
ENCODING 1255
SWIDTH 250 0
DWIDTH 4 0
BBX 3 6 0 0
BITMAP
A0
00
40
A0
A0
40
ENDCHAR
STARTCHAR U+04E8
ENCODING 1256
SWIDTH 312 0
DWIDTH 5 0
BBX 4 5 0 0
BITMAP
60
90
F0
90
60
ENDCHAR
STARTCHAR U+04E9
ENCODING 1257
SWIDTH 250 0
DWIDTH 4 0
BBX 3 4 0 0
BITMAP
40
E0
A0
40
ENDCHAR
STARTCHAR U+04EA
ENCODING 1258
SWIDTH 312 0
DWIDTH 5 0
BBX 4 7 0 0
BITMAP
50
00
60
90
F0
90
60
ENDCHAR
STARTCHAR U+04EB
ENCODING 1259
SWIDTH 250 0
DWIDTH 4 0
BBX 3 6 0 0
BITMAP
A0
00
40
E0
A0
40
ENDCHAR
STARTCHAR U+04EC
ENCODING 1260
SWIDTH 312 0
DWIDTH 5 0
BBX 4 7 0 0
BITMAP
A0
00
E0
10
70
10
E0
ENDCHAR
STARTCHAR U+04ED
ENCODING 1261
SWIDTH 250 0
DWIDTH 4 0
BBX 3 6 0 0
BITMAP
A0
00
C0
60
20
C0
ENDCHAR
STARTCHAR U+04EE
ENCODING 1262
SWIDTH 312 0
DWIDTH 5 0
BBX 4 7 0 0
BITMAP
70
00
90
90
60
20
C0
ENDCHAR
STARTCHAR U+04EF
ENCODING 1263
SWIDTH 250 0
DWIDTH 4 0
BBX 3 7 0 -1
BITMAP
E0
00
A0
A0
A0
40
80
ENDCHAR
STARTCHAR U+04F0
ENCODING 1264
SWIDTH 312 0
DWIDTH 5 0
BBX 4 7 0 0
BITMAP
50
00
90
90
60
20
C0
ENDCHAR
STARTCHAR U+04F1
ENCODING 1265
SWIDTH 250 0
DWIDTH 4 0
BBX 3 7 0 -1
BITMAP
A0
00
A0
A0
A0
40
80
ENDCHAR
STARTCHAR U+04F2
ENCODING 1266
SWIDTH 312 0
DWIDTH 5 0
BBX 4 8 0 0
BITMAP
50
A0
00
90
90
60
20
C0
ENDCHAR
STARTCHAR U+04F3
ENCODING 1267
SWIDTH 250 0
DWIDTH 4 0
BBX 4 8 0 -1
BITMAP
50
A0
00
A0
A0
A0
40
80
ENDCHAR
STARTCHAR U+04F4
ENCODING 1268
SWIDTH 312 0
DWIDTH 5 0
BBX 4 7 0 0
BITMAP
50
00
90
90
70
10
10
ENDCHAR
STARTCHAR U+04F5
ENCODING 1269
SWIDTH 250 0
DWIDTH 4 0
BBX 3 6 0 0
BITMAP
A0
00
A0
A0
60
20
ENDCHAR
STARTCHAR U+04F6
ENCODING 1270
SWIDTH 312 0
DWIDTH 5 0
BBX 4 6 0 -1
BITMAP
F0
80
80
80
80
80
ENDCHAR
STARTCHAR U+04F7
ENCODING 1271
SWIDTH 187 0
DWIDTH 3 0
BBX 2 5 0 -1
BITMAP
C0
80
80
80
80
ENDCHAR
STARTCHAR U+04F8
ENCODING 1272
SWIDTH 375 0
DWIDTH 6 0
BBX 5 7 0 0
BITMAP
50
00
88
88
E8
98
E8
ENDCHAR
STARTCHAR U+04F9
ENCODING 1273
SWIDTH 312 0
DWIDTH 5 0
BBX 4 6 0 0
BITMAP
50
00
90
D0
B0
D0
ENDCHAR
STARTCHAR U+04FA
ENCODING 1274
SWIDTH 312 0
DWIDTH 5 0
BBX 4 7 0 -2
BITMAP
F0
80
E0
80
80
40
80
ENDCHAR
STARTCHAR U+04FB
ENCODING 1275
SWIDTH 187 0
DWIDTH 3 0
BBX 2 6 0 -2
BITMAP
C0
80
C0
80
40
80
ENDCHAR
STARTCHAR U+04FC
ENCODING 1276
SWIDTH 375 0
DWIDTH 6 0
BBX 5 7 0 -2
BITMAP
88
50
20
50
88
08
10
ENDCHAR
STARTCHAR U+04FD
ENCODING 1277
SWIDTH 250 0
DWIDTH 4 0
BBX 3 6 0 -2
BITMAP
A0
40
A0
A0
20
40
ENDCHAR
STARTCHAR U+04FE
ENCODING 1278
SWIDTH 375 0
DWIDTH 6 0
BBX 5 5 0 0
BITMAP
88
50
F8
50
88
ENDCHAR
STARTCHAR U+04FF
ENCODING 1279
SWIDTH 375 0
DWIDTH 6 0
BBX 5 4 0 0
BITMAP
50
20
D8
50
ENDCHAR
STARTCHAR U+0500
ENCODING 1280
SWIDTH 312 0
DWIDTH 5 0
BBX 4 5 0 0
BITMAP
10
10
70
90
70
ENDCHAR
STARTCHAR U+0501
ENCODING 1281
SWIDTH 250 0
DWIDTH 4 0
BBX 3 5 0 0
BITMAP
20
60
A0
A0
60
ENDCHAR
STARTCHAR U+0510
ENCODING 1296
SWIDTH 312 0
DWIDTH 5 0
BBX 4 5 0 0
BITMAP
70
80
60
80
70
ENDCHAR
STARTCHAR U+0511
ENCODING 1297
SWIDTH 250 0
DWIDTH 4 0
BBX 3 4 0 0
BITMAP
E0
40
80
60
ENDCHAR
STARTCHAR U+0512
ENCODING 1298
SWIDTH 312 0
DWIDTH 5 0
BBX 4 7 0 -2
BITMAP
70
50
50
50
90
10
20
ENDCHAR
STARTCHAR U+0513
ENCODING 1299
SWIDTH 312 0
DWIDTH 5 0
BBX 4 6 0 -2
BITMAP
70
50
50
90
10
20
ENDCHAR
STARTCHAR U+051A
ENCODING 1306
SWIDTH 312 0
DWIDTH 5 0
BBX 4 6 0 -1
BITMAP
60
90
90
90
60
10
ENDCHAR
STARTCHAR U+051B
ENCODING 1307
SWIDTH 250 0
DWIDTH 4 0
BBX 3 5 0 -1
BITMAP
60
A0
A0
60
20
ENDCHAR
STARTCHAR U+051C
ENCODING 1308
SWIDTH 375 0
DWIDTH 6 0
BBX 5 5 0 0
BITMAP
A8
A8
A8
50
50
ENDCHAR
STARTCHAR U+051D
ENCODING 1309
SWIDTH 375 0
DWIDTH 6 0
BBX 5 4 0 0
BITMAP
A8
A8
50
50
ENDCHAR
STARTCHAR U+0524
ENCODING 1316
SWIDTH 312 0
DWIDTH 5 0
BBX 4 6 0 -1
BITMAP
F0
90
90
90
90
10
ENDCHAR
STARTCHAR U+0525
ENCODING 1317
SWIDTH 250 0
DWIDTH 4 0
BBX 3 5 0 -1
BITMAP
E0
A0
A0
A0
20
ENDCHAR
STARTCHAR U+0526
ENCODING 1318
SWIDTH 312 0
DWIDTH 5 0
BBX 4 6 0 -1
BITMAP
80
80
E0
90
90
10
ENDCHAR
STARTCHAR U+0527
ENCODING 1319
SWIDTH 250 0
DWIDTH 4 0
BBX 3 5 0 -1
BITMAP
80
C0
A0
A0
20
ENDCHAR
STARTCHAR U+0528
ENCODING 1320
SWIDTH 312 0
DWIDTH 5 0
BBX 5 7 -1 -2
BITMAP
48
48
78
48
48
40
80
ENDCHAR
STARTCHAR U+0529
ENCODING 1321
SWIDTH 312 0
DWIDTH 5 0
BBX 5 6 -1 -2
BITMAP
48
78
48
48
40
80
ENDCHAR
STARTCHAR U+052E
ENCODING 1326
SWIDTH 312 0
DWIDTH 5 0
BBX 4 6 0 -1
BITMAP
70
50
50
50
90
10
ENDCHAR
STARTCHAR U+052F
ENCODING 1327
SWIDTH 312 0
DWIDTH 5 0
BBX 4 5 0 -1
BITMAP
70
50
50
90
10
ENDCHAR
STARTCHAR U+0E3F
ENCODING 3647
SWIDTH 312 0
DWIDTH 5 0
BBX 4 7 0 -1
BITMAP
40
E0
90
E0
90
E0
40
ENDCHAR
STARTCHAR U+1C89
ENCODING 7305
SWIDTH 375 0
DWIDTH 6 0
BBX 5 5 0 0
BITMAP
E0
40
70
48
70
ENDCHAR
STARTCHAR U+1C8A
ENCODING 7306
SWIDTH 375 0
DWIDTH 6 0
BBX 5 4 0 0
BITMAP
E0
70
48
70
ENDCHAR
STARTCHAR U+1D43
ENCODING 7491
SWIDTH 250 0
DWIDTH 4 0
BBX 3 3 0 1
BITMAP
60
A0
60
ENDCHAR
STARTCHAR U+1D49
ENCODING 7497
SWIDTH 250 0
DWIDTH 4 0
BBX 3 3 0 1
BITMAP
40
E0
60
ENDCHAR
STARTCHAR U+1D4B
ENCODING 7499
SWIDTH 250 0
DWIDTH 4 0
BBX 3 3 0 1
BITMAP
60
C0
60
ENDCHAR
STARTCHAR U+1D52
ENCODING 7506
SWIDTH 250 0
DWIDTH 4 0
BBX 3 3 0 1
BITMAP
40
A0
40
ENDCHAR
STARTCHAR U+1D53
ENCODING 7507
SWIDTH 250 0
DWIDTH 4 0
BBX 3 3 0 1
BITMAP
C0
20
C0
ENDCHAR
STARTCHAR U+1D58
ENCODING 7512
SWIDTH 250 0
DWIDTH 4 0
BBX 3 3 0 1
BITMAP
A0
A0
60
ENDCHAR
STARTCHAR U+1D7B
ENCODING 7547
SWIDTH 250 0
DWIDTH 4 0
BBX 3 4 0 0
BITMAP
40
E0
40
40
ENDCHAR
STARTCHAR U+1D7D
ENCODING 7549
SWIDTH 375 0
DWIDTH 6 0
BBX 5 5 0 -1
BITMAP
60
D8
50
60
40
ENDCHAR
STARTCHAR U+1DA4
ENCODING 7588
SWIDTH 187 0
DWIDTH 3 0
BBX 2 3 0 1
BITMAP
80
C0
80
ENDCHAR
STARTCHAR U+1DB6
ENCODING 7606
SWIDTH 250 0
DWIDTH 4 0
BBX 3 3 0 1
BITMAP
A0
E0
60
ENDCHAR
STARTCHAR U+1DBB
ENCODING 7611
SWIDTH 250 0
DWIDTH 4 0
BBX 3 3 0 1
BITMAP
E0
40
E0
ENDCHAR
STARTCHAR U+1DBF
ENCODING 7615
SWIDTH 250 0
DWIDTH 4 0
BBX 3 4 0 1
BITMAP
40
E0
A0
40
ENDCHAR
STARTCHAR U+1DC4
ENCODING 7620
SWIDTH 0 0
DWIDTH 0 0
BBX 3 2 -4 5
BITMAP
20
C0
ENDCHAR
STARTCHAR U+1DC5
ENCODING 7621
SWIDTH 0 0
DWIDTH 0 0
BBX 3 2 -4 5
BITMAP
80
60
ENDCHAR
STARTCHAR U+1DC6
ENCODING 7622
SWIDTH 0 0
DWIDTH 0 0
BBX 3 2 -4 5
BITMAP
C0
20
ENDCHAR
STARTCHAR U+1DC7
ENCODING 7623
SWIDTH 0 0
DWIDTH 0 0
BBX 3 2 -4 5
BITMAP
60
80
ENDCHAR
STARTCHAR U+1DCA
ENCODING 7626
SWIDTH 0 0
DWIDTH 0 0
BBX 2 2 -3 -3
BITMAP
C0
80
ENDCHAR
STARTCHAR U+1E00
ENCODING 7680
SWIDTH 312 0
DWIDTH 5 0
BBX 4 9 0 -4
BITMAP
60
90
F0
90
90
00
20
50
20
ENDCHAR
STARTCHAR U+1E01
ENCODING 7681
SWIDTH 250 0
DWIDTH 4 0
BBX 3 8 0 -4
BITMAP
60
A0
A0
60
00
40
A0
40
ENDCHAR
STARTCHAR U+1E02
ENCODING 7682
SWIDTH 312 0
DWIDTH 5 0
BBX 4 7 0 0
BITMAP
40
00
E0
90
E0
90
E0
ENDCHAR
STARTCHAR U+1E03
ENCODING 7683
SWIDTH 250 0
DWIDTH 4 0
BBX 3 7 0 0
BITMAP
40
00
80
C0
A0
A0
C0
ENDCHAR
STARTCHAR U+1E04
ENCODING 7684
SWIDTH 312 0
DWIDTH 5 0
BBX 4 7 0 -2
BITMAP
E0
90
E0
90
E0
00
40
ENDCHAR
STARTCHAR U+1E05
ENCODING 7685
SWIDTH 250 0
DWIDTH 4 0
BBX 3 7 0 -2
BITMAP
80
C0
A0
A0
C0
00
40
ENDCHAR
STARTCHAR U+1E06
ENCODING 7686
SWIDTH 312 0
DWIDTH 5 0
BBX 4 7 0 -2
BITMAP
E0
90
E0
90
E0
00
E0
ENDCHAR
STARTCHAR U+1E07
ENCODING 7687
SWIDTH 250 0
DWIDTH 4 0
BBX 3 7 0 -2
BITMAP
80
C0
A0
A0
C0
00
E0
ENDCHAR
STARTCHAR U+1E08
ENCODING 7688
SWIDTH 312 0
DWIDTH 5 0
BBX 4 10 0 -2
BITMAP
20
40
00
60
90
80
90
60
20
40
ENDCHAR
STARTCHAR U+1E09
ENCODING 7689
SWIDTH 250 0
DWIDTH 4 0
BBX 3 9 0 -2
BITMAP
20
40
00
60
80
80
60
40
80
ENDCHAR
STARTCHAR U+1E0A
ENCODING 7690
SWIDTH 312 0
DWIDTH 5 0
BBX 4 7 0 0
BITMAP
40
00
E0
90
90
90
E0
ENDCHAR
STARTCHAR U+1E0B
ENCODING 7691
SWIDTH 250 0
DWIDTH 4 0
BBX 3 7 0 0
BITMAP
40
00
20
60
A0
A0
60
ENDCHAR
STARTCHAR U+1E0C
ENCODING 7692
SWIDTH 312 0
DWIDTH 5 0
BBX 4 7 0 -2
BITMAP
E0
90
90
90
E0
00
40
ENDCHAR
STARTCHAR U+1E0D
ENCODING 7693
SWIDTH 250 0
DWIDTH 4 0
BBX 3 7 0 -2
BITMAP
20
60
A0
A0
60
00
40
ENDCHAR
STARTCHAR U+1E0E
ENCODING 7694
SWIDTH 312 0
DWIDTH 5 0
BBX 4 7 0 -2
BITMAP
E0
90
90
90
E0
00
E0
ENDCHAR
STARTCHAR U+1E0F
ENCODING 7695
SWIDTH 250 0
DWIDTH 4 0
BBX 3 7 0 -2
BITMAP
20
60
A0
A0
60
00
E0
ENDCHAR
STARTCHAR U+1E10
ENCODING 7696
SWIDTH 312 0
DWIDTH 5 0
BBX 4 7 0 -2
BITMAP
E0
90
90
90
E0
20
40
ENDCHAR
STARTCHAR U+1E11
ENCODING 7697
SWIDTH 250 0
DWIDTH 4 0
BBX 3 7 0 -2
BITMAP
20
60
A0
A0
60
40
80
ENDCHAR
STARTCHAR U+1E12
ENCODING 7698
SWIDTH 312 0
DWIDTH 5 0
BBX 4 8 0 -3
BITMAP
E0
90
90
90
E0
00
40
A0
ENDCHAR
STARTCHAR U+1E13
ENCODING 7699
SWIDTH 250 0
DWIDTH 4 0
BBX 3 8 0 -3
BITMAP
20
60
A0
A0
60
00
40
A0
ENDCHAR
STARTCHAR U+1E14
ENCODING 7700
SWIDTH 312 0
DWIDTH 5 0
BBX 4 10 0 0
BITMAP
40
20
00
70
00
F0
80
E0
80
F0
ENDCHAR
STARTCHAR U+1E15
ENCODING 7701
SWIDTH 250 0
DWIDTH 4 0
BBX 3 9 0 0
BITMAP
80
40
00
E0
00
40
E0
80
60
ENDCHAR
STARTCHAR U+1E16
ENCODING 7702
SWIDTH 312 0
DWIDTH 5 0
BBX 4 10 0 0
BITMAP
20
40
00
70
00
F0
80
E0
80
F0
ENDCHAR
STARTCHAR U+1E17
ENCODING 7703
SWIDTH 250 0
DWIDTH 4 0
BBX 3 9 0 0
BITMAP
20
40
00
E0
00
40
E0
80
60
ENDCHAR
STARTCHAR U+1E18
ENCODING 7704
SWIDTH 312 0
DWIDTH 5 0
BBX 4 8 0 -3
BITMAP
F0
80
E0
80
F0
00
20
50
ENDCHAR
STARTCHAR U+1E19
ENCODING 7705
SWIDTH 250 0
DWIDTH 4 0
BBX 3 7 0 -3
BITMAP
40
E0
80
60
00
40
A0
ENDCHAR
STARTCHAR U+1E1A
ENCODING 7706
SWIDTH 312 0
DWIDTH 5 0
BBX 4 8 0 -3
BITMAP
F0
80
E0
80
F0
00
50
A0
ENDCHAR
STARTCHAR U+1E1B
ENCODING 7707
SWIDTH 250 0
DWIDTH 4 0
BBX 4 7 -1 -3
BITMAP
20
70
40
30
00
50
A0
ENDCHAR
STARTCHAR U+1E1C
ENCODING 7708
SWIDTH 312 0
DWIDTH 5 0
BBX 4 10 0 -2
BITMAP
50
20
00
F0
80
E0
80
F0
20
40
ENDCHAR
STARTCHAR U+1E1D
ENCODING 7709
SWIDTH 250 0
DWIDTH 4 0
BBX 3 9 0 -2
BITMAP
A0
40
00
40
E0
80
60
40
80
ENDCHAR
STARTCHAR U+1E1E
ENCODING 7710
SWIDTH 312 0
DWIDTH 5 0
BBX 4 7 0 0
BITMAP
20
00
F0
80
E0
80
80
ENDCHAR
STARTCHAR U+1E1F
ENCODING 7711
SWIDTH 187 0
DWIDTH 3 0
BBX 2 7 0 0
BITMAP
80
00
40
80
C0
80
80
ENDCHAR
STARTCHAR U+1E20
ENCODING 7712
SWIDTH 312 0
DWIDTH 5 0
BBX 4 7 0 0
BITMAP
70
00
70
80
B0
90
70
ENDCHAR
STARTCHAR U+1E21
ENCODING 7713
SWIDTH 250 0
DWIDTH 4 0
BBX 3 7 0 -1
BITMAP
E0
00
60
A0
A0
60
C0
ENDCHAR
STARTCHAR U+1E22
ENCODING 7714
SWIDTH 312 0
DWIDTH 5 0
BBX 4 7 0 0
BITMAP
20
00
90
90
F0
90
90
ENDCHAR
STARTCHAR U+1E23
ENCODING 7715
SWIDTH 250 0
DWIDTH 4 0
BBX 3 7 0 0
BITMAP
40
00
80
C0
A0
A0
A0
ENDCHAR
STARTCHAR U+1E24
ENCODING 7716
SWIDTH 312 0
DWIDTH 5 0
BBX 4 7 0 -2
BITMAP
90
90
F0
90
90
00
20
ENDCHAR
STARTCHAR U+1E25
ENCODING 7717
SWIDTH 250 0
DWIDTH 4 0
BBX 3 7 0 -2
BITMAP
80
C0
A0
A0
A0
00
40
ENDCHAR
STARTCHAR U+1E26
ENCODING 7718
SWIDTH 312 0
DWIDTH 5 0
BBX 4 7 0 0
BITMAP
50
00
90
90
F0
90
90
ENDCHAR
STARTCHAR U+1E27
ENCODING 7719
SWIDTH 250 0
DWIDTH 4 0
BBX 3 7 0 0
BITMAP
A0
00
80
C0
A0
A0
A0
ENDCHAR
STARTCHAR U+1E28
ENCODING 7720
SWIDTH 312 0
DWIDTH 5 0
BBX 4 7 0 -2
BITMAP
90
90
F0
90
90
40
80
ENDCHAR
STARTCHAR U+1E29
ENCODING 7721
SWIDTH 250 0
DWIDTH 4 0
BBX 3 7 0 -2
BITMAP
80
C0
A0
A0
A0
40
80
ENDCHAR
STARTCHAR U+1E2A
ENCODING 7722
SWIDTH 312 0
DWIDTH 5 0
BBX 4 8 0 -3
BITMAP
90
90
F0
90
90
00
50
20
ENDCHAR
STARTCHAR U+1E2B
ENCODING 7723
SWIDTH 250 0
DWIDTH 4 0
BBX 3 8 0 -3
BITMAP
80
C0
A0
A0
A0
00
A0
40
ENDCHAR
STARTCHAR U+1E2C
ENCODING 7724
SWIDTH 125 0
DWIDTH 2 0
BBX 4 8 -2 -3
BITMAP
20
20
20
20
20
00
50
A0
ENDCHAR
STARTCHAR U+1E2D
ENCODING 7725
SWIDTH 125 0
DWIDTH 2 0
BBX 4 9 -2 -3
BITMAP
20
00
20
20
20
20
00
50
A0
ENDCHAR
STARTCHAR U+1E2E
ENCODING 7726
SWIDTH 125 0
DWIDTH 2 0
BBX 3 10 -1 0
BITMAP
20
40
00
A0
00
40
40
40
40
40
ENDCHAR
STARTCHAR U+1E2F
ENCODING 7727
SWIDTH 125 0
DWIDTH 2 0
BBX 3 9 -1 0
BITMAP
20
40
00
A0
00
40
40
40
40
ENDCHAR
STARTCHAR U+1E30
ENCODING 7728
SWIDTH 312 0
DWIDTH 5 0
BBX 4 8 0 0
BITMAP
20
40
00
90
A0
C0
A0
90
ENDCHAR
STARTCHAR U+1E31
ENCODING 7729
SWIDTH 250 0
DWIDTH 4 0
BBX 3 8 0 0
BITMAP
20
40
00
80
A0
C0
A0
A0
ENDCHAR
STARTCHAR U+1E32
ENCODING 7730
SWIDTH 312 0
DWIDTH 5 0
BBX 4 7 0 -2
BITMAP
90
A0
C0
A0
90
00
40
ENDCHAR
STARTCHAR U+1E33
ENCODING 7731
SWIDTH 250 0
DWIDTH 4 0
BBX 3 7 0 -2
BITMAP
80
A0
C0
A0
A0
00
40
ENDCHAR
STARTCHAR U+1E34
ENCODING 7732
SWIDTH 312 0
DWIDTH 5 0
BBX 4 7 0 -2
BITMAP
90
A0
C0
A0
90
00
E0
ENDCHAR
STARTCHAR U+1E35
ENCODING 7733
SWIDTH 250 0
DWIDTH 4 0
BBX 3 7 0 -2
BITMAP
80
A0
C0
A0
A0
00
E0
ENDCHAR
STARTCHAR U+1E36
ENCODING 7734
SWIDTH 312 0
DWIDTH 5 0
BBX 4 7 0 -2
BITMAP
80
80
80
80
F0
00
40
ENDCHAR
STARTCHAR U+1E37
ENCODING 7735
SWIDTH 125 0
DWIDTH 2 0
BBX 1 7 0 -2
BITMAP
80
80
80
80
80
00
80
ENDCHAR
STARTCHAR U+1E38
ENCODING 7736
SWIDTH 312 0
DWIDTH 5 0
BBX 5 9 -1 -2
BITMAP
E0
00
40
40
40
40
78
00
20
ENDCHAR
STARTCHAR U+1E39
ENCODING 7737
SWIDTH 125 0
DWIDTH 2 0
BBX 3 9 -1 -2
BITMAP
E0
00
40
40
40
40
40
00
40
ENDCHAR
STARTCHAR U+1E3A
ENCODING 7738
SWIDTH 312 0
DWIDTH 5 0
BBX 4 7 0 -2
BITMAP
80
80
80
80
F0
00
E0
ENDCHAR
STARTCHAR U+1E3B
ENCODING 7739
SWIDTH 125 0
DWIDTH 2 0
BBX 3 7 -1 -2
BITMAP
40
40
40
40
40
00
E0
ENDCHAR
STARTCHAR U+1E3C
ENCODING 7740
SWIDTH 312 0
DWIDTH 5 0
BBX 4 8 0 -3
BITMAP
80
80
80
80
F0
00
40
A0
ENDCHAR
STARTCHAR U+1E3D
ENCODING 7741
SWIDTH 125 0
DWIDTH 2 0
BBX 3 8 -1 -3
BITMAP
40
40
40
40
40
00
40
A0
ENDCHAR
STARTCHAR U+1E3E
ENCODING 7742
SWIDTH 375 0
DWIDTH 6 0
BBX 5 8 0 0
BITMAP
10
20
00
88
D8
A8
88
88
ENDCHAR
STARTCHAR U+1E3F
ENCODING 7743
SWIDTH 375 0
DWIDTH 6 0
BBX 5 7 0 0
BITMAP
10
20
00
F0
A8
A8
A8
ENDCHAR
STARTCHAR U+1E40
ENCODING 7744
SWIDTH 375 0
DWIDTH 6 0
BBX 5 7 0 0
BITMAP
20
00
88
D8
A8
88
88
ENDCHAR
STARTCHAR U+1E41
ENCODING 7745
SWIDTH 375 0
DWIDTH 6 0
BBX 5 6 0 0
BITMAP
20
00
F0
A8
A8
A8
ENDCHAR
STARTCHAR U+1E42
ENCODING 7746
SWIDTH 375 0
DWIDTH 6 0
BBX 5 7 0 -2
BITMAP
88
D8
A8
88
88
00
20
ENDCHAR
STARTCHAR U+1E43
ENCODING 7747
SWIDTH 375 0
DWIDTH 6 0
BBX 5 6 0 -2
BITMAP
F0
A8
A8
A8
00
20
ENDCHAR
STARTCHAR U+1E44
ENCODING 7748
SWIDTH 312 0
DWIDTH 5 0
BBX 4 7 0 0
BITMAP
20
00
90
D0
B0
90
90
ENDCHAR
STARTCHAR U+1E45
ENCODING 7749
SWIDTH 250 0
DWIDTH 4 0
BBX 3 6 0 0
BITMAP
40
00
C0
A0
A0
A0
ENDCHAR
STARTCHAR U+1E46
ENCODING 7750
SWIDTH 312 0
DWIDTH 5 0
BBX 4 7 0 -2
BITMAP
90
D0
B0
90
90
00
20
ENDCHAR
STARTCHAR U+1E47
ENCODING 7751
SWIDTH 250 0
DWIDTH 4 0
BBX 3 6 0 -2
BITMAP
C0
A0
A0
A0
00
40
ENDCHAR
STARTCHAR U+1E48
ENCODING 7752
SWIDTH 312 0
DWIDTH 5 0
BBX 4 7 0 -2
BITMAP
90
D0
B0
90
90
00
70
ENDCHAR
STARTCHAR U+1E49
ENCODING 7753
SWIDTH 250 0
DWIDTH 4 0
BBX 3 6 0 -2
BITMAP
C0
A0
A0
A0
00
E0
ENDCHAR
STARTCHAR U+1E4A
ENCODING 7754
SWIDTH 312 0
DWIDTH 5 0
BBX 4 8 0 -3
BITMAP
90
D0
B0
90
90
00
20
50
ENDCHAR
STARTCHAR U+1E4B
ENCODING 7755
SWIDTH 250 0
DWIDTH 4 0
BBX 3 7 0 -3
BITMAP
C0
A0
A0
A0
00
40
A0
ENDCHAR
STARTCHAR U+1E4C
ENCODING 7756
SWIDTH 312 0
DWIDTH 5 0
BBX 4 11 0 0
BITMAP
20
40
00
50
A0
00
60
90
90
90
60
ENDCHAR
STARTCHAR U+1E4D
ENCODING 7757
SWIDTH 250 0
DWIDTH 4 0
BBX 4 10 0 0
BITMAP
20
40
00
50
A0
00
40
A0
A0
40
ENDCHAR
STARTCHAR U+1E4E
ENCODING 7758
SWIDTH 312 0
DWIDTH 5 0
BBX 4 10 0 0
BITMAP
50
00
50
A0
00
60
90
90
90
60
ENDCHAR
STARTCHAR U+1E4F
ENCODING 7759
SWIDTH 250 0
DWIDTH 4 0
BBX 4 9 0 0
BITMAP
A0
00
50
A0
00
40
A0
A0
40
ENDCHAR
STARTCHAR U+1E50
ENCODING 7760
SWIDTH 312 0
DWIDTH 5 0
BBX 4 10 0 0
BITMAP
40
20
00
70
00
60
90
90
90
60
ENDCHAR
STARTCHAR U+1E51
ENCODING 7761
SWIDTH 250 0
DWIDTH 4 0
BBX 3 9 0 0
BITMAP
80
40
00
E0
00
40
A0
A0
40
ENDCHAR
STARTCHAR U+1E52
ENCODING 7762
SWIDTH 312 0
DWIDTH 5 0
BBX 4 10 0 0
BITMAP
10
20
00
70
00
60
90
90
90
60
ENDCHAR
STARTCHAR U+1E53
ENCODING 7763
SWIDTH 250 0
DWIDTH 4 0
BBX 3 9 0 0
BITMAP
20
40
00
E0
00
40
A0
A0
40
ENDCHAR
STARTCHAR U+1E54
ENCODING 7764
SWIDTH 312 0
DWIDTH 5 0
BBX 4 8 0 0
BITMAP
20
40
00
E0
90
E0
80
80
ENDCHAR
STARTCHAR U+1E55
ENCODING 7765
SWIDTH 250 0
DWIDTH 4 0
BBX 3 8 0 -1
BITMAP
20
40
00
C0
A0
A0
C0
80
ENDCHAR
STARTCHAR U+1E56
ENCODING 7766
SWIDTH 312 0
DWIDTH 5 0
BBX 4 7 0 0
BITMAP
40
00
E0
90
E0
80
80
ENDCHAR
STARTCHAR U+1E57
ENCODING 7767
SWIDTH 250 0
DWIDTH 4 0
BBX 3 7 0 -1
BITMAP
40
00
C0
A0
A0
C0
80
ENDCHAR
STARTCHAR U+1E58
ENCODING 7768
SWIDTH 312 0
DWIDTH 5 0
BBX 4 7 0 0
BITMAP
40
00
E0
90
E0
90
90
ENDCHAR
STARTCHAR U+1E59
ENCODING 7769
SWIDTH 187 0
DWIDTH 3 0
BBX 2 6 0 0
BITMAP
80
00
C0
80
80
80
ENDCHAR
STARTCHAR U+1E5A
ENCODING 7770
SWIDTH 312 0
DWIDTH 5 0
BBX 4 7 0 -2
BITMAP
E0
90
E0
90
90
00
40
ENDCHAR
STARTCHAR U+1E5B
ENCODING 7771
SWIDTH 187 0
DWIDTH 3 0
BBX 2 6 0 -2
BITMAP
C0
80
80
80
00
80
ENDCHAR
STARTCHAR U+1E5C
ENCODING 7772
SWIDTH 312 0
DWIDTH 5 0
BBX 4 9 0 -2
BITMAP
E0
00
E0
90
E0
90
90
00
40
ENDCHAR
STARTCHAR U+1E5D
ENCODING 7773
SWIDTH 187 0
DWIDTH 3 0
BBX 3 8 -1 -2
BITMAP
E0
00
60
40
40
40
00
40
ENDCHAR
STARTCHAR U+1E5E
ENCODING 7774
SWIDTH 312 0
DWIDTH 5 0
BBX 4 7 0 -2
BITMAP
E0
90
E0
90
90
00
E0
ENDCHAR
STARTCHAR U+1E5F
ENCODING 7775
SWIDTH 187 0
DWIDTH 3 0
BBX 3 6 -1 -2
BITMAP
60
40
40
40
00
E0
ENDCHAR
STARTCHAR U+1E60
ENCODING 7776
SWIDTH 312 0
DWIDTH 5 0
BBX 4 7 0 0
BITMAP
20
00
70
80
60
10
E0
ENDCHAR
STARTCHAR U+1E61
ENCODING 7777
SWIDTH 250 0
DWIDTH 4 0
BBX 3 6 0 0
BITMAP
40
00
60
C0
20
C0
ENDCHAR
STARTCHAR U+1E62
ENCODING 7778
SWIDTH 312 0
DWIDTH 5 0
BBX 4 7 0 -2
BITMAP
70
80
60
10
E0
00
20
ENDCHAR
STARTCHAR U+1E63
ENCODING 7779
SWIDTH 250 0
DWIDTH 4 0
BBX 3 6 0 -2
BITMAP
60
C0
20
C0
00
40
ENDCHAR
STARTCHAR U+1E64
ENCODING 7780
SWIDTH 312 0
DWIDTH 5 0
BBX 4 10 0 0
BITMAP
20
00
20
40
00
70
80
60
10
E0
ENDCHAR
STARTCHAR U+1E65
ENCODING 7781
SWIDTH 250 0
DWIDTH 4 0
BBX 3 9 0 0
BITMAP
40
00
20
40
00
60
C0
20
C0
ENDCHAR
STARTCHAR U+1E66
ENCODING 7782
SWIDTH 312 0
DWIDTH 5 0
BBX 4 10 0 0
BITMAP
20
00
50
20
00
70
80
60
10
E0
ENDCHAR
STARTCHAR U+1E67
ENCODING 7783
SWIDTH 250 0
DWIDTH 4 0
BBX 3 9 0 0
BITMAP
40
00
A0
40
00
60
C0
20
C0
ENDCHAR
STARTCHAR U+1E68
ENCODING 7784
SWIDTH 312 0
DWIDTH 5 0
BBX 4 9 0 -2
BITMAP
20
00
70
80
60
10
E0
00
20
ENDCHAR
STARTCHAR U+1E69
ENCODING 7785
SWIDTH 250 0
DWIDTH 4 0
BBX 3 8 0 -2
BITMAP
40
00
60
C0
20
C0
00
40
ENDCHAR
STARTCHAR U+1E6A
ENCODING 7786
SWIDTH 250 0
DWIDTH 4 0
BBX 3 7 0 0
BITMAP
40
00
E0
40
40
40
40
ENDCHAR
STARTCHAR U+1E6B
ENCODING 7787
SWIDTH 187 0
DWIDTH 3 0
BBX 2 7 0 0
BITMAP
80
00
80
C0
80
80
40
ENDCHAR
STARTCHAR U+1E6C
ENCODING 7788
SWIDTH 250 0
DWIDTH 4 0
BBX 3 7 0 -2
BITMAP
E0
40
40
40
40
00
40
ENDCHAR
STARTCHAR U+1E6D
ENCODING 7789
SWIDTH 187 0
DWIDTH 3 0
BBX 2 7 0 -2
BITMAP
80
C0
80
80
40
00
80
ENDCHAR
STARTCHAR U+1E6E
ENCODING 7790
SWIDTH 250 0
DWIDTH 4 0
BBX 3 7 0 -2
BITMAP
E0
40
40
40
40
00
E0
ENDCHAR
STARTCHAR U+1E6F
ENCODING 7791
SWIDTH 187 0
DWIDTH 3 0
BBX 3 7 -1 -2
BITMAP
40
60
40
40
20
00
E0
ENDCHAR
STARTCHAR U+1E70
ENCODING 7792
SWIDTH 250 0
DWIDTH 4 0
BBX 3 8 0 -3
BITMAP
E0
40
40
40
40
00
40
A0
ENDCHAR
STARTCHAR U+1E71
ENCODING 7793
SWIDTH 187 0
DWIDTH 3 0
BBX 3 8 -1 -3
BITMAP
40
60
40
40
20
00
40
A0
ENDCHAR
STARTCHAR U+1E72
ENCODING 7794
SWIDTH 312 0
DWIDTH 5 0
BBX 4 7 0 -2
BITMAP
90
90
90
90
60
00
50
ENDCHAR
STARTCHAR U+1E73
ENCODING 7795
SWIDTH 250 0
DWIDTH 4 0
BBX 3 6 0 -2
BITMAP
A0
A0
A0
60
00
A0
ENDCHAR
STARTCHAR U+1E74
ENCODING 7796
SWIDTH 312 0
DWIDTH 5 0
BBX 4 8 0 -3
BITMAP
90
90
90
90
60
00
50
A0
ENDCHAR
STARTCHAR U+1E75
ENCODING 7797
SWIDTH 250 0
DWIDTH 4 0
BBX 4 7 -1 -3
BITMAP
50
50
50
30
00
50
A0
ENDCHAR
STARTCHAR U+1E76
ENCODING 7798
SWIDTH 312 0
DWIDTH 5 0
BBX 4 8 0 -3
BITMAP
90
90
90
90
60
00
20
50
ENDCHAR
STARTCHAR U+1E77
ENCODING 7799
SWIDTH 250 0
DWIDTH 4 0
BBX 3 7 0 -3
BITMAP
A0
A0
A0
60
00
40
A0
ENDCHAR
STARTCHAR U+1E78
ENCODING 7800
SWIDTH 312 0
DWIDTH 5 0
BBX 4 11 0 0
BITMAP
10
20
00
50
A0
00
90
90
90
90
60
ENDCHAR
STARTCHAR U+1E79
ENCODING 7801
SWIDTH 250 0
DWIDTH 4 0
BBX 4 10 0 0
BITMAP
20
40
00
50
A0
00
A0
A0
A0
60
ENDCHAR
STARTCHAR U+1E7A
ENCODING 7802
SWIDTH 312 0
DWIDTH 5 0
BBX 4 9 0 0
BITMAP
50
00
70
00
90
90
90
90
60
ENDCHAR
STARTCHAR U+1E7B
ENCODING 7803
SWIDTH 250 0
DWIDTH 4 0
BBX 3 8 0 0
BITMAP
A0
00
E0
00
A0
A0
A0
60
ENDCHAR
STARTCHAR U+1E7C
ENCODING 7804
SWIDTH 375 0
DWIDTH 6 0
BBX 5 8 0 0
BITMAP
28
50
00
88
50
50
20
20
ENDCHAR
STARTCHAR U+1E7D
ENCODING 7805
SWIDTH 250 0
DWIDTH 4 0
BBX 4 7 0 0
BITMAP
50
A0
00
A0
A0
40
40
ENDCHAR
STARTCHAR U+1E7E
ENCODING 7806
SWIDTH 375 0
DWIDTH 6 0
BBX 5 7 0 -2
BITMAP
88
50
50
20
20
00
20
ENDCHAR
STARTCHAR U+1E7F
ENCODING 7807
SWIDTH 250 0
DWIDTH 4 0
BBX 3 6 0 -2
BITMAP
A0
A0
40
40
00
40
ENDCHAR
STARTCHAR U+1E80
ENCODING 7808
SWIDTH 375 0
DWIDTH 6 0
BBX 5 8 0 0
BITMAP
40
20
00
A8
A8
A8
50
50
ENDCHAR
STARTCHAR U+1E81
ENCODING 7809
SWIDTH 375 0
DWIDTH 6 0
BBX 5 7 0 0
BITMAP
40
20
00
A8
A8
50
50
ENDCHAR
STARTCHAR U+1E82
ENCODING 7810
SWIDTH 375 0
DWIDTH 6 0
BBX 5 8 0 0
BITMAP
10
20
00
A8
A8
A8
50
50
ENDCHAR
STARTCHAR U+1E83
ENCODING 7811
SWIDTH 375 0
DWIDTH 6 0
BBX 5 7 0 0
BITMAP
10
20
00
A8
A8
50
50
ENDCHAR
STARTCHAR U+1E84
ENCODING 7812
SWIDTH 375 0
DWIDTH 6 0
BBX 5 7 0 0
BITMAP
50
00
A8
A8
A8
50
50
ENDCHAR
STARTCHAR U+1E85
ENCODING 7813
SWIDTH 375 0
DWIDTH 6 0
BBX 5 6 0 0
BITMAP
50
00
A8
A8
50
50
ENDCHAR
STARTCHAR U+1E86
ENCODING 7814
SWIDTH 375 0
DWIDTH 6 0
BBX 5 7 0 0
BITMAP
20
00
A8
A8
A8
50
50
ENDCHAR
STARTCHAR U+1E87
ENCODING 7815
SWIDTH 375 0
DWIDTH 6 0
BBX 5 6 0 0
BITMAP
20
00
A8
A8
50
50
ENDCHAR
STARTCHAR U+1E88
ENCODING 7816
SWIDTH 375 0
DWIDTH 6 0
BBX 5 7 0 -2
BITMAP
A8
A8
A8
50
50
00
20
ENDCHAR
STARTCHAR U+1E89
ENCODING 7817
SWIDTH 375 0
DWIDTH 6 0
BBX 5 6 0 -2
BITMAP
A8
A8
50
50
00
20
ENDCHAR
STARTCHAR U+1E8A
ENCODING 7818
SWIDTH 375 0
DWIDTH 6 0
BBX 5 7 0 0
BITMAP
20
00
88
50
20
50
88
ENDCHAR
STARTCHAR U+1E8B
ENCODING 7819
SWIDTH 250 0
DWIDTH 4 0
BBX 3 6 0 0
BITMAP
40
00
A0
40
A0
A0
ENDCHAR
STARTCHAR U+1E8C
ENCODING 7820
SWIDTH 375 0
DWIDTH 6 0
BBX 5 7 0 0
BITMAP
50
00
88
50
20
50
88
ENDCHAR
STARTCHAR U+1E8D
ENCODING 7821
SWIDTH 250 0
DWIDTH 4 0
BBX 3 6 0 0
BITMAP
A0
00
A0
40
A0
A0
ENDCHAR
STARTCHAR U+1E8E
ENCODING 7822
SWIDTH 375 0
DWIDTH 6 0
BBX 5 7 0 0
BITMAP
20
00
88
50
20
20
20
ENDCHAR
STARTCHAR U+1E8F
ENCODING 7823
SWIDTH 250 0
DWIDTH 4 0
BBX 3 7 0 -1
BITMAP
40
00
A0
A0
A0
40
80
ENDCHAR
STARTCHAR U+1E90
ENCODING 7824
SWIDTH 312 0
DWIDTH 5 0
BBX 4 8 0 0
BITMAP
20
50
00
F0
20
40
80
F0
ENDCHAR
STARTCHAR U+1E91
ENCODING 7825
SWIDTH 250 0
DWIDTH 4 0
BBX 3 7 0 0
BITMAP
40
A0
00
E0
40
80
E0
ENDCHAR
STARTCHAR U+1E92
ENCODING 7826
SWIDTH 312 0
DWIDTH 5 0
BBX 4 7 0 -2
BITMAP
F0
20
40
80
F0
00
20
ENDCHAR
STARTCHAR U+1E93
ENCODING 7827
SWIDTH 250 0
DWIDTH 4 0
BBX 3 6 0 -2
BITMAP
E0
40
80
E0
00
40
ENDCHAR
STARTCHAR U+1E94
ENCODING 7828
SWIDTH 312 0
DWIDTH 5 0
BBX 4 7 0 -2
BITMAP
F0
20
40
80
F0
00
70
ENDCHAR
STARTCHAR U+1E95
ENCODING 7829
SWIDTH 250 0
DWIDTH 4 0
BBX 3 6 0 -2
BITMAP
E0
40
80
E0
00
E0
ENDCHAR
STARTCHAR U+1E96
ENCODING 7830
SWIDTH 250 0
DWIDTH 4 0
BBX 3 7 0 -2
BITMAP
80
C0
A0
A0
A0
00
E0
ENDCHAR
STARTCHAR U+1E9E
ENCODING 7838
SWIDTH 312 0
DWIDTH 5 0
BBX 4 5 0 0
BITMAP
70
90
A0
90
A0
ENDCHAR
STARTCHAR U+1EA0
ENCODING 7840
SWIDTH 312 0
DWIDTH 5 0
BBX 4 7 0 -2
BITMAP
60
90
F0
90
90
00
20
ENDCHAR
STARTCHAR U+1EA1
ENCODING 7841
SWIDTH 250 0
DWIDTH 4 0
BBX 3 6 0 -2
BITMAP
60
A0
A0
60
00
40
ENDCHAR
STARTCHAR U+1EA2
ENCODING 7842
SWIDTH 312 0
DWIDTH 5 0
BBX 4 8 0 0
BITMAP
60
20
00
60
90
F0
90
90
ENDCHAR
STARTCHAR U+1EA3
ENCODING 7843
SWIDTH 250 0
DWIDTH 4 0
BBX 3 7 0 0
BITMAP
C0
40
00
60
A0
A0
60
ENDCHAR
STARTCHAR U+1EA4
ENCODING 7844
SWIDTH 312 0
DWIDTH 5 0
BBX 4 11 0 0
BITMAP
10
20
00
20
50
00
60
90
F0
90
90
ENDCHAR
STARTCHAR U+1EA5
ENCODING 7845
SWIDTH 250 0
DWIDTH 4 0
BBX 3 10 0 0
BITMAP
20
40
00
40
A0
00
60
A0
A0
60
ENDCHAR
STARTCHAR U+1EA6
ENCODING 7846
SWIDTH 312 0
DWIDTH 5 0
BBX 4 11 0 0
BITMAP
40
20
00
20
50
00
60
90
F0
90
90
ENDCHAR
STARTCHAR U+1EA7
ENCODING 7847
SWIDTH 250 0
DWIDTH 4 0
BBX 3 10 0 0
BITMAP
80
40
00
40
A0
00
60
A0
A0
60
ENDCHAR
STARTCHAR U+1EA8
ENCODING 7848
SWIDTH 312 0
DWIDTH 5 0
BBX 4 11 0 0
BITMAP
60
20
00
20
50
00
60
90
F0
90
90
ENDCHAR
STARTCHAR U+1EA9
ENCODING 7849
SWIDTH 250 0
DWIDTH 4 0
BBX 3 10 0 0
BITMAP
C0
40
00
40
A0
00
60
A0
A0
60
ENDCHAR
STARTCHAR U+1EAA
ENCODING 7850
SWIDTH 312 0
DWIDTH 5 0
BBX 5 11 0 0
BITMAP
28
50
00
20
50
00
60
90
F0
90
90
ENDCHAR
STARTCHAR U+1EAB
ENCODING 7851
SWIDTH 250 0
DWIDTH 4 0
BBX 4 10 0 0
BITMAP
50
A0
00
40
A0
00
60
A0
A0
60
ENDCHAR
STARTCHAR U+1EAC
ENCODING 7852
SWIDTH 312 0
DWIDTH 5 0
BBX 4 10 0 -2
BITMAP
20
50
00
60
90
F0
90
90
00
20
ENDCHAR
STARTCHAR U+1EAD
ENCODING 7853
SWIDTH 250 0
DWIDTH 4 0
BBX 3 9 0 -2
BITMAP
40
A0
00
60
A0
A0
60
00
40
ENDCHAR
STARTCHAR U+1EAE
ENCODING 7854
SWIDTH 312 0
DWIDTH 5 0
BBX 4 11 0 0
BITMAP
10
20
00
50
20
00
60
90
F0
90
90
ENDCHAR
STARTCHAR U+1EAF
ENCODING 7855
SWIDTH 250 0
DWIDTH 4 0
BBX 3 10 0 0
BITMAP
20
40
00
A0
40
00
60
A0
A0
60
ENDCHAR
STARTCHAR U+1EB0
ENCODING 7856
SWIDTH 312 0
DWIDTH 5 0
BBX 4 11 0 0
BITMAP
40
20
00
50
20
00
60
90
F0
90
90
ENDCHAR
STARTCHAR U+1EB1
ENCODING 7857
SWIDTH 250 0
DWIDTH 4 0
BBX 3 10 0 0
BITMAP
80
40
00
A0
40
00
60
A0
A0
60
ENDCHAR
STARTCHAR U+1EB2
ENCODING 7858
SWIDTH 312 0
DWIDTH 5 0
BBX 4 11 0 0
BITMAP
60
20
00
50
20
00
60
90
F0
90
90
ENDCHAR
STARTCHAR U+1EB3
ENCODING 7859
SWIDTH 250 0
DWIDTH 4 0
BBX 3 10 0 0
BITMAP
C0
40
00
A0
40
00
60
A0
A0
60
ENDCHAR
STARTCHAR U+1EB4
ENCODING 7860
SWIDTH 312 0
DWIDTH 5 0
BBX 4 11 0 0
BITMAP
50
A0
00
50
20
00
60
90
F0
90
90
ENDCHAR
STARTCHAR U+1EB5
ENCODING 7861
SWIDTH 250 0
DWIDTH 4 0
BBX 4 10 0 0
BITMAP
50
A0
00
A0
40
00
60
A0
A0
60
ENDCHAR
STARTCHAR U+1EB6
ENCODING 7862
SWIDTH 312 0
DWIDTH 5 0
BBX 4 10 0 -2
BITMAP
50
20
00
60
90
F0
90
90
00
20
ENDCHAR
STARTCHAR U+1EB7
ENCODING 7863
SWIDTH 250 0
DWIDTH 4 0
BBX 3 9 0 -2
BITMAP
A0
40
00
60
A0
A0
60
00
40
ENDCHAR
STARTCHAR U+1EB8
ENCODING 7864
SWIDTH 312 0
DWIDTH 5 0
BBX 4 7 0 -2
BITMAP
F0
80
E0
80
F0
00
20
ENDCHAR
STARTCHAR U+1EB9
ENCODING 7865
SWIDTH 250 0
DWIDTH 4 0
BBX 3 6 0 -2
BITMAP
40
E0
80
60
00
40
ENDCHAR
STARTCHAR U+1EBA
ENCODING 7866
SWIDTH 312 0
DWIDTH 5 0
BBX 4 8 0 0
BITMAP
60
20
00
F0
80
E0
80
F0
ENDCHAR
STARTCHAR U+1EBB
ENCODING 7867
SWIDTH 250 0
DWIDTH 4 0
BBX 3 7 0 0
BITMAP
C0
40
00
40
E0
80
60
ENDCHAR
STARTCHAR U+1EBC
ENCODING 7868
SWIDTH 312 0
DWIDTH 5 0
BBX 4 8 0 0
BITMAP
50
A0
00
F0
80
E0
80
F0
ENDCHAR
STARTCHAR U+1EBD
ENCODING 7869
SWIDTH 250 0
DWIDTH 4 0
BBX 4 7 0 0
BITMAP
50
A0
00
40
E0
80
60
ENDCHAR
STARTCHAR U+1EBE
ENCODING 7870
SWIDTH 312 0
DWIDTH 5 0
BBX 4 11 0 0
BITMAP
20
40
00
20
50
00
F0
80
E0
80
F0
ENDCHAR
STARTCHAR U+1EBF
ENCODING 7871
SWIDTH 250 0
DWIDTH 4 0
BBX 3 10 0 0
BITMAP
20
40
00
40
A0
00
40
E0
80
60
ENDCHAR
STARTCHAR U+1EC0
ENCODING 7872
SWIDTH 312 0
DWIDTH 5 0
BBX 4 11 0 0
BITMAP
40
20
00
20
50
00
F0
80
E0
80
F0
ENDCHAR
STARTCHAR U+1EC1
ENCODING 7873
SWIDTH 250 0
DWIDTH 4 0
BBX 3 10 0 0
BITMAP
80
40
00
40
A0
00
40
E0
80
60
ENDCHAR
STARTCHAR U+1EC2
ENCODING 7874
SWIDTH 312 0
DWIDTH 5 0
BBX 4 11 0 0
BITMAP
60
20
00
20
50
00
F0
80
E0
80
F0
ENDCHAR
STARTCHAR U+1EC3
ENCODING 7875
SWIDTH 250 0
DWIDTH 4 0
BBX 3 10 0 0
BITMAP
C0
40
00
40
A0
00
40
E0
80
60
ENDCHAR
STARTCHAR U+1EC4
ENCODING 7876
SWIDTH 312 0
DWIDTH 5 0
BBX 4 11 0 0
BITMAP
50
A0
00
20
50
00
F0
80
E0
80
F0
ENDCHAR
STARTCHAR U+1EC5
ENCODING 7877
SWIDTH 250 0
DWIDTH 4 0
BBX 4 10 0 0
BITMAP
50
A0
00
40
A0
00
40
E0
80
60
ENDCHAR
STARTCHAR U+1EC6
ENCODING 7878
SWIDTH 312 0
DWIDTH 5 0
BBX 4 10 0 -2
BITMAP
20
50
00
F0
80
E0
80
F0
00
20
ENDCHAR
STARTCHAR U+1EC7
ENCODING 7879
SWIDTH 250 0
DWIDTH 4 0
BBX 3 9 0 -2
BITMAP
40
A0
00
40
E0
80
60
00
40
ENDCHAR
STARTCHAR U+1EC8
ENCODING 7880
SWIDTH 125 0
DWIDTH 2 0
BBX 2 8 -1 0
BITMAP
C0
40
00
40
40
40
40
40
ENDCHAR
STARTCHAR U+1EC9
ENCODING 7881
SWIDTH 125 0
DWIDTH 2 0
BBX 2 7 -1 0
BITMAP
C0
40
00
40
40
40
40
ENDCHAR
STARTCHAR U+1ECA
ENCODING 7882
SWIDTH 125 0
DWIDTH 2 0
BBX 1 7 0 -2
BITMAP
80
80
80
80
80
00
80
ENDCHAR
STARTCHAR U+1ECB
ENCODING 7883
SWIDTH 125 0
DWIDTH 2 0
BBX 1 8 0 -2
BITMAP
80
00
80
80
80
80
00
80
ENDCHAR
STARTCHAR U+1ECC
ENCODING 7884
SWIDTH 312 0
DWIDTH 5 0
BBX 4 7 0 -2
BITMAP
60
90
90
90
60
00
20
ENDCHAR
STARTCHAR U+1ECD
ENCODING 7885
SWIDTH 250 0
DWIDTH 4 0
BBX 3 6 0 -2
BITMAP
40
A0
A0
40
00
40
ENDCHAR
STARTCHAR U+1ECE
ENCODING 7886
SWIDTH 312 0
DWIDTH 5 0
BBX 4 8 0 0
BITMAP
60
20
00
60
90
90
90
60
ENDCHAR
STARTCHAR U+1ECF
ENCODING 7887
SWIDTH 250 0
DWIDTH 4 0
BBX 3 7 0 0
BITMAP
C0
40
00
40
A0
A0
40
ENDCHAR
STARTCHAR U+1ED0
ENCODING 7888
SWIDTH 312 0
DWIDTH 5 0
BBX 4 11 0 0
BITMAP
20
40
00
20
50
00
60
90
90
90
60
ENDCHAR
STARTCHAR U+1ED1
ENCODING 7889
SWIDTH 250 0
DWIDTH 4 0
BBX 3 10 0 0
BITMAP
20
40
00
40
A0
00
40
A0
A0
40
ENDCHAR
STARTCHAR U+1ED2
ENCODING 7890
SWIDTH 312 0
DWIDTH 5 0
BBX 4 11 0 0
BITMAP
40
20
00
20
50
00
60
90
90
90
60
ENDCHAR
STARTCHAR U+1ED3
ENCODING 7891
SWIDTH 250 0
DWIDTH 4 0
BBX 3 10 0 0
BITMAP
80
40
00
40
A0
00
40
A0
A0
40
ENDCHAR
STARTCHAR U+1ED4
ENCODING 7892
SWIDTH 312 0
DWIDTH 5 0
BBX 4 11 0 0
BITMAP
60
20
00
20
50
00
60
90
90
90
60
ENDCHAR
STARTCHAR U+1ED5
ENCODING 7893
SWIDTH 250 0
DWIDTH 4 0
BBX 3 10 0 0
BITMAP
C0
40
00
40
A0
00
40
A0
A0
40
ENDCHAR
STARTCHAR U+1ED6
ENCODING 7894
SWIDTH 312 0
DWIDTH 5 0
BBX 5 11 0 0
BITMAP
28
50
00
20
50
00
60
90
90
90
60
ENDCHAR
STARTCHAR U+1ED7
ENCODING 7895
SWIDTH 250 0
DWIDTH 4 0
BBX 4 10 0 0
BITMAP
50
A0
00
40
A0
00
40
A0
A0
40
ENDCHAR
STARTCHAR U+1ED8
ENCODING 7896
SWIDTH 312 0
DWIDTH 5 0
BBX 4 10 0 -2
BITMAP
20
50
00
60
90
90
90
60
00
20
ENDCHAR
STARTCHAR U+1ED9
ENCODING 7897
SWIDTH 250 0
DWIDTH 4 0
BBX 3 9 0 -2
BITMAP
40
A0
00
40
A0
A0
40
00
40
ENDCHAR
STARTCHAR U+1EDA
ENCODING 7898
SWIDTH 312 0
DWIDTH 5 0
BBX 4 8 0 0
BITMAP
20
40
10
60
90
90
90
60
ENDCHAR
STARTCHAR U+1EDB
ENCODING 7899
SWIDTH 250 0
DWIDTH 4 0
BBX 3 7 0 0
BITMAP
20
40
20
40
A0
A0
40
ENDCHAR
STARTCHAR U+1EDC
ENCODING 7900
SWIDTH 312 0
DWIDTH 5 0
BBX 4 9 0 0
BITMAP
40
20
00
10
60
90
90
90
60
ENDCHAR
STARTCHAR U+1EDD
ENCODING 7901
SWIDTH 250 0
DWIDTH 4 0
BBX 3 8 0 0
BITMAP
80
40
00
20
40
A0
A0
40
ENDCHAR
STARTCHAR U+1EDE
ENCODING 7902
SWIDTH 312 0
DWIDTH 5 0
BBX 4 9 0 0
BITMAP
60
20
00
10
60
90
90
90
60
ENDCHAR
STARTCHAR U+1EDF
ENCODING 7903
SWIDTH 250 0
DWIDTH 4 0
BBX 3 8 0 0
BITMAP
C0
40
00
20
40
A0
A0
40
ENDCHAR
STARTCHAR U+1EE0
ENCODING 7904
SWIDTH 312 0
DWIDTH 5 0
BBX 4 9 0 0
BITMAP
50
A0
00
10
60
90
90
90
60
ENDCHAR
STARTCHAR U+1EE1
ENCODING 7905
SWIDTH 250 0
DWIDTH 4 0
BBX 4 8 0 0
BITMAP
50
A0
00
20
40
A0
A0
40
ENDCHAR
STARTCHAR U+1EE2
ENCODING 7906
SWIDTH 312 0
DWIDTH 5 0
BBX 4 8 0 -2
BITMAP
10
60
90
90
90
60
00
20
ENDCHAR
STARTCHAR U+1EE3
ENCODING 7907
SWIDTH 250 0
DWIDTH 4 0
BBX 3 7 0 -2
BITMAP
20
40
A0
A0
40
00
40
ENDCHAR
STARTCHAR U+1EE4
ENCODING 7908
SWIDTH 312 0
DWIDTH 5 0
BBX 4 7 0 -2
BITMAP
90
90
90
90
60
00
20
ENDCHAR
STARTCHAR U+1EE5
ENCODING 7909
SWIDTH 250 0
DWIDTH 4 0
BBX 3 6 0 -2
BITMAP
A0
A0
A0
60
00
40
ENDCHAR
STARTCHAR U+1EE6
ENCODING 7910
SWIDTH 312 0
DWIDTH 5 0
BBX 4 8 0 0
BITMAP
60
20
00
90
90
90
90
60
ENDCHAR
STARTCHAR U+1EE7
ENCODING 7911
SWIDTH 250 0
DWIDTH 4 0
BBX 3 7 0 0
BITMAP
C0
40
00
A0
A0
A0
60
ENDCHAR
STARTCHAR U+1EE8
ENCODING 7912
SWIDTH 312 0
DWIDTH 5 0
BBX 5 8 0 0
BITMAP
20
40
08
90
90
90
90
60
ENDCHAR
STARTCHAR U+1EE9
ENCODING 7913
SWIDTH 250 0
DWIDTH 4 0
BBX 4 7 0 0
BITMAP
20
40
10
A0
A0
A0
60
ENDCHAR
STARTCHAR U+1EEA
ENCODING 7914
SWIDTH 312 0
DWIDTH 5 0
BBX 5 8 0 0
BITMAP
40
20
08
90
90
90
90
60
ENDCHAR
STARTCHAR U+1EEB
ENCODING 7915
SWIDTH 250 0
DWIDTH 4 0
BBX 4 7 0 0
BITMAP
80
40
10
A0
A0
A0
60
ENDCHAR
STARTCHAR U+1EEC
ENCODING 7916
SWIDTH 312 0
DWIDTH 5 0
BBX 5 8 0 0
BITMAP
60
20
08
90
90
90
90
60
ENDCHAR
STARTCHAR U+1EED
ENCODING 7917
SWIDTH 250 0
DWIDTH 4 0
BBX 4 7 0 0
BITMAP
C0
40
10
A0
A0
A0
60
ENDCHAR
STARTCHAR U+1EEE
ENCODING 7918
SWIDTH 312 0
DWIDTH 5 0
BBX 5 8 0 0
BITMAP
50
A0
08
90
90
90
90
60
ENDCHAR
STARTCHAR U+1EEF
ENCODING 7919
SWIDTH 250 0
DWIDTH 4 0
BBX 4 7 0 0
BITMAP
50
A0
10
A0
A0
A0
60
ENDCHAR
STARTCHAR U+1EF0
ENCODING 7920
SWIDTH 312 0
DWIDTH 5 0
BBX 5 8 0 -2
BITMAP
08
90
90
90
90
60
00
20
ENDCHAR
STARTCHAR U+1EF1
ENCODING 7921
SWIDTH 250 0
DWIDTH 4 0
BBX 4 7 0 -2
BITMAP
10
A0
A0
A0
60
00
40
ENDCHAR
STARTCHAR U+1EF2
ENCODING 7922
SWIDTH 375 0
DWIDTH 6 0
BBX 5 8 0 0
BITMAP
40
20
00
88
50
20
20
20
ENDCHAR
STARTCHAR U+1EF3
ENCODING 7923
SWIDTH 250 0
DWIDTH 4 0
BBX 3 8 0 -1
BITMAP
80
40
00
A0
A0
A0
40
80
ENDCHAR
STARTCHAR U+1EF4
ENCODING 7924
SWIDTH 375 0
DWIDTH 6 0
BBX 5 7 0 -2
BITMAP
88
50
20
20
20
00
20
ENDCHAR
STARTCHAR U+1EF5
ENCODING 7925
SWIDTH 250 0
DWIDTH 4 0
BBX 3 7 0 -3
BITMAP
A0
A0
A0
40
80
00
40
ENDCHAR
STARTCHAR U+1EF6
ENCODING 7926
SWIDTH 375 0
DWIDTH 6 0
BBX 5 8 0 0
BITMAP
60
20
00
88
50
20
20
20
ENDCHAR
STARTCHAR U+1EF7
ENCODING 7927
SWIDTH 250 0
DWIDTH 4 0
BBX 3 8 0 -1
BITMAP
C0
40
00
A0
A0
A0
40
80
ENDCHAR
STARTCHAR U+1EF8
ENCODING 7928
SWIDTH 375 0
DWIDTH 6 0
BBX 5 8 0 0
BITMAP
28
50
00
88
50
20
20
20
ENDCHAR
STARTCHAR U+1EF9
ENCODING 7929
SWIDTH 250 0
DWIDTH 4 0
BBX 4 8 0 -1
BITMAP
50
A0
00
A0
A0
A0
40
80
ENDCHAR
STARTCHAR U+1F00
ENCODING 7936
SWIDTH 250 0
DWIDTH 4 0
BBX 3 7 0 0
BITMAP
40
40
00
60
A0
A0
60
ENDCHAR
STARTCHAR U+1F01
ENCODING 7937
SWIDTH 250 0
DWIDTH 4 0
BBX 3 7 0 0
BITMAP
40
40
00
60
A0
A0
60
ENDCHAR
STARTCHAR U+1F02
ENCODING 7938
SWIDTH 250 0
DWIDTH 4 0
BBX 4 7 0 0
BITMAP
A0
90
00
60
A0
A0
60
ENDCHAR
STARTCHAR U+1F03
ENCODING 7939
SWIDTH 250 0
DWIDTH 4 0
BBX 4 7 0 0
BITMAP
A0
90
00
60
A0
A0
60
ENDCHAR
STARTCHAR U+1F04
ENCODING 7940
SWIDTH 250 0
DWIDTH 4 0
BBX 4 7 0 0
BITMAP
90
A0
00
60
A0
A0
60
ENDCHAR
STARTCHAR U+1F05
ENCODING 7941
SWIDTH 250 0
DWIDTH 4 0
BBX 4 7 0 0
BITMAP
90
A0
00
60
A0
A0
60
ENDCHAR
STARTCHAR U+1F06
ENCODING 7942
SWIDTH 250 0
DWIDTH 4 0
BBX 4 10 0 0
BITMAP
50
A0
00
40
40
00
60
A0
A0
60
ENDCHAR
STARTCHAR U+1F07
ENCODING 7943
SWIDTH 250 0
DWIDTH 4 0
BBX 4 10 0 0
BITMAP
50
A0
00
40
40
00
60
A0
A0
60
ENDCHAR
STARTCHAR U+1F08
ENCODING 7944
SWIDTH 437 0
DWIDTH 7 0
BBX 6 5 0 0
BITMAP
98
A4
3C
24
24
ENDCHAR
STARTCHAR U+1F09
ENCODING 7945
SWIDTH 437 0
DWIDTH 7 0
BBX 6 5 0 0
BITMAP
98
A4
3C
24
24
ENDCHAR
STARTCHAR U+1F0A
ENCODING 7946
SWIDTH 625 0
DWIDTH 10 0
BBX 9 5 0 0
BITMAP
A300
9480
0780
0480
0480
ENDCHAR
STARTCHAR U+1F0B
ENCODING 7947
SWIDTH 625 0
DWIDTH 10 0
BBX 9 5 0 0
BITMAP
A300
9480
0780
0480
0480
ENDCHAR
STARTCHAR U+1F0C
ENCODING 7948
SWIDTH 562 0
DWIDTH 9 0
BBX 8 5 0 0
BITMAP
96
A9
0F
09
09
ENDCHAR
STARTCHAR U+1F0D
ENCODING 7949
SWIDTH 562 0
DWIDTH 9 0
BBX 8 5 0 0
BITMAP
96
A9
0F
09
09
ENDCHAR
STARTCHAR U+1F0E
ENCODING 7950
SWIDTH 437 0
DWIDTH 7 0
BBX 7 8 -1 0
BITMAP
50
A0
00
4C
52
1E
12
12
ENDCHAR
STARTCHAR U+1F0F
ENCODING 7951
SWIDTH 437 0
DWIDTH 7 0
BBX 7 8 -1 0
BITMAP
50
A0
00
4C
52
1E
12
12
ENDCHAR
STARTCHAR U+1F10
ENCODING 7952
SWIDTH 250 0
DWIDTH 4 0
BBX 3 7 0 0
BITMAP
40
40
00
E0
40
80
60
ENDCHAR
STARTCHAR U+1F11
ENCODING 7953
SWIDTH 250 0
DWIDTH 4 0
BBX 3 7 0 0
BITMAP
40
40
00
E0
40
80
60
ENDCHAR
STARTCHAR U+1F12
ENCODING 7954
SWIDTH 250 0
DWIDTH 4 0
BBX 4 7 0 0
BITMAP
A0
90
00
E0
40
80
60
ENDCHAR
STARTCHAR U+1F13
ENCODING 7955
SWIDTH 250 0
DWIDTH 4 0
BBX 4 7 0 0
BITMAP
A0
90
00
E0
40
80
60
ENDCHAR
STARTCHAR U+1F14
ENCODING 7956
SWIDTH 250 0
DWIDTH 4 0
BBX 4 7 0 0
BITMAP
90
A0
00
E0
40
80
60
ENDCHAR
STARTCHAR U+1F15
ENCODING 7957
SWIDTH 250 0
DWIDTH 4 0
BBX 4 7 0 0
BITMAP
90
A0
00
E0
40
80
60
ENDCHAR
STARTCHAR U+1F18
ENCODING 7960
SWIDTH 437 0
DWIDTH 7 0
BBX 6 5 0 0
BITMAP
BC
A0
38
20
3C
ENDCHAR
STARTCHAR U+1F19
ENCODING 7961
SWIDTH 437 0
DWIDTH 7 0
BBX 6 5 0 0
BITMAP
BC
A0
38
20
3C
ENDCHAR
STARTCHAR U+1F1A
ENCODING 7962
SWIDTH 625 0
DWIDTH 10 0
BBX 9 5 0 0
BITMAP
A780
9400
0700
0400
0780
ENDCHAR
STARTCHAR U+1F1B
ENCODING 7963
SWIDTH 625 0
DWIDTH 10 0
BBX 9 5 0 0
BITMAP
A780
9400
0700
0400
0780
ENDCHAR
STARTCHAR U+1F1C
ENCODING 7964
SWIDTH 625 0
DWIDTH 10 0
BBX 9 5 0 0
BITMAP
9780
A400
0700
0400
0780
ENDCHAR
STARTCHAR U+1F1D
ENCODING 7965
SWIDTH 625 0
DWIDTH 10 0
BBX 9 5 0 0
BITMAP
9780
A400
0700
0400
0780
ENDCHAR
STARTCHAR U+1F20
ENCODING 7968
SWIDTH 250 0
DWIDTH 4 0
BBX 3 8 0 -1
BITMAP
40
40
00
C0
A0
A0
A0
20
ENDCHAR
STARTCHAR U+1F21
ENCODING 7969
SWIDTH 250 0
DWIDTH 4 0
BBX 3 8 0 -1
BITMAP
40
40
00
C0
A0
A0
A0
20
ENDCHAR
STARTCHAR U+1F22
ENCODING 7970
SWIDTH 250 0
DWIDTH 4 0
BBX 4 8 0 -1
BITMAP
A0
90
00
C0
A0
A0
A0
20
ENDCHAR
STARTCHAR U+1F23
ENCODING 7971
SWIDTH 250 0
DWIDTH 4 0
BBX 4 8 0 -1
BITMAP
A0
90
00
C0
A0
A0
A0
20
ENDCHAR
STARTCHAR U+1F24
ENCODING 7972
SWIDTH 250 0
DWIDTH 4 0
BBX 4 8 0 -1
BITMAP
90
A0
00
C0
A0
A0
A0
20
ENDCHAR
STARTCHAR U+1F25
ENCODING 7973
SWIDTH 250 0
DWIDTH 4 0
BBX 4 8 0 -1
BITMAP
90
A0
00
C0
A0
A0
A0
20
ENDCHAR
STARTCHAR U+1F26
ENCODING 7974
SWIDTH 250 0
DWIDTH 4 0
BBX 4 11 0 -1
BITMAP
50
A0
00
40
40
00
C0
A0
A0
A0
20
ENDCHAR
STARTCHAR U+1F27
ENCODING 7975
SWIDTH 250 0
DWIDTH 4 0
BBX 4 11 0 -1
BITMAP
50
A0
00
40
40
00
C0
A0
A0
A0
20
ENDCHAR
STARTCHAR U+1F28
ENCODING 7976
SWIDTH 437 0
DWIDTH 7 0
BBX 6 5 0 0
BITMAP
A4
A4
3C
24
24
ENDCHAR
STARTCHAR U+1F29
ENCODING 7977
SWIDTH 437 0
DWIDTH 7 0
BBX 6 5 0 0
BITMAP
A4
A4
3C
24
24
ENDCHAR
STARTCHAR U+1F2A
ENCODING 7978
SWIDTH 625 0
DWIDTH 10 0
BBX 9 5 0 0
BITMAP
A480
9480
0780
0480
0480
ENDCHAR
STARTCHAR U+1F2B
ENCODING 7979
SWIDTH 625 0
DWIDTH 10 0
BBX 9 5 0 0
BITMAP
A480
9480
0780
0480
0480
ENDCHAR
STARTCHAR U+1F2C
ENCODING 7980
SWIDTH 625 0
DWIDTH 10 0
BBX 9 5 0 0
BITMAP
9480
A480
0780
0480
0480
ENDCHAR
STARTCHAR U+1F2D
ENCODING 7981
SWIDTH 625 0
DWIDTH 10 0
BBX 9 5 0 0
BITMAP
9480
A480
0780
0480
0480
ENDCHAR
STARTCHAR U+1F2E
ENCODING 7982
SWIDTH 437 0
DWIDTH 7 0
BBX 7 8 -1 0
BITMAP
50
A0
00
52
52
1E
12
12
ENDCHAR
STARTCHAR U+1F2F
ENCODING 7983
SWIDTH 437 0
DWIDTH 7 0
BBX 7 8 -1 0
BITMAP
50
A0
00
52
52
1E
12
12
ENDCHAR
STARTCHAR U+1F30
ENCODING 7984
SWIDTH 187 0
DWIDTH 3 0
BBX 2 7 0 0
BITMAP
80
80
00
80
80
80
40
ENDCHAR
STARTCHAR U+1F31
ENCODING 7985
SWIDTH 187 0
DWIDTH 3 0
BBX 2 7 0 0
BITMAP
80
80
00
80
80
80
40
ENDCHAR
STARTCHAR U+1F32
ENCODING 7986
SWIDTH 187 0
DWIDTH 3 0
BBX 4 7 -1 0
BITMAP
A0
90
00
40
40
40
20
ENDCHAR
STARTCHAR U+1F33
ENCODING 7987
SWIDTH 187 0
DWIDTH 3 0
BBX 4 7 -1 0
BITMAP
A0
90
00
40
40
40
20
ENDCHAR
STARTCHAR U+1F34
ENCODING 7988
SWIDTH 187 0
DWIDTH 3 0
BBX 4 7 -1 0
BITMAP
90
A0
00
40
40
40
20
ENDCHAR
STARTCHAR U+1F35
ENCODING 7989
SWIDTH 187 0
DWIDTH 3 0
BBX 4 7 -1 0
BITMAP
90
A0
00
40
40
40
20
ENDCHAR
STARTCHAR U+1F36
ENCODING 7990
SWIDTH 187 0
DWIDTH 3 0
BBX 4 10 -1 0
BITMAP
50
A0
00
40
40
00
40
40
40
20
ENDCHAR
STARTCHAR U+1F37
ENCODING 7991
SWIDTH 187 0
DWIDTH 3 0
BBX 4 10 -1 0
BITMAP
50
A0
00
40
40
00
40
40
40
20
ENDCHAR
STARTCHAR U+1F38
ENCODING 7992
SWIDTH 250 0
DWIDTH 4 0
BBX 3 5 0 0
BITMAP
A0
A0
20
20
20
ENDCHAR
STARTCHAR U+1F39
ENCODING 7993
SWIDTH 250 0
DWIDTH 4 0
BBX 3 5 0 0
BITMAP
A0
A0
20
20
20
ENDCHAR
STARTCHAR U+1F3A
ENCODING 7994
SWIDTH 437 0
DWIDTH 7 0
BBX 6 5 0 0
BITMAP
A4
94
04
04
04
ENDCHAR
STARTCHAR U+1F3B
ENCODING 7995
SWIDTH 437 0
DWIDTH 7 0
BBX 6 5 0 0
BITMAP
A4
94
04
04
04
ENDCHAR
STARTCHAR U+1F3C
ENCODING 7996
SWIDTH 437 0
DWIDTH 7 0
BBX 6 5 0 0
BITMAP
94
A4
04
04
04
ENDCHAR
STARTCHAR U+1F3D
ENCODING 7997
SWIDTH 437 0
DWIDTH 7 0
BBX 6 5 0 0
BITMAP
94
A4
04
04
04
ENDCHAR
STARTCHAR U+1F3E
ENCODING 7998
SWIDTH 250 0
DWIDTH 4 0
BBX 4 8 -1 0
BITMAP
50
A0
00
50
50
10
10
10
ENDCHAR
STARTCHAR U+1F3F
ENCODING 7999
SWIDTH 250 0
DWIDTH 4 0
BBX 4 8 -1 0
BITMAP
50
A0
00
50
50
10
10
10
ENDCHAR
STARTCHAR U+1F40
ENCODING 8000
SWIDTH 250 0
DWIDTH 4 0
BBX 3 7 0 0
BITMAP
40
40
00
40
A0
A0
40
ENDCHAR
STARTCHAR U+1F41
ENCODING 8001
SWIDTH 250 0
DWIDTH 4 0
BBX 3 7 0 0
BITMAP
40
40
00
40
A0
A0
40
ENDCHAR
STARTCHAR U+1F42
ENCODING 8002
SWIDTH 250 0
DWIDTH 4 0
BBX 4 7 0 0
BITMAP
A0
90
00
40
A0
A0
40
ENDCHAR
STARTCHAR U+1F43
ENCODING 8003
SWIDTH 250 0
DWIDTH 4 0
BBX 4 7 0 0
BITMAP
A0
90
00
40
A0
A0
40
ENDCHAR
STARTCHAR U+1F44
ENCODING 8004
SWIDTH 250 0
DWIDTH 4 0
BBX 4 7 0 0
BITMAP
90
A0
00
40
A0
A0
40
ENDCHAR
STARTCHAR U+1F45
ENCODING 8005
SWIDTH 250 0
DWIDTH 4 0
BBX 4 7 0 0
BITMAP
90
A0
00
40
A0
A0
40
ENDCHAR
STARTCHAR U+1F48
ENCODING 8008
SWIDTH 437 0
DWIDTH 7 0
BBX 6 5 0 0
BITMAP
98
A4
24
24
18
ENDCHAR
STARTCHAR U+1F49
ENCODING 8009
SWIDTH 437 0
DWIDTH 7 0
BBX 6 5 0 0
BITMAP
98
A4
24
24
18
ENDCHAR
STARTCHAR U+1F4A
ENCODING 8010
SWIDTH 625 0
DWIDTH 10 0
BBX 9 5 0 0
BITMAP
A300
9480
0480
0480
0300
ENDCHAR
STARTCHAR U+1F4B
ENCODING 8011
SWIDTH 625 0
DWIDTH 10 0
BBX 9 5 0 0
BITMAP
A300
9480
0480
0480
0300
ENDCHAR
STARTCHAR U+1F4C
ENCODING 8012
SWIDTH 562 0
DWIDTH 9 0
BBX 8 5 0 0
BITMAP
96
A9
09
09
06
ENDCHAR
STARTCHAR U+1F4D
ENCODING 8013
SWIDTH 562 0
DWIDTH 9 0
BBX 8 5 0 0
BITMAP
96
A9
09
09
06
ENDCHAR
STARTCHAR U+1F50
ENCODING 8016
SWIDTH 250 0
DWIDTH 4 0
BBX 3 7 0 0
BITMAP
40
40
00
A0
A0
A0
40
ENDCHAR
STARTCHAR U+1F51
ENCODING 8017
SWIDTH 250 0
DWIDTH 4 0
BBX 3 7 0 0
BITMAP
40
40
00
A0
A0
A0
40
ENDCHAR
STARTCHAR U+1F52
ENCODING 8018
SWIDTH 250 0
DWIDTH 4 0
BBX 4 7 0 0
BITMAP
A0
90
00
A0
A0
A0
40
ENDCHAR
STARTCHAR U+1F53
ENCODING 8019
SWIDTH 250 0
DWIDTH 4 0
BBX 4 7 0 0
BITMAP
A0
90
00
A0
A0
A0
40
ENDCHAR
STARTCHAR U+1F54
ENCODING 8020
SWIDTH 250 0
DWIDTH 4 0
BBX 4 7 0 0
BITMAP
90
A0
00
A0
A0
A0
40
ENDCHAR
STARTCHAR U+1F55
ENCODING 8021
SWIDTH 250 0
DWIDTH 4 0
BBX 4 7 0 0
BITMAP
90
A0
00
A0
A0
A0
40
ENDCHAR
STARTCHAR U+1F56
ENCODING 8022
SWIDTH 250 0
DWIDTH 4 0
BBX 4 10 0 0
BITMAP
50
A0
00
40
40
00
A0
A0
A0
40
ENDCHAR
STARTCHAR U+1F57
ENCODING 8023
SWIDTH 250 0
DWIDTH 4 0
BBX 4 10 0 0
BITMAP
50
A0
00
40
40
00
A0
A0
A0
40
ENDCHAR
STARTCHAR U+1F59
ENCODING 8025
SWIDTH 500 0
DWIDTH 8 0
BBX 7 5 0 0
BITMAP
A2
94
08
08
08
ENDCHAR
STARTCHAR U+1F5B
ENCODING 8027
SWIDTH 625 0
DWIDTH 10 0
BBX 9 5 0 0
BITMAP
A880
9500
0200
0200
0200
ENDCHAR
STARTCHAR U+1F5D
ENCODING 8029
SWIDTH 687 0
DWIDTH 11 0
BBX 10 5 0 0
BITMAP
9440
A280
0100
0100
0100
ENDCHAR
STARTCHAR U+1F5F
ENCODING 8031
SWIDTH 500 0
DWIDTH 8 0
BBX 8 8 -1 0
BITMAP
50
A0
00
51
4A
04
04
04
ENDCHAR
STARTCHAR U+1F60
ENCODING 8032
SWIDTH 375 0
DWIDTH 6 0
BBX 5 7 0 0
BITMAP
20
20
00
88
A8
A8
50
ENDCHAR
STARTCHAR U+1F61
ENCODING 8033
SWIDTH 375 0
DWIDTH 6 0
BBX 5 7 0 0
BITMAP
20
20
00
88
A8
A8
50
ENDCHAR
STARTCHAR U+1F62
ENCODING 8034
SWIDTH 375 0
DWIDTH 6 0
BBX 5 7 0 0
BITMAP
50
48
00
88
A8
A8
50
ENDCHAR
STARTCHAR U+1F63
ENCODING 8035
SWIDTH 375 0
DWIDTH 6 0
BBX 5 7 0 0
BITMAP
50
48
00
88
A8
A8
50
ENDCHAR
STARTCHAR U+1F64
ENCODING 8036
SWIDTH 375 0
DWIDTH 6 0
BBX 5 7 0 0
BITMAP
48
50
00
88
A8
A8
50
ENDCHAR
STARTCHAR U+1F65
ENCODING 8037
SWIDTH 375 0
DWIDTH 6 0
BBX 5 7 0 0
BITMAP
48
50
00
88
A8
A8
50
ENDCHAR
STARTCHAR U+1F66
ENCODING 8038
SWIDTH 375 0
DWIDTH 6 0
BBX 5 10 0 0
BITMAP
28
50
00
20
20
00
88
A8
A8
50
ENDCHAR
STARTCHAR U+1F67
ENCODING 8039
SWIDTH 375 0
DWIDTH 6 0
BBX 5 10 0 0
BITMAP
28
50
00
20
20
00
88
A8
A8
50
ENDCHAR
STARTCHAR U+1F68
ENCODING 8040
SWIDTH 500 0
DWIDTH 8 0
BBX 7 5 0 0
BITMAP
9C
A2
22
14
36
ENDCHAR
STARTCHAR U+1F69
ENCODING 8041
SWIDTH 500 0
DWIDTH 8 0
BBX 7 5 0 0
BITMAP
9C
A2
22
14
36
ENDCHAR
STARTCHAR U+1F6A
ENCODING 8042
SWIDTH 687 0
DWIDTH 11 0
BBX 10 5 0 0
BITMAP
A380
9440
0440
0280
06C0
ENDCHAR
STARTCHAR U+1F6B
ENCODING 8043
SWIDTH 687 0
DWIDTH 11 0
BBX 10 5 0 0
BITMAP
A380
9440
0440
0280
06C0
ENDCHAR
STARTCHAR U+1F6C
ENCODING 8044
SWIDTH 625 0
DWIDTH 10 0
BBX 9 5 0 0
BITMAP
9700
A880
0880
0500
0D80
ENDCHAR
STARTCHAR U+1F6D
ENCODING 8045
SWIDTH 625 0
DWIDTH 10 0
BBX 9 5 0 0
BITMAP
9700
A880
0880
0500
0D80
ENDCHAR
STARTCHAR U+1F6E
ENCODING 8046
SWIDTH 500 0
DWIDTH 8 0
BBX 8 8 -1 0
BITMAP
50
A0
00
4E
51
11
0A
1B
ENDCHAR
STARTCHAR U+1F6F
ENCODING 8047
SWIDTH 500 0
DWIDTH 8 0
BBX 8 8 -1 0
BITMAP
50
A0
00
4E
51
11
0A
1B
ENDCHAR
STARTCHAR U+1F70
ENCODING 8048
SWIDTH 250 0
DWIDTH 4 0
BBX 3 7 0 0
BITMAP
80
40
00
60
A0
A0
60
ENDCHAR
STARTCHAR U+1F71
ENCODING 8049
SWIDTH 250 0
DWIDTH 4 0
BBX 3 7 0 0
BITMAP
20
40
00
60
A0
A0
60
ENDCHAR
STARTCHAR U+1F72
ENCODING 8050
SWIDTH 250 0
DWIDTH 4 0
BBX 3 7 0 0
BITMAP
80
40
00
E0
40
80
60
ENDCHAR
STARTCHAR U+1F73
ENCODING 8051
SWIDTH 250 0
DWIDTH 4 0
BBX 3 7 0 0
BITMAP
20
40
00
E0
40
80
60
ENDCHAR
STARTCHAR U+1F74
ENCODING 8052
SWIDTH 250 0
DWIDTH 4 0
BBX 3 8 0 -1
BITMAP
80
40
00
C0
A0
A0
A0
20
ENDCHAR
STARTCHAR U+1F75
ENCODING 8053
SWIDTH 250 0
DWIDTH 4 0
BBX 3 8 0 -1
BITMAP
20
40
00
C0
A0
A0
A0
20
ENDCHAR
STARTCHAR U+1F76
ENCODING 8054
SWIDTH 187 0
DWIDTH 3 0
BBX 3 7 -1 0
BITMAP
80
40
00
40
40
40
20
ENDCHAR
STARTCHAR U+1F77
ENCODING 8055
SWIDTH 187 0
DWIDTH 3 0
BBX 2 7 0 0
BITMAP
40
80
00
80
80
80
40
ENDCHAR
STARTCHAR U+1F78
ENCODING 8056
SWIDTH 250 0
DWIDTH 4 0
BBX 3 7 0 0
BITMAP
80
40
00
40
A0
A0
40
ENDCHAR
STARTCHAR U+1F79
ENCODING 8057
SWIDTH 250 0
DWIDTH 4 0
BBX 3 7 0 0
BITMAP
20
40
00
40
A0
A0
40
ENDCHAR
STARTCHAR U+1F7A
ENCODING 8058
SWIDTH 250 0
DWIDTH 4 0
BBX 3 7 0 0
BITMAP
80
40
00
A0
A0
A0
40
ENDCHAR
STARTCHAR U+1F7B
ENCODING 8059
SWIDTH 250 0
DWIDTH 4 0
BBX 3 7 0 0
BITMAP
20
40
00
A0
A0
A0
40
ENDCHAR
STARTCHAR U+1F7C
ENCODING 8060
SWIDTH 375 0
DWIDTH 6 0
BBX 5 7 0 0
BITMAP
40
20
00
88
A8
A8
50
ENDCHAR
STARTCHAR U+1F7D
ENCODING 8061
SWIDTH 375 0
DWIDTH 6 0
BBX 5 7 0 0
BITMAP
10
20
00
88
A8
A8
50
ENDCHAR
STARTCHAR U+1F80
ENCODING 8064
SWIDTH 250 0
DWIDTH 4 0
BBX 3 10 0 -3
BITMAP
40
40
00
60
A0
A0
60
00
40
40
ENDCHAR
STARTCHAR U+1F81
ENCODING 8065
SWIDTH 250 0
DWIDTH 4 0
BBX 3 10 0 -3
BITMAP
40
40
00
60
A0
A0
60
00
40
40
ENDCHAR
STARTCHAR U+1F82
ENCODING 8066
SWIDTH 250 0
DWIDTH 4 0
BBX 4 10 0 -3
BITMAP
A0
90
00
60
A0
A0
60
00
40
40
ENDCHAR
STARTCHAR U+1F83
ENCODING 8067
SWIDTH 250 0
DWIDTH 4 0
BBX 4 10 0 -3
BITMAP
A0
90
00
60
A0
A0
60
00
40
40
ENDCHAR
STARTCHAR U+1F84
ENCODING 8068
SWIDTH 250 0
DWIDTH 4 0
BBX 4 10 0 -3
BITMAP
90
A0
00
60
A0
A0
60
00
40
40
ENDCHAR
STARTCHAR U+1F85
ENCODING 8069
SWIDTH 250 0
DWIDTH 4 0
BBX 4 10 0 -3
BITMAP
90
A0
00
60
A0
A0
60
00
40
40
ENDCHAR
STARTCHAR U+1F86
ENCODING 8070
SWIDTH 250 0
DWIDTH 4 0
BBX 4 13 0 -3
BITMAP
50
A0
00
40
40
00
60
A0
A0
60
00
40
40
ENDCHAR
STARTCHAR U+1F87
ENCODING 8071
SWIDTH 250 0
DWIDTH 4 0
BBX 4 13 0 -3
BITMAP
50
A0
00
40
40
00
60
A0
A0
60
00
40
40
ENDCHAR
STARTCHAR U+1F88
ENCODING 8072
SWIDTH 437 0
DWIDTH 7 0
BBX 6 8 0 -3
BITMAP
98
A4
3C
24
24
00
08
08
ENDCHAR
STARTCHAR U+1F89
ENCODING 8073
SWIDTH 437 0
DWIDTH 7 0
BBX 6 8 0 -3
BITMAP
98
A4
3C
24
24
00
08
08
ENDCHAR
STARTCHAR U+1F8A
ENCODING 8074
SWIDTH 625 0
DWIDTH 10 0
BBX 9 8 0 -3
BITMAP
A300
9480
0780
0480
0480
0000
0100
0100
ENDCHAR
STARTCHAR U+1F8B
ENCODING 8075
SWIDTH 625 0
DWIDTH 10 0
BBX 9 8 0 -3
BITMAP
A300
9480
0780
0480
0480
0000
0100
0100
ENDCHAR
STARTCHAR U+1F8C
ENCODING 8076
SWIDTH 562 0
DWIDTH 9 0
BBX 8 8 0 -3
BITMAP
96
A9
0F
09
09
00
02
02
ENDCHAR
STARTCHAR U+1F8D
ENCODING 8077
SWIDTH 562 0
DWIDTH 9 0
BBX 8 8 0 -3
BITMAP
96
A9
0F
09
09
00
02
02
ENDCHAR
STARTCHAR U+1F8E
ENCODING 8078
SWIDTH 437 0
DWIDTH 7 0
BBX 7 11 -1 -3
BITMAP
50
A0
00
4C
52
1E
12
12
00
04
04
ENDCHAR
STARTCHAR U+1F8F
ENCODING 8079
SWIDTH 437 0
DWIDTH 7 0
BBX 7 11 -1 -3
BITMAP
50
A0
00
4C
52
1E
12
12
00
04
04
ENDCHAR
STARTCHAR U+1F90
ENCODING 8080
SWIDTH 250 0
DWIDTH 4 0
BBX 3 11 0 -4
BITMAP
40
40
00
C0
A0
A0
A0
20
00
40
40
ENDCHAR
STARTCHAR U+1F91
ENCODING 8081
SWIDTH 250 0
DWIDTH 4 0
BBX 3 11 0 -4
BITMAP
40
40
00
C0
A0
A0
A0
20
00
40
40
ENDCHAR
STARTCHAR U+1F92
ENCODING 8082
SWIDTH 250 0
DWIDTH 4 0
BBX 4 11 0 -4
BITMAP
A0
90
00
C0
A0
A0
A0
20
00
40
40
ENDCHAR
STARTCHAR U+1F93
ENCODING 8083
SWIDTH 250 0
DWIDTH 4 0
BBX 4 11 0 -4
BITMAP
A0
90
00
C0
A0
A0
A0
20
00
40
40
ENDCHAR
STARTCHAR U+1F94
ENCODING 8084
SWIDTH 250 0
DWIDTH 4 0
BBX 4 11 0 -4
BITMAP
90
A0
00
C0
A0
A0
A0
20
00
40
40
ENDCHAR
STARTCHAR U+1F95
ENCODING 8085
SWIDTH 250 0
DWIDTH 4 0
BBX 4 11 0 -4
BITMAP
90
A0
00
C0
A0
A0
A0
20
00
40
40
ENDCHAR
STARTCHAR U+1F96
ENCODING 8086
SWIDTH 250 0
DWIDTH 4 0
BBX 4 14 0 -4
BITMAP
50
A0
00
40
40
00
C0
A0
A0
A0
20
00
40
40
ENDCHAR
STARTCHAR U+1F97
ENCODING 8087
SWIDTH 250 0
DWIDTH 4 0
BBX 4 14 0 -4
BITMAP
50
A0
00
40
40
00
C0
A0
A0
A0
20
00
40
40
ENDCHAR
STARTCHAR U+1F98
ENCODING 8088
SWIDTH 437 0
DWIDTH 7 0
BBX 6 8 0 -3
BITMAP
A4
A4
3C
24
24
00
08
08
ENDCHAR
STARTCHAR U+1F99
ENCODING 8089
SWIDTH 437 0
DWIDTH 7 0
BBX 6 8 0 -3
BITMAP
A4
A4
3C
24
24
00
08
08
ENDCHAR
STARTCHAR U+1F9A
ENCODING 8090
SWIDTH 625 0
DWIDTH 10 0
BBX 9 8 0 -3
BITMAP
A480
9480
0780
0480
0480
0000
0100
0100
ENDCHAR
STARTCHAR U+1F9B
ENCODING 8091
SWIDTH 625 0
DWIDTH 10 0
BBX 9 8 0 -3
BITMAP
A480
9480
0780
0480
0480
0000
0100
0100
ENDCHAR
STARTCHAR U+1F9C
ENCODING 8092
SWIDTH 625 0
DWIDTH 10 0
BBX 9 8 0 -3
BITMAP
9480
A480
0780
0480
0480
0000
0100
0100
ENDCHAR
STARTCHAR U+1F9D
ENCODING 8093
SWIDTH 625 0
DWIDTH 10 0
BBX 9 8 0 -3
BITMAP
9480
A480
0780
0480
0480
0000
0100
0100
ENDCHAR
STARTCHAR U+1F9E
ENCODING 8094
SWIDTH 437 0
DWIDTH 7 0
BBX 7 11 -1 -3
BITMAP
50
A0
00
52
52
1E
12
12
00
04
04
ENDCHAR
STARTCHAR U+1F9F
ENCODING 8095
SWIDTH 437 0
DWIDTH 7 0
BBX 7 11 -1 -3
BITMAP
50
A0
00
52
52
1E
12
12
00
04
04
ENDCHAR
STARTCHAR U+1FA0
ENCODING 8096
SWIDTH 375 0
DWIDTH 6 0
BBX 5 10 0 -3
BITMAP
20
20
00
88
A8
A8
50
00
20
20
ENDCHAR
STARTCHAR U+1FA1
ENCODING 8097
SWIDTH 375 0
DWIDTH 6 0
BBX 5 10 0 -3
BITMAP
20
20
00
88
A8
A8
50
00
20
20
ENDCHAR
STARTCHAR U+1FA2
ENCODING 8098
SWIDTH 375 0
DWIDTH 6 0
BBX 5 10 0 -3
BITMAP
50
48
00
88
A8
A8
50
00
20
20
ENDCHAR
STARTCHAR U+1FA3
ENCODING 8099
SWIDTH 375 0
DWIDTH 6 0
BBX 5 10 0 -3
BITMAP
50
48
00
88
A8
A8
50
00
20
20
ENDCHAR
STARTCHAR U+1FA4
ENCODING 8100
SWIDTH 375 0
DWIDTH 6 0
BBX 5 10 0 -3
BITMAP
48
50
00
88
A8
A8
50
00
20
20
ENDCHAR
STARTCHAR U+1FA5
ENCODING 8101
SWIDTH 375 0
DWIDTH 6 0
BBX 5 10 0 -3
BITMAP
48
50
00
88
A8
A8
50
00
20
20
ENDCHAR
STARTCHAR U+1FA6
ENCODING 8102
SWIDTH 375 0
DWIDTH 6 0
BBX 5 13 0 -3
BITMAP
28
50
00
20
20
00
88
A8
A8
50
00
20
20
ENDCHAR
STARTCHAR U+1FA7
ENCODING 8103
SWIDTH 375 0
DWIDTH 6 0
BBX 5 13 0 -3
BITMAP
28
50
00
20
20
00
88
A8
A8
50
00
20
20
ENDCHAR
STARTCHAR U+1FA8
ENCODING 8104
SWIDTH 500 0
DWIDTH 8 0
BBX 7 8 0 -3
BITMAP
9C
A2
22
14
36
00
08
08
ENDCHAR
STARTCHAR U+1FA9
ENCODING 8105
SWIDTH 500 0
DWIDTH 8 0
BBX 7 8 0 -3
BITMAP
9C
A2
22
14
36
00
08
08
ENDCHAR
STARTCHAR U+1FAA
ENCODING 8106
SWIDTH 625 0
DWIDTH 10 0
BBX 10 8 0 -3
BITMAP
A380
9440
0440
0280
06C0
0000
0100
0100
ENDCHAR
STARTCHAR U+1FAB
ENCODING 8107
SWIDTH 687 0
DWIDTH 11 0
BBX 10 8 0 -3
BITMAP
A380
9440
0440
0280
06C0
0000
0100
0100
ENDCHAR
STARTCHAR U+1FAC
ENCODING 8108
SWIDTH 625 0
DWIDTH 10 0
BBX 9 8 0 -3
BITMAP
9700
A880
0880
0500
0D80
0000
0200
0200
ENDCHAR
STARTCHAR U+1FAD
ENCODING 8109
SWIDTH 625 0
DWIDTH 10 0
BBX 9 8 0 -3
BITMAP
9700
A880
0880
0500
0D80
0000
0200
0200
ENDCHAR
STARTCHAR U+1FAE
ENCODING 8110
SWIDTH 500 0
DWIDTH 8 0
BBX 8 11 -1 -3
BITMAP
50
A0
00
4E
51
11
0A
1B
00
04
04
ENDCHAR
STARTCHAR U+1FAF
ENCODING 8111
SWIDTH 500 0
DWIDTH 8 0
BBX 8 11 -1 -3
BITMAP
50
A0
00
4E
51
11
0A
1B
00
04
04
ENDCHAR
STARTCHAR U+1FB0
ENCODING 8112
SWIDTH 250 0
DWIDTH 4 0
BBX 3 7 0 0
BITMAP
A0
40
00
60
A0
A0
60
ENDCHAR
STARTCHAR U+1FB1
ENCODING 8113
SWIDTH 250 0
DWIDTH 4 0
BBX 3 6 0 0
BITMAP
E0
00
60
A0
A0
60
ENDCHAR
STARTCHAR U+1FB2
ENCODING 8114
SWIDTH 250 0
DWIDTH 4 0
BBX 3 10 0 -3
BITMAP
80
40
00
60
A0
A0
60
00
40
40
ENDCHAR
STARTCHAR U+1FB3
ENCODING 8115
SWIDTH 250 0
DWIDTH 4 0
BBX 3 7 0 -3
BITMAP
60
A0
A0
60
00
40
40
ENDCHAR
STARTCHAR U+1FB4
ENCODING 8116
SWIDTH 250 0
DWIDTH 4 0
BBX 3 10 0 -3
BITMAP
20
40
00
60
A0
A0
60
00
40
40
ENDCHAR
STARTCHAR U+1FB6
ENCODING 8118
SWIDTH 250 0
DWIDTH 4 0
BBX 4 7 0 0
BITMAP
50
A0
00
60
A0
A0
60
ENDCHAR
STARTCHAR U+1FB7
ENCODING 8119
SWIDTH 250 0
DWIDTH 4 0
BBX 4 10 0 -3
BITMAP
50
A0
00
60
A0
A0
60
00
40
40
ENDCHAR
STARTCHAR U+1FB8
ENCODING 8120
SWIDTH 312 0
DWIDTH 5 0
BBX 4 8 0 0
BITMAP
50
20
00
60
90
F0
90
90
ENDCHAR
STARTCHAR U+1FB9
ENCODING 8121
SWIDTH 312 0
DWIDTH 5 0
BBX 4 7 0 0
BITMAP
70
00
60
90
F0
90
90
ENDCHAR
STARTCHAR U+1FBA
ENCODING 8122
SWIDTH 500 0
DWIDTH 8 0
BBX 7 5 0 0
BITMAP
8C
52
1E
12
12
ENDCHAR
STARTCHAR U+1FBB
ENCODING 8123
SWIDTH 437 0
DWIDTH 7 0
BBX 6 5 0 0
BITMAP
58
A4
3C
24
24
ENDCHAR
STARTCHAR U+1FBC
ENCODING 8124
SWIDTH 312 0
DWIDTH 5 0
BBX 4 8 0 -3
BITMAP
60
90
F0
90
90
00
20
20
ENDCHAR
STARTCHAR U+1FBD
ENCODING 8125
SWIDTH 125 0
DWIDTH 2 0
BBX 1 2 0 3
BITMAP
80
80
ENDCHAR
STARTCHAR U+1FBE
ENCODING 8126
SWIDTH 125 0
DWIDTH 2 0
BBX 1 2 0 -3
BITMAP
80
80
ENDCHAR
STARTCHAR U+1FBF
ENCODING 8127
SWIDTH 125 0
DWIDTH 2 0
BBX 1 2 0 3
BITMAP
80
80
ENDCHAR
STARTCHAR U+1FC0
ENCODING 8128
SWIDTH 312 0
DWIDTH 5 0
BBX 4 2 0 3
BITMAP
50
A0
ENDCHAR
STARTCHAR U+1FC1
ENCODING 8129
SWIDTH 312 0
DWIDTH 5 0
BBX 4 4 0 4
BITMAP
50
A0
00
A0
ENDCHAR
STARTCHAR U+1FC2
ENCODING 8130
SWIDTH 250 0
DWIDTH 4 0
BBX 3 11 0 -4
BITMAP
80
40
00
C0
A0
A0
A0
20
00
40
40
ENDCHAR
STARTCHAR U+1FC3
ENCODING 8131
SWIDTH 250 0
DWIDTH 4 0
BBX 3 8 0 -4
BITMAP
C0
A0
A0
A0
20
00
40
40
ENDCHAR
STARTCHAR U+1FC4
ENCODING 8132
SWIDTH 250 0
DWIDTH 4 0
BBX 3 11 0 -4
BITMAP
20
40
00
C0
A0
A0
A0
20
00
40
40
ENDCHAR
STARTCHAR U+1FC6
ENCODING 8134
SWIDTH 250 0
DWIDTH 4 0
BBX 4 8 0 -1
BITMAP
50
A0
00
C0
A0
A0
A0
20
ENDCHAR
STARTCHAR U+1FC7
ENCODING 8135
SWIDTH 250 0
DWIDTH 4 0
BBX 4 11 0 -4
BITMAP
50
A0
00
C0
A0
A0
A0
20
00
40
40
ENDCHAR
STARTCHAR U+1FC8
ENCODING 8136
SWIDTH 500 0
DWIDTH 8 0
BBX 7 5 0 0
BITMAP
9E
50
1C
10
1E
ENDCHAR
STARTCHAR U+1FC9
ENCODING 8137
SWIDTH 500 0
DWIDTH 8 0
BBX 7 5 0 0
BITMAP
5E
90
1C
10
1E
ENDCHAR
STARTCHAR U+1FCA
ENCODING 8138
SWIDTH 500 0
DWIDTH 8 0
BBX 7 5 0 0
BITMAP
92
52
1E
12
12
ENDCHAR
STARTCHAR U+1FCB
ENCODING 8139
SWIDTH 500 0
DWIDTH 8 0
BBX 7 5 0 0
BITMAP
52
92
1E
12
12
ENDCHAR
STARTCHAR U+1FCC
ENCODING 8140
SWIDTH 312 0
DWIDTH 5 0
BBX 4 8 0 -3
BITMAP
90
90
F0
90
90
00
20
20
ENDCHAR
STARTCHAR U+1FCD
ENCODING 8141
SWIDTH 312 0
DWIDTH 5 0
BBX 4 2 0 3
BITMAP
A0
90
ENDCHAR
STARTCHAR U+1FCE
ENCODING 8142
SWIDTH 312 0
DWIDTH 5 0
BBX 4 2 0 3
BITMAP
90
A0
ENDCHAR
STARTCHAR U+1FCF
ENCODING 8143
SWIDTH 125 0
DWIDTH 2 0
BBX 4 5 -1 3
BITMAP
50
A0
00
40
40
ENDCHAR
STARTCHAR U+1FD0
ENCODING 8144
SWIDTH 187 0
DWIDTH 3 0
BBX 3 7 -1 0
BITMAP
A0
40
00
40
40
40
20
ENDCHAR
STARTCHAR U+1FD1
ENCODING 8145
SWIDTH 187 0
DWIDTH 3 0
BBX 3 6 -1 0
BITMAP
E0
00
40
40
40
20
ENDCHAR
STARTCHAR U+1FD2
ENCODING 8146
SWIDTH 187 0
DWIDTH 3 0
BBX 3 9 -1 0
BITMAP
80
40
00
A0
00
40
40
40
20
ENDCHAR
STARTCHAR U+1FD3
ENCODING 8147
SWIDTH 187 0
DWIDTH 3 0
BBX 3 9 -1 0
BITMAP
20
40
00
A0
00
40
40
40
20
ENDCHAR
STARTCHAR U+1FD6
ENCODING 8150
SWIDTH 187 0
DWIDTH 3 0
BBX 4 7 -1 0
BITMAP
50
A0
00
40
40
40
20
ENDCHAR
STARTCHAR U+1FD7
ENCODING 8151
SWIDTH 187 0
DWIDTH 3 0
BBX 4 9 -1 0
BITMAP
50
A0
00
A0
00
40
40
40
20
ENDCHAR
STARTCHAR U+1FD8
ENCODING 8152
SWIDTH 125 0
DWIDTH 2 0
BBX 3 8 -1 0
BITMAP
A0
40
00
40
40
40
40
40
ENDCHAR
STARTCHAR U+1FD9
ENCODING 8153
SWIDTH 125 0
DWIDTH 2 0
BBX 3 7 -1 0
BITMAP
E0
00
40
40
40
40
40
ENDCHAR
STARTCHAR U+1FDA
ENCODING 8154
SWIDTH 312 0
DWIDTH 5 0
BBX 4 5 0 0
BITMAP
90
50
10
10
10
ENDCHAR
STARTCHAR U+1FDB
ENCODING 8155
SWIDTH 312 0
DWIDTH 5 0
BBX 4 5 0 0
BITMAP
50
90
10
10
10
ENDCHAR
STARTCHAR U+1FDD
ENCODING 8157
SWIDTH 312 0
DWIDTH 5 0
BBX 4 2 0 3
BITMAP
A0
90
ENDCHAR
STARTCHAR U+1FDE
ENCODING 8158
SWIDTH 312 0
DWIDTH 5 0
BBX 4 2 0 3
BITMAP
90
A0
ENDCHAR
STARTCHAR U+1FDF
ENCODING 8159
SWIDTH 125 0
DWIDTH 2 0
BBX 4 5 -1 3
BITMAP
50
A0
00
40
40
ENDCHAR
STARTCHAR U+1FE0
ENCODING 8160
SWIDTH 250 0
DWIDTH 4 0
BBX 3 7 0 0
BITMAP
A0
40
00
A0
A0
A0
40
ENDCHAR
STARTCHAR U+1FE1
ENCODING 8161
SWIDTH 250 0
DWIDTH 4 0
BBX 3 6 0 0
BITMAP
E0
00
A0
A0
A0
40
ENDCHAR
STARTCHAR U+1FE2
ENCODING 8162
SWIDTH 250 0
DWIDTH 4 0
BBX 3 9 0 0
BITMAP
80
40
00
A0
00
A0
A0
A0
40
ENDCHAR
STARTCHAR U+1FE3
ENCODING 8163
SWIDTH 250 0
DWIDTH 4 0
BBX 3 9 0 0
BITMAP
20
40
00
A0
00
A0
A0
A0
40
ENDCHAR
STARTCHAR U+1FE4
ENCODING 8164
SWIDTH 250 0
DWIDTH 4 0
BBX 3 8 0 -1
BITMAP
40
40
00
40
A0
A0
C0
80
ENDCHAR
STARTCHAR U+1FE5
ENCODING 8165
SWIDTH 250 0
DWIDTH 4 0
BBX 3 8 0 -1
BITMAP
40
40
00
40
A0
A0
C0
80
ENDCHAR
STARTCHAR U+1FE6
ENCODING 8166
SWIDTH 250 0
DWIDTH 4 0
BBX 4 7 0 0
BITMAP
50
A0
00
A0
A0
A0
40
ENDCHAR
STARTCHAR U+1FE7
ENCODING 8167
SWIDTH 250 0
DWIDTH 4 0
BBX 4 9 0 0
BITMAP
50
A0
00
A0
00
A0
A0
A0
40
ENDCHAR
STARTCHAR U+1FE8
ENCODING 8168
SWIDTH 375 0
DWIDTH 6 0
BBX 5 8 0 0
BITMAP
50
20
00
88
50
20
20
20
ENDCHAR
STARTCHAR U+1FE9
ENCODING 8169
SWIDTH 375 0
DWIDTH 6 0
BBX 5 7 0 0
BITMAP
70
00
88
50
20
20
20
ENDCHAR
STARTCHAR U+1FEA
ENCODING 8170
SWIDTH 500 0
DWIDTH 8 0
BBX 7 5 0 0
BITMAP
A2
54
08
08
08
ENDCHAR
STARTCHAR U+1FEB
ENCODING 8171
SWIDTH 562 0
DWIDTH 9 0
BBX 8 5 0 0
BITMAP
51
8A
04
04
04
ENDCHAR
STARTCHAR U+1FEC
ENCODING 8172
SWIDTH 437 0
DWIDTH 7 0
BBX 6 5 0 0
BITMAP
B8
A4
38
20
20
ENDCHAR
STARTCHAR U+1FED
ENCODING 8173
SWIDTH 250 0
DWIDTH 4 0
BBX 3 4 0 4
BITMAP
80
40
00
A0
ENDCHAR
STARTCHAR U+1FEE
ENCODING 8174
SWIDTH 250 0
DWIDTH 4 0
BBX 3 4 0 4
BITMAP
20
40
00
A0
ENDCHAR
STARTCHAR U+1FEF
ENCODING 8175
SWIDTH 187 0
DWIDTH 3 0
BBX 2 2 0 3
BITMAP
80
40
ENDCHAR
STARTCHAR U+1FF2
ENCODING 8178
SWIDTH 375 0
DWIDTH 6 0
BBX 5 10 0 -3
BITMAP
40
20
00
88
A8
A8
50
00
20
20
ENDCHAR
STARTCHAR U+1FF3
ENCODING 8179
SWIDTH 375 0
DWIDTH 6 0
BBX 5 7 0 -3
BITMAP
88
A8
A8
50
00
20
20
ENDCHAR
STARTCHAR U+1FF4
ENCODING 8180
SWIDTH 375 0
DWIDTH 6 0
BBX 5 10 0 -3
BITMAP
10
20
00
88
A8
A8
50
00
20
20
ENDCHAR
STARTCHAR U+1FF6
ENCODING 8182
SWIDTH 375 0
DWIDTH 6 0
BBX 5 7 0 0
BITMAP
28
50
00
88
A8
A8
50
ENDCHAR
STARTCHAR U+1FF7
ENCODING 8183
SWIDTH 375 0
DWIDTH 6 0
BBX 5 10 0 -3
BITMAP
28
50
00
88
A8
A8
50
00
20
20
ENDCHAR
STARTCHAR U+1FF8
ENCODING 8184
SWIDTH 500 0
DWIDTH 8 0
BBX 7 5 0 0
BITMAP
8C
52
12
12
0C
ENDCHAR
STARTCHAR U+1FF9
ENCODING 8185
SWIDTH 437 0
DWIDTH 7 0
BBX 6 5 0 0
BITMAP
58
A4
24
24
18
ENDCHAR
STARTCHAR U+1FFA
ENCODING 8186
SWIDTH 562 0
DWIDTH 9 0
BBX 8 5 0 0
BITMAP
8E
51
11
0A
1B
ENDCHAR
STARTCHAR U+1FFB
ENCODING 8187
SWIDTH 500 0
DWIDTH 8 0
BBX 7 5 0 0
BITMAP
5C
A2
22
14
36
ENDCHAR
STARTCHAR U+1FFC
ENCODING 8188
SWIDTH 375 0
DWIDTH 6 0
BBX 5 8 0 -3
BITMAP
70
88
88
50
D8
00
20
20
ENDCHAR
STARTCHAR U+1FFD
ENCODING 8189
SWIDTH 187 0
DWIDTH 3 0
BBX 2 2 0 3
BITMAP
40
80
ENDCHAR
STARTCHAR U+1FFE
ENCODING 8190
SWIDTH 125 0
DWIDTH 2 0
BBX 1 2 0 3
BITMAP
80
80
ENDCHAR
STARTCHAR U+2010
ENCODING 8208
SWIDTH 250 0
DWIDTH 4 0
BBX 3 1 0 2
BITMAP
E0
ENDCHAR
STARTCHAR U+2012
ENCODING 8210
SWIDTH 250 0
DWIDTH 4 0
BBX 3 1 0 2
BITMAP
E0
ENDCHAR
STARTCHAR U+2013
ENCODING 8211
SWIDTH 312 0
DWIDTH 5 0
BBX 4 1 0 2
BITMAP
F0
ENDCHAR
STARTCHAR U+2014
ENCODING 8212
SWIDTH 375 0
DWIDTH 6 0
BBX 5 1 0 2
BITMAP
F8
ENDCHAR
STARTCHAR U+2016
ENCODING 8214
SWIDTH 250 0
DWIDTH 4 0
BBX 3 5 0 0
BITMAP
A0
A0
A0
A0
A0
ENDCHAR
STARTCHAR U+2018
ENCODING 8216
SWIDTH 125 0
DWIDTH 2 0
BBX 1 2 0 3
BITMAP
80
80
ENDCHAR
STARTCHAR U+2019
ENCODING 8217
SWIDTH 125 0
DWIDTH 2 0
BBX 1 2 0 3
BITMAP
80
80
ENDCHAR
STARTCHAR U+201A
ENCODING 8218
SWIDTH 125 0
DWIDTH 2 0
BBX 1 2 0 -1
BITMAP
80
80
ENDCHAR
STARTCHAR U+201C
ENCODING 8220
SWIDTH 250 0
DWIDTH 4 0
BBX 3 2 0 3
BITMAP
A0
A0
ENDCHAR
STARTCHAR U+201D
ENCODING 8221
SWIDTH 250 0
DWIDTH 4 0
BBX 3 2 0 3
BITMAP
A0
A0
ENDCHAR
STARTCHAR U+201E
ENCODING 8222
SWIDTH 250 0
DWIDTH 4 0
BBX 3 2 0 -1
BITMAP
A0
A0
ENDCHAR
STARTCHAR U+2020
ENCODING 8224
SWIDTH 250 0
DWIDTH 4 0
BBX 3 5 0 0
BITMAP
40
E0
40
40
40
ENDCHAR
STARTCHAR U+2021
ENCODING 8225
SWIDTH 250 0
DWIDTH 4 0
BBX 3 5 0 0
BITMAP
40
E0
40
E0
40
ENDCHAR
STARTCHAR U+2022
ENCODING 8226
SWIDTH 187 0
DWIDTH 3 0
BBX 2 2 0 2
BITMAP
C0
C0
ENDCHAR
STARTCHAR U+2026
ENCODING 8230
SWIDTH 375 0
DWIDTH 6 0
BBX 5 1 0 0
BITMAP
A8
ENDCHAR
STARTCHAR U+2028
ENCODING 8232
SWIDTH 0 0
DWIDTH 0 0
BBX 0 0 0 0
BITMAP
ENDCHAR
STARTCHAR U+2029
ENCODING 8233
SWIDTH 0 0
DWIDTH 0 0
BBX 0 0 0 0
BITMAP
ENDCHAR
STARTCHAR U+2030
ENCODING 8240
SWIDTH 437 0
DWIDTH 7 0
BBX 6 4 0 0
BITMAP
90
20
40
94
ENDCHAR
STARTCHAR U+2032
ENCODING 8242
SWIDTH 125 0
DWIDTH 2 0
BBX 1 2 0 3
BITMAP
80
80
ENDCHAR
STARTCHAR U+2033
ENCODING 8243
SWIDTH 250 0
DWIDTH 4 0
BBX 3 2 0 3
BITMAP
A0
A0
ENDCHAR
STARTCHAR U+2035
ENCODING 8245
SWIDTH 125 0
DWIDTH 2 0
BBX 1 2 0 3
BITMAP
80
80
ENDCHAR
STARTCHAR U+2036
ENCODING 8246
SWIDTH 250 0
DWIDTH 4 0
BBX 3 2 0 3
BITMAP
A0
A0
ENDCHAR
STARTCHAR U+2039
ENCODING 8249
SWIDTH 187 0
DWIDTH 3 0
BBX 2 3 0 1
BITMAP
40
80
40
ENDCHAR
STARTCHAR U+203A
ENCODING 8250
SWIDTH 187 0
DWIDTH 3 0
BBX 2 3 0 1
BITMAP
80
40
80
ENDCHAR
STARTCHAR U+203B
ENCODING 8251
SWIDTH 375 0
DWIDTH 6 0
BBX 5 5 0 0
BITMAP
A8
50
A8
50
A8
ENDCHAR
STARTCHAR U+203F
ENCODING 8255
SWIDTH 375 0
DWIDTH 6 0
BBX 5 2 0 -1
BITMAP
88
70
ENDCHAR
STARTCHAR U+2042
ENCODING 8258
SWIDTH 437 0
DWIDTH 7 0
BBX 6 5 0 0
BITMAP
30
30
00
CC
CC
ENDCHAR
STARTCHAR U+2044
ENCODING 8260
SWIDTH 187 0
DWIDTH 3 0
BBX 2 5 0 0
BITMAP
40
40
80
80
80
ENDCHAR
STARTCHAR U+2056
ENCODING 8278
SWIDTH 250 0
DWIDTH 4 0
BBX 3 3 0 1
BITMAP
20
80
20
ENDCHAR
STARTCHAR U+2058
ENCODING 8280
SWIDTH 250 0
DWIDTH 4 0
BBX 3 3 0 1
BITMAP
40
A0
40
ENDCHAR
STARTCHAR U+2059
ENCODING 8281
SWIDTH 250 0
DWIDTH 4 0
BBX 3 3 0 1
BITMAP
A0
40
A0
ENDCHAR
STARTCHAR U+205A
ENCODING 8282
SWIDTH 125 0
DWIDTH 2 0
BBX 1 5 0 0
BITMAP
80
00
00
00
80
ENDCHAR
STARTCHAR U+205B
ENCODING 8283
SWIDTH 375 0
DWIDTH 6 0
BBX 5 5 0 0
BITMAP
20
00
88
00
20
ENDCHAR
STARTCHAR U+205C
ENCODING 8284
SWIDTH 375 0
DWIDTH 6 0
BBX 5 5 0 0
BITMAP
A8
20
F8
20
A8
ENDCHAR
STARTCHAR U+205D
ENCODING 8285
SWIDTH 125 0
DWIDTH 2 0
BBX 1 5 0 0
BITMAP
80
00
80
00
80
ENDCHAR
STARTCHAR U+205E
ENCODING 8286
SWIDTH 125 0
DWIDTH 2 0
BBX 1 7 0 -1
BITMAP
80
00
80
00
80
00
80
ENDCHAR
STARTCHAR U+2071
ENCODING 8305
SWIDTH 125 0
DWIDTH 2 0
BBX 1 3 0 2
BITMAP
80
80
80
ENDCHAR
STARTCHAR U+2074
ENCODING 8308
SWIDTH 250 0
DWIDTH 4 0
BBX 3 4 0 1
BITMAP
20
60
E0
20
ENDCHAR
STARTCHAR U+2075
ENCODING 8309
SWIDTH 250 0
DWIDTH 4 0
BBX 3 4 0 1
BITMAP
E0
C0
20
C0
ENDCHAR
STARTCHAR U+2076
ENCODING 8310
SWIDTH 250 0
DWIDTH 4 0
BBX 3 4 0 1
BITMAP
60
C0
A0
40
ENDCHAR
STARTCHAR U+2077
ENCODING 8311
SWIDTH 250 0
DWIDTH 4 0
BBX 3 4 0 1
BITMAP
E0
20
40
40
ENDCHAR
STARTCHAR U+2078
ENCODING 8312
SWIDTH 250 0
DWIDTH 4 0
BBX 3 4 0 1
BITMAP
40
E0
A0
40
ENDCHAR
STARTCHAR U+2079
ENCODING 8313
SWIDTH 250 0
DWIDTH 4 0
BBX 3 4 0 1
BITMAP
40
A0
60
C0
ENDCHAR
STARTCHAR U+207A
ENCODING 8314
SWIDTH 250 0
DWIDTH 4 0
BBX 3 3 0 2
BITMAP
40
E0
40
ENDCHAR
STARTCHAR U+207B
ENCODING 8315
SWIDTH 250 0
DWIDTH 4 0
BBX 3 1 0 3
BITMAP
E0
ENDCHAR
STARTCHAR U+207C
ENCODING 8316
SWIDTH 250 0
DWIDTH 4 0
BBX 3 3 0 2
BITMAP
E0
00
E0
ENDCHAR
STARTCHAR U+207F
ENCODING 8319
SWIDTH 250 0
DWIDTH 4 0
BBX 3 3 0 2
BITMAP
C0
A0
A0
ENDCHAR
STARTCHAR U+2081
ENCODING 8321
SWIDTH 187 0
DWIDTH 3 0
BBX 2 4 0 -1
BITMAP
40
C0
40
40
ENDCHAR
STARTCHAR U+2082
ENCODING 8322
SWIDTH 250 0
DWIDTH 4 0
BBX 3 4 0 -1
BITMAP
C0
20
40
E0
ENDCHAR
STARTCHAR U+2083
ENCODING 8323
SWIDTH 250 0
DWIDTH 4 0
BBX 3 4 0 -1
BITMAP
E0
40
20
C0
ENDCHAR
STARTCHAR U+2084
ENCODING 8324
SWIDTH 250 0
DWIDTH 4 0
BBX 3 4 0 -1
BITMAP
20
60
E0
20
ENDCHAR
STARTCHAR U+2085
ENCODING 8325
SWIDTH 250 0
DWIDTH 4 0
BBX 3 4 0 -1
BITMAP
E0
C0
20
C0
ENDCHAR
STARTCHAR U+2086
ENCODING 8326
SWIDTH 250 0
DWIDTH 4 0
BBX 3 4 0 -1
BITMAP
60
C0
A0
40
ENDCHAR
STARTCHAR U+2087
ENCODING 8327
SWIDTH 250 0
DWIDTH 4 0
BBX 3 4 0 -1
BITMAP
E0
20
40
40
ENDCHAR
STARTCHAR U+2088
ENCODING 8328
SWIDTH 250 0
DWIDTH 4 0
BBX 3 4 0 -1
BITMAP
40
E0
A0
40
ENDCHAR
STARTCHAR U+2089
ENCODING 8329
SWIDTH 250 0
DWIDTH 4 0
BBX 3 4 0 -1
BITMAP
40
A0
60
C0
ENDCHAR
STARTCHAR U+208A
ENCODING 8330
SWIDTH 250 0
DWIDTH 4 0
BBX 3 3 0 -1
BITMAP
40
E0
40
ENDCHAR
STARTCHAR U+208B
ENCODING 8331
SWIDTH 250 0
DWIDTH 4 0
BBX 3 1 0 0
BITMAP
E0
ENDCHAR
STARTCHAR U+208C
ENCODING 8332
SWIDTH 250 0
DWIDTH 4 0
BBX 3 3 0 -1
BITMAP
E0
00
E0
ENDCHAR
STARTCHAR U+20A1
ENCODING 8353
SWIDTH 312 0
DWIDTH 5 0
BBX 4 7 0 -1
BITMAP
20
60
90
80
90
60
40
ENDCHAR
STARTCHAR U+20A6
ENCODING 8358
SWIDTH 437 0
DWIDTH 7 0
BBX 6 5 0 0
BITMAP
48
68
FC
48
48
ENDCHAR
STARTCHAR U+20A8
ENCODING 8360
SWIDTH 562 0
DWIDTH 9 0
BBX 8 5 0 0
BITMAP
E0
93
E6
91
96
ENDCHAR
STARTCHAR U+20A9
ENCODING 8361
SWIDTH 500 0
DWIDTH 8 0
BBX 7 5 0 0
BITMAP
54
54
FE
28
28
ENDCHAR
STARTCHAR U+20AA
ENCODING 8362
SWIDTH 500 0
DWIDTH 8 0
BBX 7 5 0 0
BITMAP
F2
8A
AA
A2
BC
ENDCHAR
STARTCHAR U+20AB
ENCODING 8363
SWIDTH 250 0
DWIDTH 4 0
BBX 3 6 0 -1
BITMAP
20
60
A0
60
00
E0
ENDCHAR
STARTCHAR U+20AC
ENCODING 8364
SWIDTH 375 0
DWIDTH 6 0
BBX 5 5 0 0
BITMAP
30
68
E0
48
30
ENDCHAR
STARTCHAR U+20AD
ENCODING 8365
SWIDTH 375 0
DWIDTH 6 0
BBX 5 5 0 0
BITMAP
48
50
F8
50
48
ENDCHAR
STARTCHAR U+20AE
ENCODING 8366
SWIDTH 250 0
DWIDTH 4 0
BBX 3 5 0 0
BITMAP
E0
40
E0
40
40
ENDCHAR
STARTCHAR U+20B1
ENCODING 8369
SWIDTH 375 0
DWIDTH 6 0
BBX 5 5 0 0
BITMAP
70
C8
70
40
40
ENDCHAR
STARTCHAR U+20B2
ENCODING 8370
SWIDTH 312 0
DWIDTH 5 0
BBX 4 7 0 -1
BITMAP
20
70
80
B0
90
70
20
ENDCHAR
STARTCHAR U+20B4
ENCODING 8372
SWIDTH 312 0
DWIDTH 5 0
BBX 4 5 0 0
BITMAP
E0
10
F0
80
70
ENDCHAR
STARTCHAR U+20B5
ENCODING 8373
SWIDTH 312 0
DWIDTH 5 0
BBX 4 7 0 -1
BITMAP
20
60
90
80
90
60
20
ENDCHAR
STARTCHAR U+20B8
ENCODING 8376
SWIDTH 250 0
DWIDTH 4 0
BBX 3 5 0 0
BITMAP
E0
00
E0
40
40
ENDCHAR
STARTCHAR U+20B9
ENCODING 8377
SWIDTH 250 0
DWIDTH 4 0
BBX 3 5 0 0
BITMAP
C0
20
C0
20
20
ENDCHAR
STARTCHAR U+20BA
ENCODING 8378
SWIDTH 375 0
DWIDTH 6 0
BBX 5 5 0 0
BITMAP
40
60
C0
48
70
ENDCHAR
STARTCHAR U+20BC
ENCODING 8380
SWIDTH 375 0
DWIDTH 6 0
BBX 5 5 0 0
BITMAP
20
70
A8
A8
A8
ENDCHAR
STARTCHAR U+20BD
ENCODING 8381
SWIDTH 312 0
DWIDTH 5 0
BBX 5 5 0 0
BITMAP
70
48
70
E0
40
ENDCHAR
STARTCHAR U+20BE
ENCODING 8382
SWIDTH 312 0
DWIDTH 5 0
BBX 4 5 0 0
BITMAP
60
F0
80
40
F0
ENDCHAR
STARTCHAR U+20BF
ENCODING 8383
SWIDTH 312 0
DWIDTH 5 0
BBX 4 7 0 -1
BITMAP
40
E0
90
E0
90
E0
40
ENDCHAR
STARTCHAR U+2113
ENCODING 8467
SWIDTH 187 0
DWIDTH 3 0
BBX 2 5 0 0
BITMAP
80
80
80
80
40
ENDCHAR
STARTCHAR U+2116
ENCODING 8470
SWIDTH 562 0
DWIDTH 9 0
BBX 8 5 0 0
BITMAP
92
D5
B2
90
90
ENDCHAR
STARTCHAR U+2122
ENCODING 8482
SWIDTH 437 0
DWIDTH 7 0
BBX 6 3 0 2
BITMAP
FC
5C
54
ENDCHAR
STARTCHAR U+2126
ENCODING 8486
SWIDTH 375 0
DWIDTH 6 0
BBX 5 5 0 0
BITMAP
70
88
88
50
D8
ENDCHAR
STARTCHAR U+212E
ENCODING 8494
SWIDTH 312 0
DWIDTH 5 0
BBX 4 4 0 0
BITMAP
60
F0
80
70
ENDCHAR
STARTCHAR U+2135
ENCODING 8501
SWIDTH 312 0
DWIDTH 5 0
BBX 4 5 0 0
BITMAP
90
50
A0
90
90
ENDCHAR
STARTCHAR U+2136
ENCODING 8502
SWIDTH 312 0
DWIDTH 5 0
BBX 4 5 0 0
BITMAP
C0
20
20
20
F0
ENDCHAR
STARTCHAR U+2144
ENCODING 8516
SWIDTH 375 0
DWIDTH 6 0
BBX 5 5 0 0
BITMAP
20
20
20
50
88
ENDCHAR
STARTCHAR U+2153
ENCODING 8531
SWIDTH 625 0
DWIDTH 10 0
BBX 9 5 0 0
BITMAP
4800
CB80
5100
5080
0300
ENDCHAR
STARTCHAR U+2154
ENCODING 8532
SWIDTH 687 0
DWIDTH 11 0
BBX 10 5 0 0
BITMAP
C400
25C0
4880
E840
0180
ENDCHAR
STARTCHAR U+2190
ENCODING 8592
SWIDTH 375 0
DWIDTH 6 0
BBX 5 5 0 0
BITMAP
20
60
F8
60
20
ENDCHAR
STARTCHAR U+2191
ENCODING 8593
SWIDTH 375 0
DWIDTH 6 0
BBX 5 5 0 0
BITMAP
20
70
F8
20
20
ENDCHAR
STARTCHAR U+2192
ENCODING 8594
SWIDTH 375 0
DWIDTH 6 0
BBX 5 5 0 0
BITMAP
20
30
F8
30
20
ENDCHAR
STARTCHAR U+2193
ENCODING 8595
SWIDTH 375 0
DWIDTH 6 0
BBX 5 5 0 0
BITMAP
20
20
F8
70
20
ENDCHAR
STARTCHAR U+2194
ENCODING 8596
SWIDTH 500 0
DWIDTH 8 0
BBX 7 5 0 0
BITMAP
28
6C
FE
6C
28
ENDCHAR
STARTCHAR U+2195
ENCODING 8597
SWIDTH 375 0
DWIDTH 6 0
BBX 5 7 0 -1
BITMAP
20
70
F8
20
F8
70
20
ENDCHAR
STARTCHAR U+2196
ENCODING 8598
SWIDTH 375 0
DWIDTH 6 0
BBX 5 5 0 0
BITMAP
E0
C0
A0
10
08
ENDCHAR
STARTCHAR U+2197
ENCODING 8599
SWIDTH 375 0
DWIDTH 6 0
BBX 5 5 0 0
BITMAP
38
18
28
40
80
ENDCHAR
STARTCHAR U+2198
ENCODING 8600
SWIDTH 375 0
DWIDTH 6 0
BBX 5 5 0 0
BITMAP
80
40
28
18
38
ENDCHAR
STARTCHAR U+2199
ENCODING 8601
SWIDTH 375 0
DWIDTH 6 0
BBX 5 5 0 0
BITMAP
08
10
A0
C0
E0
ENDCHAR
STARTCHAR U+2202
ENCODING 8706
SWIDTH 250 0
DWIDTH 4 0
BBX 3 5 0 0
BITMAP
40
20
60
A0
40
ENDCHAR
STARTCHAR U+2205
ENCODING 8709
SWIDTH 375 0
DWIDTH 6 0
BBX 5 5 0 0
BITMAP
70
98
A8
C8
70
ENDCHAR
STARTCHAR U+2206
ENCODING 8710
SWIDTH 375 0
DWIDTH 6 0
BBX 5 5 0 0
BITMAP
20
20
50
50
F8
ENDCHAR
STARTCHAR U+220F
ENCODING 8719
SWIDTH 312 0
DWIDTH 5 0
BBX 4 6 0 -1
BITMAP
F0
90
90
90
90
90
ENDCHAR
STARTCHAR U+2211
ENCODING 8721
SWIDTH 312 0
DWIDTH 5 0
BBX 4 6 0 -1
BITMAP
F0
40
20
40
80
F0
ENDCHAR
STARTCHAR U+2212
ENCODING 8722
SWIDTH 250 0
DWIDTH 4 0
BBX 3 1 0 2
BITMAP
E0
ENDCHAR
STARTCHAR U+221A
ENCODING 8730
SWIDTH 312 0
DWIDTH 5 0
BBX 4 6 0 0
BITMAP
70
40
40
40
C0
40
ENDCHAR
STARTCHAR U+221E
ENCODING 8734
SWIDTH 375 0
DWIDTH 6 0
BBX 5 3 0 1
BITMAP
50
A8
50
ENDCHAR
STARTCHAR U+222B
ENCODING 8747
SWIDTH 250 0
DWIDTH 4 0
BBX 3 7 0 -1
BITMAP
20
40
40
40
40
40
80
ENDCHAR
STARTCHAR U+2248
ENCODING 8776
SWIDTH 312 0
DWIDTH 5 0
BBX 4 5 0 0
BITMAP
50
A0
00
50
A0
ENDCHAR
STARTCHAR U+2260
ENCODING 8800
SWIDTH 250 0
DWIDTH 4 0
BBX 3 5 0 0
BITMAP
20
E0
40
E0
80
ENDCHAR
STARTCHAR U+2264
ENCODING 8804
SWIDTH 250 0
DWIDTH 4 0
BBX 3 7 0 -1
BITMAP
20
40
80
40
20
00
E0
ENDCHAR
STARTCHAR U+2265
ENCODING 8805
SWIDTH 250 0
DWIDTH 4 0
BBX 3 7 0 -1
BITMAP
80
40
20
40
80
00
E0
ENDCHAR
STARTCHAR U+23D1
ENCODING 9169
SWIDTH 250 0
DWIDTH 4 0
BBX 3 2 0 1
BITMAP
A0
40
ENDCHAR
STARTCHAR U+23D2
ENCODING 9170
SWIDTH 250 0
DWIDTH 4 0
BBX 3 4 0 0
BITMAP
E0
00
A0
40
ENDCHAR
STARTCHAR U+23D3
ENCODING 9171
SWIDTH 250 0
DWIDTH 4 0
BBX 3 4 0 0
BITMAP
A0
40
00
E0
ENDCHAR
STARTCHAR U+23D4
ENCODING 9172
SWIDTH 375 0
DWIDTH 6 0
BBX 5 4 0 0
BITMAP
F8
00
A8
50
ENDCHAR
STARTCHAR U+23D5
ENCODING 9173
SWIDTH 375 0
DWIDTH 6 0
BBX 5 4 0 0
BITMAP
A8
50
00
F8
ENDCHAR
STARTCHAR U+23D6
ENCODING 9174
SWIDTH 375 0
DWIDTH 6 0
BBX 5 2 0 1
BITMAP
A8
50
ENDCHAR
STARTCHAR U+23D7
ENCODING 9175
SWIDTH 375 0
DWIDTH 6 0
BBX 5 3 0 1
BITMAP
08
08
F8
ENDCHAR
STARTCHAR U+23D8
ENCODING 9176
SWIDTH 375 0
DWIDTH 6 0
BBX 5 3 0 1
BITMAP
08
88
F8
ENDCHAR
STARTCHAR U+23D9
ENCODING 9177
SWIDTH 375 0
DWIDTH 6 0
BBX 5 3 0 1
BITMAP
08
A8
F8
ENDCHAR
STARTCHAR U+24B6
ENCODING 9398
SWIDTH 500 0
DWIDTH 8 0
BBX 7 7 0 -1
BITMAP
38
44
92
BA
AA
44
38
ENDCHAR
STARTCHAR U+24B9
ENCODING 9401
SWIDTH 500 0
DWIDTH 8 0
BBX 7 7 0 -1
BITMAP
38
44
B2
AA
B2
44
38
ENDCHAR
STARTCHAR U+24D0
ENCODING 9424
SWIDTH 500 0
DWIDTH 8 0
BBX 7 7 0 -1
BITMAP
38
44
9A
AA
9A
44
38
ENDCHAR
STARTCHAR U+25A0
ENCODING 9632
SWIDTH 312 0
DWIDTH 5 0
BBX 4 4 0 0
BITMAP
F0
F0
F0
F0
ENDCHAR
STARTCHAR U+25A1
ENCODING 9633
SWIDTH 312 0
DWIDTH 5 0
BBX 4 4 0 0
BITMAP
F0
90
90
F0
ENDCHAR
STARTCHAR U+25AA
ENCODING 9642
SWIDTH 250 0
DWIDTH 4 0
BBX 3 3 0 1
BITMAP
E0
E0
E0
ENDCHAR
STARTCHAR U+25AB
ENCODING 9643
SWIDTH 250 0
DWIDTH 4 0
BBX 3 3 0 1
BITMAP
E0
A0
E0
ENDCHAR
STARTCHAR U+25B2
ENCODING 9650
SWIDTH 375 0
DWIDTH 6 0
BBX 5 3 0 1
BITMAP
20
70
F8
ENDCHAR
STARTCHAR U+25B3
ENCODING 9651
SWIDTH 375 0
DWIDTH 6 0
BBX 5 3 0 1
BITMAP
20
50
F8
ENDCHAR
STARTCHAR U+25B4
ENCODING 9652
SWIDTH 250 0
DWIDTH 4 0
BBX 3 2 0 2
BITMAP
40
E0
ENDCHAR
STARTCHAR U+25B5
ENCODING 9653
SWIDTH 250 0
DWIDTH 4 0
BBX 3 2 0 2
BITMAP
40
A0
ENDCHAR
STARTCHAR U+25B6
ENCODING 9654
SWIDTH 250 0
DWIDTH 4 0
BBX 3 5 0 0
BITMAP
80
C0
E0
C0
80
ENDCHAR
STARTCHAR U+25B7
ENCODING 9655
SWIDTH 250 0
DWIDTH 4 0
BBX 3 5 0 0
BITMAP
80
C0
A0
C0
80
ENDCHAR
STARTCHAR U+25B8
ENCODING 9656
SWIDTH 187 0
DWIDTH 3 0
BBX 2 3 0 1
BITMAP
80
C0
80
ENDCHAR
STARTCHAR U+25B9
ENCODING 9657
SWIDTH 187 0
DWIDTH 3 0
BBX 2 3 0 1
BITMAP
80
40
80
ENDCHAR
STARTCHAR U+25BC
ENCODING 9660
SWIDTH 375 0
DWIDTH 6 0
BBX 5 3 0 1
BITMAP
F8
70
20
ENDCHAR
STARTCHAR U+25BD
ENCODING 9661
SWIDTH 375 0
DWIDTH 6 0
BBX 5 3 0 1
BITMAP
F8
50
20
ENDCHAR
STARTCHAR U+25BE
ENCODING 9662
SWIDTH 250 0
DWIDTH 4 0
BBX 3 2 0 2
BITMAP
E0
40
ENDCHAR
STARTCHAR U+25BF
ENCODING 9663
SWIDTH 250 0
DWIDTH 4 0
BBX 3 2 0 2
BITMAP
A0
40
ENDCHAR
STARTCHAR U+25C0
ENCODING 9664
SWIDTH 250 0
DWIDTH 4 0
BBX 3 5 0 0
BITMAP
20
60
E0
60
20
ENDCHAR
STARTCHAR U+25C1
ENCODING 9665
SWIDTH 250 0
DWIDTH 4 0
BBX 3 5 0 0
BITMAP
20
60
A0
60
20
ENDCHAR
STARTCHAR U+25C2
ENCODING 9666
SWIDTH 187 0
DWIDTH 3 0
BBX 2 3 0 1
BITMAP
40
C0
40
ENDCHAR
STARTCHAR U+25C3
ENCODING 9667
SWIDTH 187 0
DWIDTH 3 0
BBX 2 3 0 1
BITMAP
40
80
40
ENDCHAR
STARTCHAR U+25C6
ENCODING 9670
SWIDTH 375 0
DWIDTH 6 0
BBX 5 5 0 0
BITMAP
20
70
F8
70
20
ENDCHAR
STARTCHAR U+25C7
ENCODING 9671
SWIDTH 375 0
DWIDTH 6 0
BBX 5 5 0 0
BITMAP
20
50
88
50
20
ENDCHAR
STARTCHAR U+25CA
ENCODING 9674
SWIDTH 250 0
DWIDTH 4 0
BBX 3 5 0 0
BITMAP
40
40
A0
40
40
ENDCHAR
STARTCHAR U+25CB
ENCODING 9675
SWIDTH 312 0
DWIDTH 5 0
BBX 4 4 0 0
BITMAP
60
90
90
60
ENDCHAR
STARTCHAR U+25CC
ENCODING 9676
SWIDTH 312 0
DWIDTH 5 0
BBX 4 4 0 0
BITMAP
20
80
10
40
ENDCHAR
STARTCHAR U+25CF
ENCODING 9679
SWIDTH 312 0
DWIDTH 5 0
BBX 4 4 0 0
BITMAP
60
F0
F0
60
ENDCHAR
STARTCHAR U+25E6
ENCODING 9702
SWIDTH 187 0
DWIDTH 3 0
BBX 2 2 0 2
BITMAP
C0
C0
ENDCHAR
STARTCHAR U+27E8
ENCODING 10216
SWIDTH 187 0
DWIDTH 3 0
BBX 2 5 0 0
BITMAP
40
40
80
40
40
ENDCHAR
STARTCHAR U+27E9
ENCODING 10217
SWIDTH 187 0
DWIDTH 3 0
BBX 2 5 0 0
BITMAP
80
80
40
80
80
ENDCHAR
STARTCHAR U+2AFD
ENCODING 11005
SWIDTH 312 0
DWIDTH 5 0
BBX 4 5 0 0
BITMAP
50
50
A0
A0
A0
ENDCHAR
STARTCHAR U+2C60
ENCODING 11360
SWIDTH 375 0
DWIDTH 6 0
BBX 5 5 0 0
BITMAP
40
E0
E0
40
78
ENDCHAR
STARTCHAR U+2C61
ENCODING 11361
SWIDTH 250 0
DWIDTH 4 0
BBX 3 5 0 0
BITMAP
40
E0
E0
40
40
ENDCHAR
STARTCHAR U+2C62
ENCODING 11362
SWIDTH 375 0
DWIDTH 6 0
BBX 5 5 0 0
BITMAP
40
40
E0
40
78
ENDCHAR
STARTCHAR U+2C63
ENCODING 11363
SWIDTH 375 0
DWIDTH 6 0
BBX 5 5 0 0
BITMAP
70
C8
70
40
40
ENDCHAR
STARTCHAR U+2C64
ENCODING 11364
SWIDTH 312 0
DWIDTH 5 0
BBX 4 7 0 -2
BITMAP
E0
90
E0
90
90
80
40
ENDCHAR
STARTCHAR U+2C65
ENCODING 11365
SWIDTH 312 0
DWIDTH 5 0
BBX 4 6 0 -1
BITMAP
10
60
A0
A0
60
80
ENDCHAR
STARTCHAR U+2C66
ENCODING 11366
SWIDTH 250 0
DWIDTH 4 0
BBX 3 6 0 -1
BITMAP
A0
C0
80
80
40
80
ENDCHAR
STARTCHAR U+2C6D
ENCODING 11373
SWIDTH 312 0
DWIDTH 5 0
BBX 4 5 0 0
BITMAP
70
90
90
90
70
ENDCHAR
STARTCHAR U+2C6F
ENCODING 11375
SWIDTH 312 0
DWIDTH 5 0
BBX 4 5 0 0
BITMAP
90
90
F0
90
60
ENDCHAR
STARTCHAR U+2C72
ENCODING 11378
SWIDTH 437 0
DWIDTH 7 0
BBX 6 5 0 0
BITMAP
AC
A8
A8
50
50
ENDCHAR
STARTCHAR U+2C73
ENCODING 11379
SWIDTH 437 0
DWIDTH 7 0
BBX 6 4 0 0
BITMAP
AC
A8
50
50
ENDCHAR
STARTCHAR U+2E00
ENCODING 11776
SWIDTH 187 0
DWIDTH 3 0
BBX 2 3 0 2
BITMAP
C0
80
80
ENDCHAR
STARTCHAR U+2E01
ENCODING 11777
SWIDTH 312 0
DWIDTH 5 0
BBX 4 3 0 2
BITMAP
C0
90
80
ENDCHAR
STARTCHAR U+2E02
ENCODING 11778
SWIDTH 187 0
DWIDTH 3 0
BBX 2 3 0 2
BITMAP
40
80
80
ENDCHAR
STARTCHAR U+2E03
ENCODING 11779
SWIDTH 187 0
DWIDTH 3 0
BBX 2 3 0 2
BITMAP
80
40
40
ENDCHAR
STARTCHAR U+2E04
ENCODING 11780
SWIDTH 312 0
DWIDTH 5 0
BBX 4 3 0 2
BITMAP
40
90
80
ENDCHAR
STARTCHAR U+2E05
ENCODING 11781
SWIDTH 312 0
DWIDTH 5 0
BBX 4 3 0 2
BITMAP
20
90
10
ENDCHAR
STARTCHAR U+2E06
ENCODING 11782
SWIDTH 250 0
DWIDTH 4 0
BBX 3 3 0 2
BITMAP
E0
40
40
ENDCHAR
STARTCHAR U+2E07
ENCODING 11783
SWIDTH 375 0
DWIDTH 6 0
BBX 5 3 0 2
BITMAP
E0
48
40
ENDCHAR
STARTCHAR U+2E08
ENCODING 11784
SWIDTH 375 0
DWIDTH 6 0
BBX 5 3 0 2
BITMAP
60
48
C0
ENDCHAR
STARTCHAR U+2E09
ENCODING 11785
SWIDTH 250 0
DWIDTH 4 0
BBX 3 3 0 2
BITMAP
60
40
C0
ENDCHAR
STARTCHAR U+2E0A
ENCODING 11786
SWIDTH 250 0
DWIDTH 4 0
BBX 3 3 0 2
BITMAP
C0
40
60
ENDCHAR
STARTCHAR U+2E0B
ENCODING 11787
SWIDTH 250 0
DWIDTH 4 0
BBX 3 3 0 2
BITMAP
E0
A0
A0
ENDCHAR
STARTCHAR U+2E0C
ENCODING 11788
SWIDTH 250 0
DWIDTH 4 0
BBX 3 3 0 2
BITMAP
80
40
20
ENDCHAR
STARTCHAR U+2E0D
ENCODING 11789
SWIDTH 250 0
DWIDTH 4 0
BBX 3 3 0 2
BITMAP
20
40
80
ENDCHAR
STARTCHAR U+2E0E
ENCODING 11790
SWIDTH 375 0
DWIDTH 6 0
BBX 5 5 0 0
BITMAP
20
50
F8
50
20
ENDCHAR
STARTCHAR U+2E0F
ENCODING 11791
SWIDTH 375 0
DWIDTH 6 0
BBX 5 1 0 -2
BITMAP
F8
ENDCHAR
STARTCHAR U+2E10
ENCODING 11792
SWIDTH 375 0
DWIDTH 6 0
BBX 5 1 0 -2
BITMAP
F8
ENDCHAR
STARTCHAR U+2E11
ENCODING 11793
SWIDTH 375 0
DWIDTH 6 0
BBX 5 1 0 -2
BITMAP
F8
ENDCHAR
STARTCHAR U+2E12
ENCODING 11794
SWIDTH 187 0
DWIDTH 3 0
BBX 2 3 0 0
BITMAP
80
40
80
ENDCHAR
STARTCHAR U+2E13
ENCODING 11795
SWIDTH 250 0
DWIDTH 4 0
BBX 3 5 0 0
BITMAP
20
A0
40
A0
80
ENDCHAR
STARTCHAR U+2E14
ENCODING 11796
SWIDTH 250 0
DWIDTH 4 0
BBX 3 4 0 0
BITMAP
20
20
C0
60
ENDCHAR
STARTCHAR U+2E15
ENCODING 11797
SWIDTH 250 0
DWIDTH 4 0
BBX 3 4 0 0
BITMAP
C0
60
80
80
ENDCHAR
STARTCHAR U+2E16
ENCODING 11798
SWIDTH 250 0
DWIDTH 4 0
BBX 3 5 0 0
BITMAP
A0
40
20
40
A0
ENDCHAR
STARTCHAR U+2E17
ENCODING 11799
SWIDTH 187 0
DWIDTH 3 0
BBX 2 5 0 0
BITMAP
40
80
00
40
80
ENDCHAR
STARTCHAR U+3008
ENCODING 12296
SWIDTH 187 0
DWIDTH 3 0
BBX 2 5 0 0
BITMAP
40
40
80
40
40
ENDCHAR
STARTCHAR U+3009
ENCODING 12297
SWIDTH 187 0
DWIDTH 3 0
BBX 2 5 0 0
BITMAP
80
80
40
80
80
ENDCHAR
STARTCHAR U+300A
ENCODING 12298
SWIDTH 375 0
DWIDTH 6 0
BBX 5 5 0 0
BITMAP
48
48
90
48
48
ENDCHAR
STARTCHAR U+300B
ENCODING 12299
SWIDTH 375 0
DWIDTH 6 0
BBX 5 5 0 0
BITMAP
90
90
48
90
90
ENDCHAR
STARTCHAR U+300C
ENCODING 12300
SWIDTH 187 0
DWIDTH 3 0
BBX 2 5 0 0
BITMAP
C0
80
80
80
80
ENDCHAR
STARTCHAR U+300D
ENCODING 12301
SWIDTH 187 0
DWIDTH 3 0
BBX 2 5 0 0
BITMAP
40
40
40
40
C0
ENDCHAR
STARTCHAR U+301A
ENCODING 12314
SWIDTH 312 0
DWIDTH 5 0
BBX 4 5 0 0
BITMAP
F0
A0
A0
A0
F0
ENDCHAR
STARTCHAR U+301B
ENCODING 12315
SWIDTH 312 0
DWIDTH 5 0
BBX 4 5 0 0
BITMAP
F0
50
50
50
F0
ENDCHAR
STARTCHAR U+A740
ENCODING 42816
SWIDTH 375 0
DWIDTH 6 0
BBX 5 5 0 0
BITMAP
48
D0
60
50
48
ENDCHAR
STARTCHAR U+A741
ENCODING 42817
SWIDTH 312 0
DWIDTH 5 0
BBX 4 5 0 0
BITMAP
40
D0
60
50
50
ENDCHAR
STARTCHAR U+A789
ENCODING 42889
SWIDTH 125 0
DWIDTH 2 0
BBX 1 3 0 1
BITMAP
80
00
80
ENDCHAR
STARTCHAR U+A78A
ENCODING 42890
SWIDTH 187 0
DWIDTH 3 0
BBX 2 3 0 1
BITMAP
C0
00
C0
ENDCHAR
STARTCHAR U+A78B
ENCODING 42891
SWIDTH 125 0
DWIDTH 2 0
BBX 1 3 0 2
BITMAP
80
80
80
ENDCHAR
STARTCHAR U+A78C
ENCODING 42892
SWIDTH 125 0
DWIDTH 2 0
BBX 1 2 0 3
BITMAP
80
80
ENDCHAR
STARTCHAR U+A78D
ENCODING 42893
SWIDTH 312 0
DWIDTH 5 0
BBX 4 5 0 0
BITMAP
90
90
F0
10
10
ENDCHAR
STARTCHAR U+A792
ENCODING 42898
SWIDTH 312 0
DWIDTH 5 0
BBX 4 5 0 0
BITMAP
60
90
C0
90
60
ENDCHAR
STARTCHAR U+A793
ENCODING 42899
SWIDTH 250 0
DWIDTH 4 0
BBX 3 4 0 0
BITMAP
60
C0
80
60
ENDCHAR
STARTCHAR U+A7AA
ENCODING 42922
SWIDTH 375 0
DWIDTH 6 0
BBX 5 5 0 0
BITMAP
C8
48
78
48
48
ENDCHAR
STARTCHAR U+A7AD
ENCODING 42925
SWIDTH 375 0
DWIDTH 6 0
BBX 5 5 0 0
BITMAP
40
C0
E0
40
78
ENDCHAR
STARTCHAR U+A7AE
ENCODING 42926
SWIDTH 250 0
DWIDTH 4 0
BBX 3 5 0 0
BITMAP
E0
40
40
40
E0
ENDCHAR
STARTCHAR U+A7B2
ENCODING 42930
SWIDTH 250 0
DWIDTH 4 0
BBX 3 5 0 0
BITMAP
20
20
60
A0
40
ENDCHAR
STARTCHAR U+A7B3
ENCODING 42931
SWIDTH 375 0
DWIDTH 6 0
BBX 5 6 0 -1
BITMAP
88
50
20
20
50
88
ENDCHAR
STARTCHAR U+A7B4
ENCODING 42932
SWIDTH 312 0
DWIDTH 5 0
BBX 4 6 0 -1
BITMAP
E0
90
E0
90
E0
80
ENDCHAR
STARTCHAR U+A7B5
ENCODING 42933
SWIDTH 250 0
DWIDTH 4 0
BBX 3 6 0 -1
BITMAP
40
A0
C0
A0
C0
80
ENDCHAR
STARTCHAR U+A7B6
ENCODING 42934
SWIDTH 375 0
DWIDTH 6 0
BBX 5 5 0 0
BITMAP
50
88
A8
A8
50
ENDCHAR
STARTCHAR U+A7B7
ENCODING 42935
SWIDTH 375 0
DWIDTH 6 0
BBX 5 4 0 0
BITMAP
88
A8
A8
50
ENDCHAR
STARTCHAR U+A7B8
ENCODING 42936
SWIDTH 312 0
DWIDTH 5 0
BBX 5 7 0 -1
BITMAP
08
90
90
90
90
60
80
ENDCHAR
STARTCHAR U+A7B9
ENCODING 42937
SWIDTH 312 0
DWIDTH 5 0
BBX 4 6 0 -1
BITMAP
10
A0
A0
A0
60
80
ENDCHAR
STARTCHAR U+A7C7
ENCODING 42951
SWIDTH 312 0
DWIDTH 5 0
BBX 4 5 0 0
BITMAP
E0
90
F0
90
E0
ENDCHAR
STARTCHAR U+A7C8
ENCODING 42952
SWIDTH 250 0
DWIDTH 4 0
BBX 3 5 0 0
BITMAP
20
60
E0
A0
60
ENDCHAR
STARTCHAR U+A7CB
ENCODING 42955
SWIDTH 375 0
DWIDTH 6 0
BBX 5 6 0 -1
BITMAP
88
50
20
20
50
20
ENDCHAR
STARTCHAR U+A7CC
ENCODING 42956
SWIDTH 312 0
DWIDTH 5 0
BBX 4 7 0 -1
BITMAP
10
70
80
60
10
E0
80
ENDCHAR
STARTCHAR U+A7CD
ENCODING 42957
SWIDTH 250 0
DWIDTH 4 0
BBX 3 6 0 -1
BITMAP
20
60
C0
20
C0
80
ENDCHAR
STARTCHAR U+A7DA
ENCODING 42970
SWIDTH 375 0
DWIDTH 6 0
BBX 5 5 0 0
BITMAP
20
20
20
50
88
ENDCHAR
STARTCHAR U+A7DB
ENCODING 42971
SWIDTH 250 0
DWIDTH 4 0
BBX 3 5 0 0
BITMAP
80
40
40
A0
A0
ENDCHAR
STARTCHAR U+A7DC
ENCODING 42972
SWIDTH 250 0
DWIDTH 4 0
BBX 3 5 0 0
BITMAP
40
E0
40
A0
A0
ENDCHAR
STARTCHAR U+AB53
ENCODING 43859
SWIDTH 250 0
DWIDTH 4 0
BBX 3 5 0 -1
BITMAP
A0
A0
40
A0
A0
ENDCHAR
STARTCHAR U+1D459
ENCODING 119897
SWIDTH 125 0
DWIDTH 2 0
BBX 1 5 0 0
BITMAP
80
80
80
80
80
ENDCHAR
STARTCHAR U+1D510
ENCODING 120080
SWIDTH 437 0
DWIDTH 7 0
BBX 6 5 0 0
BITMAP
A8
54
54
54
94
ENDCHAR
STARTCHAR U+1D513
ENCODING 120083
SWIDTH 375 0
DWIDTH 6 0
BBX 5 7 0 -2
BITMAP
50
A8
28
28
70
20
20
ENDCHAR
STARTCHAR U+1D516
ENCODING 120086
SWIDTH 375 0
DWIDTH 6 0
BBX 5 5 0 0
BITMAP
78
80
B0
88
70
ENDCHAR
STARTCHAR U+1D52D
ENCODING 120109
SWIDTH 250 0
DWIDTH 4 0
BBX 3 6 0 -2
BITMAP
C0
A0
A0
C0
80
80
ENDCHAR
ENDFONT
